<?xml version="1.0" encoding="utf-8"?>
<!-- Generator: Adobe Illustrator 25.1.0, SVG Export Plug-In . SVG Version: 6.00 Build 0)  -->
<svg version="1.1" id="Capa_1" xmlns="http://www.w3.org/2000/svg" xmlns:xlink="http://www.w3.org/1999/xlink" x="0px" y="0px"
	 viewBox="0 0 194 251" style="enable-background:new 0 0 194 251;" xml:space="preserve">
<style type="text/css">
	.st0{fill:#125DA9;}
	.st1{fill:#6A91BF;}
	.st2{fill:#FFFFFF;}
</style>
<g id="GUIAS">
</g>
<g id="Capa_1_1_">
	<g>
		<g>
			<path class="st0" d="M23.2,72.7V198c0,15.4,12.5,27.8,27.8,27.8h93.1c15.4,0,27.8-12.5,27.8-27.8v-54.6L23.2,72.7z"/>
			<path class="st1" d="M172,51.5c0-15.4-12.5-27.8-27.8-27.8H51c-15.4,0-27.8,12.5-27.8,27.8v21.2L172,143.4V51.5z"/>
		</g>
		<g>
			<g>
				<rect x="44.6" y="115.3" class="st2" width="105.9" height="9.4"/>
				<rect x="44.6" y="138.7" class="st2" width="105.9" height="9.4"/>
				<rect x="44.6" y="163.5" class="st2" width="105.9" height="9.4"/>
				<rect x="44.6" y="188.8" class="st2" width="105.9" height="9.4"/>
			</g>
			<g>
				<rect x="57.3" y="51.3" class="st2" width="25.2" height="36.6"/>
				<rect x="112.7" y="51.3" class="st2" width="25.2" height="36.6"/>
				<circle class="st2" cx="97.6" cy="69.6" r="8.6"/>
			</g>
		</g>
	</g>
</g>
</svg>
