<?xml version="1.0" encoding="utf-8"?>
<!-- Generator: Adobe Illustrator 24.0.0, SVG Export Plug-In . SVG Version: 6.00 Build 0)  -->
<svg version="1.1" id="Capa_1" xmlns="http://www.w3.org/2000/svg" xmlns:xlink="http://www.w3.org/1999/xlink" x="0px" y="0px"
	 viewBox="0 0 112 112" style="enable-background:new 0 0 112 112;" xml:space="preserve">
<style type="text/css">
	.st0{fill:#FFCA2D;}
	.st1{fill:#BB2D3B;}
	.st2{fill:#FFFFFF;}
	.st3{fill:#125DA9;}
	.st4{fill:#F7931E;}
	.st5{fill:#009245;}
	.st6{fill:#FF0000;}
	.st7{fill:#339CC1;}
</style>
<g>
	<path class="st0" d="M91,106H21c-8.3,0-15-6.7-15-15V21c0-8.3,6.7-15,15-15h70c8.3,0,15,6.7,15,15v70C106,99.3,99.3,106,91,106z"/>
	<path d="M25.4,42.4c0.4-1,0.6-2,1.1-2.9c1.4-2.5,3.7-3.8,6.5-3.8c6.8,0,13.5,0,20.3,0c1.6,0,2.7,1.1,2.7,2.6c0,1.4-1.1,2.5-2.7,2.5
		c-6.6,0-13.2,0-19.9,0c-1.9,0-2.9,1-2.9,2.9c0,11.7,0,23.4,0,35c0,1.9,1,2.8,2.8,2.8c11.7,0,23.4,0,35.1,0c1.8,0,2.8-1,2.8-2.9
		c0-6.6,0-13.3,0-19.9c0-1.9,1.7-3.1,3.4-2.5c1.1,0.4,1.7,1.3,1.7,2.6c0,2.3,0,4.6,0,6.9c0,4.2,0,8.5,0,12.7c0,4.2-2,6.8-6,8.1
		c0,0-0.1,0-0.1,0.1c-13,0-25.9,0-38.9,0c-0.1-0.1-0.3-0.1-0.4-0.2c-2-0.6-3.6-1.8-4.6-3.7c-0.4-0.8-0.7-1.8-1-2.7
		C25.4,67.4,25.4,54.9,25.4,42.4z"/>
	<path d="M69.4,33.7c3,3,6,6,9,9c-0.1,0.1-0.2,0.2-0.4,0.4C71.6,49.5,65.1,56,58.6,62.4c-0.4,0.4-0.9,0.7-1.4,0.8
		c-2.8,0.6-5.6,1.1-8.4,1.7c-1.1,0.2-1.9-0.5-1.7-1.6c0.6-2.9,1.2-5.8,1.8-8.6c0.1-0.3,0.2-0.7,0.5-0.9C56.1,47,62.7,40.4,69.4,33.7
		C69.4,33.7,69.4,33.7,69.4,33.7z"/>
	<path d="M81.2,39.9c-3-3-6-6-9-9c1.5-1.4,2.9-3,4.6-4.2c2.5-1.8,6-1.3,8.1,0.9c2.1,2.2,2.3,5.7,0.5,8.1c-0.2,0.3-0.4,0.6-0.7,0.8
		C83.5,37.6,82.4,38.7,81.2,39.9z"/>
</g>
</svg>
