<?xml version="1.0" encoding="utf-8"?>
<!-- Generator: Adobe Illustrator 24.0.0, SVG Export Plug-In . SVG Version: 6.00 Build 0)  -->
<svg version="1.1" id="Capa_1" xmlns="http://www.w3.org/2000/svg" xmlns:xlink="http://www.w3.org/1999/xlink" x="0px" y="0px"
	 viewBox="0 0 112 112" style="enable-background:new 0 0 112 112;" xml:space="preserve">
<style type="text/css">
	.st0{fill:#FFCA2D;}
	.st1{fill:#BB2D3B;}
	.st2{fill:#FFFFFF;}
	.st3{fill:#125DA9;}
	.st4{fill:#F7931E;}
	.st5{fill:#009245;}
	.st6{fill:#FF0000;}
	.st7{fill:#339CC1;}
</style>
<g>
	<path class="st1" d="M91,106H21c-8.3,0-15-6.7-15-15V21c0-8.3,6.7-15,15-15h70c8.3,0,15,6.7,15,15v70C106,99.3,99.3,106,91,106z"/>
	<path class="st2" d="M63.8,22.1c1,0.4,2,0.7,2.9,1.2c1.9,1.2,2.6,3.1,2.6,5.3c0,0.5,0,1.1,0,1.7c0.3,0,0.5,0,0.7,0c2.3,0,4.7,0,7,0
		c2.8,0,4.9,1.2,6,3.9c1.3,3-0.3,6.6-3.3,7.8c-0.6,0.2-0.8,0.5-0.8,1.1c0,12.6,0,25.2,0,37.8c0,2-0.4,3.8-1.5,5.4
		c-1.6,2.2-3.7,3.4-6.5,3.5c-2.3,0-4.6,0-6.9,0c-7.5,0-15.1-0.1-22.6,0c-4.7,0-8.3-3.5-8.4-8.3c-0.1-3.9,0-7.9,0-11.8
		c0-8.9,0-17.9,0-26.8c0-0.5-0.1-0.7-0.6-0.9c-2.6-0.9-4.2-3.7-3.9-6.3c0.4-2.8,2.6-5.1,5.4-5.3c2-0.1,4.1-0.1,6.1-0.1
		c0.8,0,1.6,0,2.5,0c0-0.9,0.1-1.8,0.1-2.7c0.3-2.8,2.4-5,5.1-5.4c0.1,0,0.2-0.1,0.3-0.1C53.4,22.1,58.6,22.1,63.8,22.1z M36.2,42.5
		c0,0.3,0,0.5,0,0.7c0,12.6,0,25.2,0,37.8c0,0.5,0,1,0.1,1.4c0.4,2.5,2.3,4.2,4.8,4.2c10,0,19.9,0,29.9,0c1.6,0,2.9-0.7,3.9-2
		c0.8-1.1,1-2.4,1-3.7c0-12.6,0-25.2,0-37.7c0-0.2,0-0.5,0-0.7C62.6,42.5,49.4,42.5,36.2,42.5z M56,39.3c6.9,0,13.8,0,20.7,0
		c0.4,0,0.7,0,1.1,0c1.4-0.1,2.4-1.2,2.5-2.6c0.1-1.3-0.8-2.6-2-2.9c-0.4-0.1-0.9-0.1-1.3-0.1c-13.9,0-27.8,0-41.8,0
		c-0.4,0-0.7,0-1.1,0.1c-1.3,0.2-2.3,1.3-2.4,2.7c-0.1,1.3,0.9,2.5,2.1,2.8c0.4,0.1,0.9,0.1,1.3,0.1C42.1,39.3,49,39.3,56,39.3z
		 M45.8,30.3c6.8,0,13.6,0,20.3,0c0-0.8,0.1-1.6,0-2.3c-0.2-1.5-1.3-2.6-2.8-2.6c-4.8,0-9.7,0-14.5,0c-1.4,0-2.6,1-2.8,2.4
		C45.8,28.6,45.9,29.5,45.8,30.3z"/>
	<path class="st2" d="M48.2,63.2c0,4.9,0,9.7,0,14.6c0,0.4-0.1,0.9-0.3,1.3c-0.3,0.5-0.9,0.7-1.5,0.7c-0.6-0.1-1.1-0.5-1.3-1.1
		c-0.1-0.3-0.1-0.6-0.1-0.8c0-9.7,0-19.4,0-29.1c0-1.2,0.5-1.8,1.3-2c0.9-0.1,1.6,0.4,1.8,1.3c0,0.3,0,0.5,0,0.8
		C48.2,53.6,48.2,58.4,48.2,63.2z"/>
	<path class="st2" d="M54.4,63.2c0-4.9,0-9.7,0-14.6c0-0.7,0.2-1.4,0.9-1.7c0.8-0.5,1.9,0,2.2,0.9c0.1,0.3,0.1,0.7,0.1,1
		c0,9.6,0,19.2,0,28.9c0,0.3,0,0.6-0.1,0.9c-0.2,0.7-0.8,1.2-1.5,1.2c-0.7,0-1.3-0.5-1.5-1.2c-0.1-0.3-0.1-0.6-0.1-0.9
		C54.4,72.8,54.4,68,54.4,63.2z"/>
	<path class="st2" d="M63.8,63.3c0-4.8,0-9.6,0-14.5c0-1.4,0.5-2.1,1.5-2.1c1,0,1.6,0.7,1.6,2.1c0,9.6,0,19.2,0,28.9
		c0,1.4-0.6,2.1-1.6,2.1c-1,0-1.5-0.7-1.5-2.1C63.8,72.9,63.8,68.1,63.8,63.3z"/>
</g>
</svg>
