<?xml version="1.0" encoding="utf-8"?>
<!-- Generator: Adobe Illustrator 24.0.0, SVG Export Plug-In . SVG Version: 6.00 Build 0)  -->
<svg version="1.1" xmlns="http://www.w3.org/2000/svg" xmlns:xlink="http://www.w3.org/1999/xlink" x="0px" y="0px"
	 viewBox="0 0 512 512" style="enable-background:new 0 0 512 512;" xml:space="preserve">
<style type="text/css">
	.st0{fill:#125DA9;}
	.st1{fill:#6A91BF;}
	.st2{fill:#FFFFFF;}
	.st3{fill:#969696;}
	.st4{fill:#B8B8B8;}
</style>
<g id="GUIAS">
</g>
<g id="Capa_1">
	<g>
		<g>
			<path class="st0" d="M71.58,126.91v309.98c0,38.01,30.82,68.83,68.83,68.83h230.35c38.01,0,68.83-30.82,68.83-68.83V301.91
				L71.58,126.91z"/>
			<path class="st1" d="M439.59,74.55c0-38.01-30.82-68.83-68.83-68.83H140.41c-38.01,0-68.83,30.82-68.83,68.83v52.35l368.02,175
				V74.55z"/>
		</g>
		<g>
			<g>
				<rect x="124.56" y="232.42" class="st2" width="262.05" height="23.15"/>
				<rect x="124.56" y="290.34" class="st2" width="262.05" height="23.15"/>
				<rect x="124.56" y="351.55" class="st2" width="262.05" height="23.15"/>
				<rect x="124.56" y="414.27" class="st2" width="262.05" height="23.15"/>
			</g>
			<g>
				<rect x="155.85" y="74.02" class="st2" width="62.39" height="90.55"/>
				<rect x="292.94" y="74.02" class="st2" width="62.39" height="90.55"/>
				<circle class="st2" cx="255.58" cy="119.3" r="21.21"/>
			</g>
		</g>
	</g>
</g>
</svg>
