<?xml version="1.0" encoding="utf-8"?>
<!-- Generator: Adobe Illustrator 24.0.0, SVG Export Plug-In . SVG Version: 6.00 Build 0)  -->
<svg version="1.1" xmlns="http://www.w3.org/2000/svg" xmlns:xlink="http://www.w3.org/1999/xlink" x="0px" y="0px"
	 viewBox="0 0 512 512" style="enable-background:new 0 0 512 512;" xml:space="preserve">
<style type="text/css">
	.st0{fill:#125DA9;}
	.st1{fill:#6A91BF;}
	.st2{fill:#FFFFFF;}
	.st3{fill:#969696;}
	.st4{fill:#B8B8B8;}
</style>
<g id="GUIAS">
</g>
<g id="Capa_1">
	<g>
		<path class="st3" d="M54.6,374.63v-21.3h4.14v21.3H54.6z"/>
		<path class="st3" d="M77.4,374.63h-4.02v-8.82c0-1.26-0.22-2.18-0.66-2.76c-0.44-0.58-1.05-0.87-1.83-0.87
			c-0.4,0-0.81,0.08-1.23,0.24s-0.82,0.39-1.18,0.67c-0.37,0.29-0.71,0.64-1.01,1.04c-0.3,0.4-0.52,0.84-0.66,1.32v9.18h-4.02
			v-15.72h3.63v2.91c0.58-1,1.42-1.78,2.52-2.34c1.1-0.56,2.34-0.84,3.72-0.84c0.98,0,1.78,0.18,2.4,0.54
			c0.62,0.36,1.1,0.83,1.44,1.41s0.58,1.24,0.71,1.98c0.13,0.74,0.2,1.49,0.2,2.25V374.63z"/>
		<path class="st3" d="M81.72,374.63v-11.82h-2.07v-3.06h2.07v-0.96c0-1.96,0.47-3.51,1.41-4.65c0.94-1.14,2.22-1.71,3.84-1.71
			c1.28,0,2.57,0.31,3.87,0.93l-0.81,3.03c-0.3-0.16-0.66-0.29-1.07-0.4c-0.41-0.11-0.79-0.17-1.12-0.17c-1.4,0-2.1,0.94-2.1,2.82
			v1.11h3.84v3.06h-3.84v11.82H81.72z"/>
		<path class="st3" d="M98.34,374.93c-1.28,0-2.43-0.22-3.45-0.66c-1.02-0.44-1.89-1.03-2.6-1.78s-1.25-1.62-1.63-2.6
			c-0.38-0.98-0.57-2.01-0.57-3.09c0-1.1,0.19-2.14,0.57-3.12c0.38-0.98,0.92-1.84,1.63-2.59s1.58-1.34,2.6-1.79
			c1.02-0.44,2.17-0.66,3.45-0.66c1.28,0,2.42,0.22,3.44,0.66c1.01,0.44,1.87,1.04,2.58,1.79c0.71,0.75,1.25,1.62,1.63,2.59
			c0.38,0.98,0.57,2.02,0.57,3.12c0,1.08-0.19,2.11-0.57,3.09c-0.38,0.98-0.92,1.85-1.62,2.6s-1.56,1.34-2.58,1.78
			C100.77,374.71,99.62,374.93,98.34,374.93z M94.23,366.8c0,0.7,0.1,1.33,0.31,1.91c0.21,0.57,0.5,1.06,0.87,1.48
			c0.37,0.42,0.8,0.75,1.31,0.98c0.5,0.23,1.04,0.34,1.62,0.34s1.12-0.11,1.62-0.34c0.5-0.23,0.93-0.55,1.31-0.98
			c0.37-0.42,0.66-0.92,0.87-1.5c0.21-0.58,0.32-1.22,0.32-1.92c0-0.68-0.1-1.31-0.32-1.89c-0.21-0.58-0.5-1.08-0.87-1.5
			c-0.37-0.42-0.81-0.75-1.31-0.97c-0.5-0.23-1.04-0.35-1.62-0.35s-1.12,0.12-1.62,0.36c-0.5,0.24-0.94,0.57-1.31,0.99
			s-0.66,0.92-0.87,1.5S94.23,366.13,94.23,366.8z"/>
		<path class="st3" d="M118.62,362.39c-1.22,0.02-2.31,0.25-3.27,0.71s-1.65,1.12-2.07,2.03v9.51h-4.02v-15.72h3.69v3.36
			c0.28-0.54,0.61-1.02,0.99-1.46c0.38-0.43,0.79-0.8,1.23-1.12c0.44-0.32,0.88-0.56,1.33-0.73s0.88-0.25,1.3-0.25
			c0.22,0,0.38,0,0.5,0s0.21,0.01,0.32,0.03V362.39z"/>
		<path class="st3" d="M145.29,374.63h-4.02v-8.82c0-1.26-0.21-2.18-0.64-2.76c-0.43-0.58-1.03-0.87-1.79-0.87
			c-0.8,0-1.55,0.31-2.25,0.92c-0.7,0.61-1.2,1.41-1.5,2.38v9.15h-4.02v-8.82c0-1.26-0.21-2.18-0.64-2.76
			c-0.43-0.58-1.03-0.87-1.79-0.87c-0.78,0-1.53,0.3-2.23,0.9c-0.71,0.6-1.22,1.39-1.52,2.37v9.18h-4.02v-15.72h3.63v2.91
			c0.58-1.02,1.38-1.8,2.38-2.36c1.01-0.55,2.17-0.83,3.46-0.83c1.32,0,2.34,0.32,3.06,0.96c0.72,0.64,1.18,1.43,1.38,2.37
			c0.64-1.08,1.45-1.91,2.43-2.47c0.98-0.57,2.1-0.86,3.36-0.86c0.96,0,1.75,0.18,2.37,0.54c0.62,0.36,1.1,0.83,1.44,1.41
			s0.58,1.24,0.71,1.98c0.13,0.74,0.2,1.49,0.2,2.25V374.63z"/>
		<path class="st3" d="M153.09,374.93c-0.76,0-1.47-0.12-2.13-0.38c-0.66-0.25-1.23-0.6-1.71-1.05c-0.48-0.45-0.85-0.97-1.12-1.58
			c-0.27-0.6-0.4-1.26-0.4-1.98c0-0.74,0.17-1.43,0.5-2.06s0.79-1.16,1.38-1.6c0.59-0.44,1.29-0.79,2.12-1.04
			c0.82-0.25,1.72-0.38,2.7-0.38c0.7,0,1.38,0.06,2.06,0.18c0.67,0.12,1.26,0.29,1.78,0.51v-0.9c0-1.04-0.29-1.84-0.88-2.4
			c-0.59-0.56-1.46-0.84-2.62-0.84c-0.84,0-1.66,0.15-2.46,0.45s-1.62,0.74-2.46,1.32l-1.23-2.55c2.02-1.34,4.2-2.01,6.54-2.01
			c2.26,0,4.01,0.56,5.26,1.67c1.25,1.11,1.88,2.71,1.88,4.82v4.89c0,0.42,0.08,0.72,0.22,0.9c0.15,0.18,0.4,0.28,0.74,0.3v3.42
			c-0.68,0.14-1.27,0.21-1.77,0.21c-0.76,0-1.35-0.17-1.76-0.51s-0.67-0.79-0.76-1.35l-0.09-0.87c-0.7,0.92-1.55,1.62-2.55,2.1
			C155.3,374.69,154.23,374.93,153.09,374.93z M154.23,372c0.68,0,1.32-0.12,1.93-0.36s1.08-0.56,1.43-0.96
			c0.44-0.34,0.66-0.72,0.66-1.14v-1.8c-0.48-0.18-1-0.32-1.56-0.43c-0.56-0.11-1.1-0.17-1.62-0.17c-1.04,0-1.89,0.24-2.55,0.71
			s-0.99,1.06-0.99,1.79c0,0.68,0.26,1.25,0.78,1.69C152.83,371.77,153.47,372,154.23,372z"/>
		<path class="st3" d="M165.03,366.77c0-1.1,0.19-2.14,0.57-3.12c0.38-0.98,0.93-1.84,1.65-2.58c0.72-0.74,1.59-1.33,2.61-1.77
			c1.02-0.44,2.17-0.66,3.45-0.66c1.72,0,3.18,0.37,4.39,1.11s2.12,1.71,2.71,2.91l-3.93,1.2c-0.34-0.58-0.79-1.03-1.35-1.34
			c-0.56-0.31-1.18-0.46-1.86-0.46c-0.58,0-1.12,0.12-1.62,0.35c-0.5,0.23-0.94,0.55-1.3,0.96c-0.37,0.41-0.66,0.91-0.87,1.48
			c-0.21,0.58-0.32,1.22-0.32,1.92c0,0.7,0.11,1.34,0.33,1.92c0.22,0.58,0.51,1.08,0.88,1.5c0.37,0.42,0.81,0.75,1.31,0.98
			c0.5,0.23,1.03,0.34,1.59,0.34c0.72,0,1.38-0.18,2-0.54c0.61-0.36,1.04-0.8,1.27-1.32l3.93,1.2c-0.54,1.2-1.43,2.18-2.67,2.94
			c-1.24,0.76-2.73,1.14-4.47,1.14c-1.28,0-2.43-0.22-3.45-0.66c-1.02-0.44-1.89-1.03-2.61-1.78s-1.28-1.62-1.67-2.61
			S165.03,367.85,165.03,366.77z"/>
		<path class="st3" d="M182.94,356.72v-3.99h4.02v3.99H182.94z M182.94,374.63v-15.72h4.02v15.72H182.94z"/>
		<path class="st3" d="M197.85,374.93c-1.28,0-2.43-0.22-3.45-0.66c-1.02-0.44-1.89-1.03-2.6-1.78s-1.25-1.62-1.63-2.6
			c-0.38-0.98-0.57-2.01-0.57-3.09c0-1.1,0.19-2.14,0.57-3.12c0.38-0.98,0.92-1.84,1.63-2.59s1.58-1.34,2.6-1.79
			c1.02-0.44,2.17-0.66,3.45-0.66c1.28,0,2.42,0.22,3.44,0.66c1.01,0.44,1.87,1.04,2.58,1.79c0.71,0.75,1.25,1.62,1.63,2.59
			c0.38,0.98,0.57,2.02,0.57,3.12c0,1.08-0.19,2.11-0.57,3.09c-0.38,0.98-0.92,1.85-1.62,2.6s-1.56,1.34-2.58,1.78
			C200.28,374.71,199.13,374.93,197.85,374.93z M193.74,366.8c0,0.7,0.1,1.33,0.31,1.91c0.21,0.57,0.5,1.06,0.87,1.48
			c0.37,0.42,0.8,0.75,1.31,0.98c0.5,0.23,1.04,0.34,1.62,0.34s1.12-0.11,1.62-0.34c0.5-0.23,0.93-0.55,1.31-0.98
			c0.37-0.42,0.66-0.92,0.87-1.5c0.21-0.58,0.32-1.22,0.32-1.92c0-0.68-0.1-1.31-0.32-1.89c-0.21-0.58-0.5-1.08-0.87-1.5
			c-0.37-0.42-0.81-0.75-1.31-0.97c-0.5-0.23-1.04-0.35-1.62-0.35s-1.12,0.12-1.62,0.36c-0.5,0.24-0.94,0.57-1.31,0.99
			s-0.66,0.92-0.87,1.5S193.74,366.13,193.74,366.8z M198.87,357.09l-2.58-0.78l1.62-3.57h3.75L198.87,357.09z"/>
		<path class="st3" d="M223.38,374.63h-4.02v-8.82c0-1.26-0.22-2.18-0.66-2.76c-0.44-0.58-1.05-0.87-1.83-0.87
			c-0.4,0-0.81,0.08-1.23,0.24s-0.82,0.39-1.18,0.67c-0.37,0.29-0.71,0.64-1.01,1.04c-0.3,0.4-0.52,0.84-0.66,1.32v9.18h-4.02
			v-15.72h3.63v2.91c0.58-1,1.42-1.78,2.52-2.34c1.1-0.56,2.34-0.84,3.72-0.84c0.98,0,1.78,0.18,2.4,0.54
			c0.62,0.36,1.1,0.83,1.44,1.41s0.58,1.24,0.71,1.98c0.13,0.74,0.2,1.49,0.2,2.25V374.63z"/>
		<path class="st3" d="M233.58,377.69c0.34,0.1,0.67,0.17,0.99,0.23c0.32,0.05,0.59,0.08,0.81,0.08c0.26,0,0.5-0.05,0.72-0.15
			c0.22-0.1,0.42-0.28,0.6-0.53c0.18-0.25,0.36-0.59,0.54-1.03c0.18-0.44,0.37-0.99,0.57-1.65l-6.21-15.72h4.14l4.26,12.24
			l3.78-12.24h3.78l-6.6,18.84c-0.38,1.1-1.03,2-1.95,2.7c-0.92,0.7-2.06,1.05-3.42,1.05c-0.32,0-0.65-0.03-0.98-0.08
			c-0.33-0.05-0.67-0.13-1.03-0.25V377.69z"/>
		<path class="st3" d="M255.24,363.84c0-1.3,0.24-2.58,0.71-3.86c0.47-1.27,1.16-2.4,2.05-3.4c0.9-1,2-1.81,3.3-2.43
			c1.3-0.62,2.78-0.93,4.44-0.93c1.96,0,3.66,0.43,5.08,1.29c1.43,0.86,2.5,1.98,3.2,3.36l-3.18,2.19c-0.28-0.6-0.62-1.1-1.02-1.51
			c-0.4-0.41-0.83-0.74-1.29-0.98c-0.46-0.24-0.94-0.41-1.44-0.52s-0.99-0.17-1.47-0.17c-1.04,0-1.95,0.21-2.71,0.63
			c-0.77,0.42-1.41,0.96-1.92,1.63c-0.51,0.67-0.9,1.43-1.16,2.28c-0.26,0.85-0.39,1.7-0.39,2.54c0,0.94,0.15,1.84,0.45,2.71
			c0.3,0.87,0.72,1.63,1.27,2.29s1.21,1.19,1.98,1.59c0.77,0.4,1.61,0.6,2.54,0.6c0.48,0,0.98-0.06,1.5-0.18
			c0.52-0.12,1.01-0.31,1.48-0.57c0.47-0.26,0.91-0.59,1.31-1c0.4-0.41,0.72-0.9,0.96-1.48l3.39,1.95c-0.34,0.8-0.83,1.5-1.46,2.11
			c-0.63,0.61-1.34,1.12-2.13,1.54s-1.63,0.74-2.54,0.96c-0.9,0.22-1.78,0.33-2.64,0.33c-1.52,0-2.91-0.32-4.17-0.96
			c-1.26-0.64-2.35-1.47-3.25-2.5c-0.91-1.03-1.62-2.2-2.13-3.51C255.5,366.53,255.24,365.2,255.24,363.84z"/>
		<path class="st3" d="M283.98,374.93c-1.28,0-2.43-0.22-3.45-0.66c-1.02-0.44-1.89-1.03-2.6-1.78s-1.25-1.62-1.63-2.6
			c-0.38-0.98-0.57-2.01-0.57-3.09c0-1.1,0.19-2.14,0.57-3.12c0.38-0.98,0.92-1.84,1.63-2.59s1.58-1.34,2.6-1.79
			c1.02-0.44,2.17-0.66,3.45-0.66c1.28,0,2.42,0.22,3.44,0.66c1.01,0.44,1.87,1.04,2.58,1.79c0.71,0.75,1.25,1.62,1.63,2.59
			c0.38,0.98,0.57,2.02,0.57,3.12c0,1.08-0.19,2.11-0.57,3.09c-0.38,0.98-0.92,1.85-1.62,2.6s-1.56,1.34-2.58,1.78
			C286.41,374.71,285.26,374.93,283.98,374.93z M279.87,366.8c0,0.7,0.1,1.33,0.31,1.91c0.21,0.57,0.5,1.06,0.87,1.48
			c0.37,0.42,0.8,0.75,1.31,0.98c0.5,0.23,1.04,0.34,1.62,0.34s1.12-0.11,1.62-0.34c0.5-0.23,0.93-0.55,1.31-0.98
			c0.37-0.42,0.66-0.92,0.87-1.5c0.21-0.58,0.32-1.22,0.32-1.92c0-0.68-0.1-1.31-0.32-1.89c-0.21-0.58-0.5-1.08-0.87-1.5
			c-0.37-0.42-0.81-0.75-1.31-0.97c-0.5-0.23-1.04-0.35-1.62-0.35s-1.12,0.12-1.62,0.36c-0.5,0.24-0.94,0.57-1.31,0.99
			s-0.66,0.92-0.87,1.5S279.87,366.13,279.87,366.8z"/>
		<path class="st3" d="M319.32,374.63h-4.02v-8.82c0-1.26-0.22-2.18-0.65-2.76s-1.02-0.87-1.79-0.87c-0.8,0-1.55,0.31-2.25,0.92
			c-0.7,0.61-1.2,1.41-1.5,2.38v9.15h-4.02v-8.82c0-1.26-0.21-2.18-0.65-2.76c-0.43-0.58-1.02-0.87-1.78-0.87
			c-0.78,0-1.53,0.3-2.24,0.9c-0.71,0.6-1.21,1.39-1.51,2.37v9.18h-4.02v-15.72h3.63v2.91c0.58-1.02,1.38-1.8,2.39-2.36
			c1.01-0.55,2.16-0.83,3.46-0.83c1.32,0,2.34,0.32,3.06,0.96c0.72,0.64,1.18,1.43,1.38,2.37c0.64-1.08,1.45-1.91,2.43-2.47
			c0.98-0.57,2.1-0.86,3.36-0.86c0.96,0,1.75,0.18,2.37,0.54c0.62,0.36,1.1,0.83,1.44,1.41c0.34,0.58,0.57,1.24,0.71,1.98
			c0.13,0.74,0.19,1.49,0.19,2.25V374.63z"/>
		<path class="st3" d="M327.63,374.93c-1.62,0-2.85-0.52-3.69-1.56s-1.26-2.58-1.26-4.62v-9.84h4.02v8.97
			c0,2.42,0.87,3.63,2.61,3.63c0.78,0,1.54-0.23,2.27-0.71c0.73-0.47,1.32-1.18,1.78-2.14v-9.75h4.02v11.1
			c0,0.42,0.08,0.72,0.22,0.9c0.15,0.18,0.39,0.28,0.74,0.3v3.42c-0.4,0.08-0.74,0.13-1,0.15c-0.27,0.02-0.52,0.03-0.74,0.03
			c-0.72,0-1.3-0.17-1.75-0.5c-0.45-0.33-0.71-0.78-0.79-1.36l-0.09-1.26c-0.7,1.08-1.6,1.89-2.7,2.43
			C330.16,374.67,328.95,374.93,327.63,374.93z"/>
		<path class="st3" d="M355.98,374.63h-4.02v-8.82c0-1.26-0.22-2.18-0.66-2.76c-0.44-0.58-1.05-0.87-1.83-0.87
			c-0.4,0-0.81,0.08-1.23,0.24c-0.42,0.16-0.82,0.39-1.19,0.67c-0.37,0.29-0.71,0.64-1,1.04c-0.3,0.4-0.52,0.84-0.66,1.32v9.18
			h-4.02v-15.72H345v2.91c0.58-1,1.42-1.78,2.52-2.34c1.1-0.56,2.34-0.84,3.72-0.84c0.98,0,1.78,0.18,2.4,0.54
			c0.62,0.36,1.1,0.83,1.44,1.41c0.34,0.58,0.57,1.24,0.71,1.98c0.13,0.74,0.19,1.49,0.19,2.25V374.63z"/>
		<path class="st3" d="M359.49,356.72v-3.99h4.02v3.99H359.49z M359.49,374.63v-15.72h4.02v15.72H359.49z"/>
		<path class="st3" d="M366.15,366.77c0-1.1,0.19-2.14,0.57-3.12c0.38-0.98,0.93-1.84,1.65-2.58c0.72-0.74,1.59-1.33,2.61-1.77
			c1.02-0.44,2.17-0.66,3.45-0.66c1.72,0,3.18,0.37,4.4,1.11c1.21,0.74,2.11,1.71,2.71,2.91l-3.93,1.2
			c-0.34-0.58-0.79-1.03-1.35-1.34c-0.56-0.31-1.18-0.46-1.86-0.46c-0.58,0-1.12,0.12-1.62,0.35c-0.5,0.23-0.94,0.55-1.31,0.96
			s-0.66,0.91-0.87,1.48c-0.21,0.58-0.31,1.22-0.31,1.92c0,0.7,0.11,1.34,0.33,1.92c0.22,0.58,0.51,1.08,0.88,1.5
			c0.37,0.42,0.8,0.75,1.3,0.98c0.5,0.23,1.03,0.34,1.59,0.34c0.72,0,1.38-0.18,2-0.54c0.61-0.36,1.04-0.8,1.28-1.32l3.93,1.2
			c-0.54,1.2-1.43,2.18-2.67,2.94s-2.73,1.14-4.47,1.14c-1.28,0-2.43-0.22-3.45-0.66c-1.02-0.44-1.89-1.03-2.61-1.78
			c-0.72-0.75-1.27-1.62-1.67-2.61C366.34,368.89,366.15,367.85,366.15,366.77z"/>
		<path class="st3" d="M388.35,374.93c-0.76,0-1.47-0.12-2.13-0.38s-1.23-0.6-1.71-1.05c-0.48-0.45-0.86-0.97-1.12-1.58
			c-0.27-0.6-0.41-1.26-0.41-1.98c0-0.74,0.17-1.43,0.5-2.06s0.79-1.16,1.38-1.6c0.59-0.44,1.29-0.79,2.12-1.04s1.72-0.38,2.7-0.38
			c0.7,0,1.38,0.06,2.05,0.18s1.26,0.29,1.79,0.51v-0.9c0-1.04-0.29-1.84-0.88-2.4c-0.59-0.56-1.47-0.84-2.62-0.84
			c-0.84,0-1.66,0.15-2.46,0.45c-0.8,0.3-1.62,0.74-2.46,1.32l-1.23-2.55c2.02-1.34,4.2-2.01,6.54-2.01c2.26,0,4.01,0.56,5.26,1.67
			c1.25,1.11,1.88,2.71,1.88,4.82v4.89c0,0.42,0.08,0.72,0.23,0.9c0.15,0.18,0.39,0.28,0.73,0.3v3.42
			c-0.68,0.14-1.27,0.21-1.77,0.21c-0.76,0-1.35-0.17-1.75-0.51c-0.41-0.34-0.67-0.79-0.76-1.35l-0.09-0.87
			c-0.7,0.92-1.55,1.62-2.55,2.1C390.56,374.69,389.49,374.93,388.35,374.93z M389.49,372c0.68,0,1.33-0.12,1.94-0.36
			c0.61-0.24,1.08-0.56,1.42-0.96c0.44-0.34,0.66-0.72,0.66-1.14v-1.8c-0.48-0.18-1-0.32-1.56-0.43c-0.56-0.11-1.1-0.17-1.62-0.17
			c-1.04,0-1.89,0.24-2.55,0.71c-0.66,0.47-0.99,1.06-0.99,1.79c0,0.68,0.26,1.25,0.78,1.69C388.09,371.77,388.73,372,389.49,372z"
			/>
		<path class="st3" d="M400.29,366.77c0-1.1,0.19-2.14,0.57-3.12c0.38-0.98,0.93-1.84,1.65-2.58c0.72-0.74,1.59-1.33,2.61-1.77
			c1.02-0.44,2.17-0.66,3.45-0.66c1.72,0,3.18,0.37,4.4,1.11c1.21,0.74,2.11,1.71,2.71,2.91l-3.93,1.2
			c-0.34-0.58-0.79-1.03-1.35-1.34c-0.56-0.31-1.18-0.46-1.86-0.46c-0.58,0-1.12,0.12-1.62,0.35c-0.5,0.23-0.94,0.55-1.31,0.96
			s-0.66,0.91-0.87,1.48c-0.21,0.58-0.31,1.22-0.31,1.92c0,0.7,0.11,1.34,0.33,1.92c0.22,0.58,0.51,1.08,0.88,1.5
			c0.37,0.42,0.8,0.75,1.3,0.98c0.5,0.23,1.03,0.34,1.59,0.34c0.72,0,1.38-0.18,2-0.54c0.61-0.36,1.04-0.8,1.28-1.32l3.93,1.2
			c-0.54,1.2-1.43,2.18-2.67,2.94s-2.73,1.14-4.47,1.14c-1.28,0-2.43-0.22-3.45-0.66c-1.02-0.44-1.89-1.03-2.61-1.78
			c-0.72-0.75-1.27-1.62-1.67-2.61C400.48,368.89,400.29,367.85,400.29,366.77z"/>
		<path class="st3" d="M418.2,356.72v-3.99h4.02v3.99H418.2z M418.2,374.63v-15.72h4.02v15.72H418.2z"/>
		<path class="st3" d="M433.11,374.93c-1.28,0-2.43-0.22-3.45-0.66c-1.02-0.44-1.89-1.03-2.6-1.78s-1.25-1.62-1.63-2.6
			c-0.38-0.98-0.57-2.01-0.57-3.09c0-1.1,0.19-2.14,0.57-3.12c0.38-0.98,0.92-1.84,1.63-2.59s1.58-1.34,2.6-1.79
			c1.02-0.44,2.17-0.66,3.45-0.66c1.28,0,2.42,0.22,3.44,0.66c1.01,0.44,1.87,1.04,2.58,1.79c0.71,0.75,1.25,1.62,1.63,2.59
			c0.38,0.98,0.57,2.02,0.57,3.12c0,1.08-0.19,2.11-0.57,3.09c-0.38,0.98-0.92,1.85-1.62,2.6s-1.56,1.34-2.58,1.78
			C435.54,374.71,434.39,374.93,433.11,374.93z M429,366.8c0,0.7,0.1,1.33,0.31,1.91c0.21,0.57,0.5,1.06,0.87,1.48
			c0.37,0.42,0.8,0.75,1.31,0.98c0.5,0.23,1.04,0.34,1.62,0.34s1.12-0.11,1.62-0.34c0.5-0.23,0.93-0.55,1.31-0.98
			c0.37-0.42,0.66-0.92,0.87-1.5c0.21-0.58,0.32-1.22,0.32-1.92c0-0.68-0.1-1.31-0.32-1.89c-0.21-0.58-0.5-1.08-0.87-1.5
			c-0.37-0.42-0.81-0.75-1.31-0.97c-0.5-0.23-1.04-0.35-1.62-0.35s-1.12,0.12-1.62,0.36c-0.5,0.24-0.94,0.57-1.31,0.99
			s-0.66,0.92-0.87,1.5S429,366.13,429,366.8z M434.13,357.09l-2.58-0.78l1.62-3.57h3.75L434.13,357.09z"/>
		<path class="st3" d="M458.64,374.63h-4.02v-8.82c0-1.26-0.22-2.18-0.66-2.76s-1.05-0.87-1.83-0.87c-0.4,0-0.81,0.08-1.23,0.24
			s-0.82,0.39-1.18,0.67c-0.37,0.29-0.71,0.64-1.01,1.04c-0.3,0.4-0.52,0.84-0.66,1.32v9.18h-4.02v-15.72h3.63v2.91
			c0.58-1,1.42-1.78,2.52-2.34c1.1-0.56,2.34-0.84,3.72-0.84c0.98,0,1.78,0.18,2.4,0.54c0.62,0.36,1.1,0.83,1.44,1.41
			c0.34,0.58,0.57,1.24,0.71,1.98c0.13,0.74,0.2,1.49,0.2,2.25V374.63z"/>
		<path class="st3" d="M141.56,410.93c-1.08,0-2.08-0.21-3-0.63s-1.71-1-2.37-1.74c-0.66-0.74-1.18-1.6-1.55-2.59
			s-0.55-2.05-0.55-3.2c0-1.14,0.17-2.2,0.53-3.18c0.35-0.98,0.83-1.84,1.46-2.58c0.62-0.74,1.36-1.32,2.22-1.74
			c0.86-0.42,1.8-0.63,2.82-0.63c1.16,0,2.21,0.28,3.13,0.84c0.93,0.56,1.65,1.29,2.17,2.19v-8.94h4.02v17.28
			c0,0.42,0.07,0.72,0.21,0.9c0.14,0.18,0.38,0.28,0.72,0.3v3.42c-0.7,0.14-1.27,0.21-1.71,0.21c-0.72,0-1.31-0.18-1.77-0.54
			s-0.72-0.83-0.78-1.41l-0.09-0.99c-0.58,1-1.36,1.76-2.35,2.27S142.64,410.93,141.56,410.93z M142.61,407.51
			c0.38,0,0.77-0.06,1.17-0.2c0.4-0.13,0.77-0.31,1.11-0.55s0.65-0.52,0.92-0.84c0.27-0.32,0.48-0.67,0.62-1.05v-3.75
			c-0.16-0.44-0.39-0.84-0.67-1.21c-0.29-0.37-0.62-0.69-0.99-0.96c-0.37-0.27-0.76-0.49-1.17-0.65s-0.82-0.24-1.21-0.24
			c-0.6,0-1.16,0.13-1.67,0.39s-0.95,0.61-1.3,1.06c-0.36,0.45-0.64,0.97-0.84,1.54c-0.2,0.58-0.3,1.18-0.3,1.8
			c0,0.66,0.11,1.27,0.33,1.83c0.22,0.56,0.52,1.05,0.9,1.47c0.38,0.42,0.83,0.75,1.36,0.99
			C141.38,407.39,141.97,407.51,142.61,407.51z"/>
		<path class="st3" d="M161.69,410.93c-1.26,0-2.4-0.21-3.42-0.64c-1.02-0.43-1.89-1.01-2.61-1.75c-0.72-0.74-1.27-1.6-1.67-2.58
			c-0.39-0.98-0.58-2.01-0.58-3.09c0-1.12,0.19-2.18,0.57-3.17c0.38-0.99,0.93-1.86,1.65-2.61c0.72-0.75,1.59-1.34,2.62-1.79
			c1.03-0.44,2.18-0.66,3.46-0.66c1.28,0,2.42,0.22,3.43,0.66c1.01,0.44,1.87,1.03,2.58,1.77c0.71,0.74,1.25,1.6,1.62,2.58
			c0.37,0.98,0.55,2,0.55,3.06c0,0.26,0,0.51-0.01,0.75c-0.01,0.24-0.04,0.44-0.08,0.6h-12.15c0.06,0.62,0.21,1.17,0.45,1.65
			c0.24,0.48,0.55,0.89,0.93,1.23c0.38,0.34,0.81,0.6,1.29,0.78c0.48,0.18,0.98,0.27,1.5,0.27c0.8,0,1.55-0.2,2.26-0.58
			c0.71-0.39,1.2-0.91,1.46-1.54l3.45,0.96c-0.58,1.2-1.5,2.18-2.78,2.95C164.96,410.55,163.45,410.93,161.69,410.93z
			 M165.77,401.46c-0.1-1.18-0.54-2.12-1.3-2.83c-0.77-0.71-1.71-1.07-2.81-1.07c-0.54,0-1.04,0.1-1.51,0.29
			c-0.47,0.19-0.88,0.46-1.25,0.79c-0.36,0.34-0.66,0.75-0.88,1.23c-0.23,0.48-0.37,1.01-0.41,1.59H165.77z"/>
		<path class="st3" d="M172.34,388.73h4.02v16.86c0,0.58,0.14,1.03,0.42,1.35c0.28,0.32,0.68,0.48,1.2,0.48
			c0.24,0,0.5-0.04,0.79-0.12s0.57-0.18,0.83-0.3l0.54,3.06c-0.54,0.26-1.17,0.46-1.89,0.6s-1.37,0.21-1.95,0.21
			c-1.26,0-2.24-0.33-2.92-1c-0.69-0.67-1.04-1.62-1.04-2.87V388.73z"/>
		<path class="st3" d="M201.23,394.92c-0.14-0.14-0.4-0.33-0.77-0.57s-0.82-0.47-1.35-0.71c-0.53-0.23-1.11-0.42-1.73-0.58
			s-1.25-0.24-1.89-0.24c-1.14,0-1.99,0.21-2.55,0.63c-0.56,0.42-0.84,1.01-0.84,1.77c0,0.44,0.1,0.81,0.31,1.09
			c0.21,0.29,0.51,0.54,0.92,0.77c0.4,0.22,0.91,0.42,1.52,0.6c0.61,0.18,1.31,0.37,2.11,0.57c1.04,0.28,1.99,0.58,2.83,0.9
			c0.85,0.32,1.57,0.72,2.16,1.2c0.59,0.48,1.04,1.06,1.37,1.72c0.32,0.67,0.48,1.5,0.48,2.48c0,1.14-0.22,2.12-0.65,2.92
			c-0.43,0.81-1.01,1.47-1.74,1.96c-0.73,0.5-1.57,0.87-2.52,1.09c-0.95,0.23-1.95,0.35-2.99,0.35c-1.6,0-3.18-0.24-4.74-0.72
			c-1.56-0.48-2.96-1.16-4.2-2.04l1.83-3.57c0.18,0.18,0.5,0.42,0.97,0.71c0.47,0.29,1.02,0.58,1.67,0.87
			c0.64,0.29,1.35,0.54,2.13,0.73c0.78,0.2,1.58,0.3,2.4,0.3c2.28,0,3.42-0.73,3.42-2.19c0-0.46-0.13-0.85-0.39-1.17
			s-0.63-0.6-1.11-0.84c-0.48-0.24-1.06-0.46-1.74-0.66c-0.68-0.2-1.44-0.42-2.28-0.66c-1.02-0.28-1.91-0.58-2.66-0.92
			s-1.38-0.72-1.88-1.17s-0.88-0.97-1.12-1.56s-0.38-1.29-0.38-2.12c0-1.08,0.2-2.04,0.6-2.88c0.4-0.84,0.96-1.54,1.67-2.1
			c0.71-0.56,1.53-0.98,2.47-1.27s1.95-0.44,3.03-0.44c1.5,0,2.88,0.24,4.14,0.71c1.26,0.47,2.36,1.03,3.3,1.67L201.23,394.92z"/>
		<path class="st3" d="M211.07,396.98v13.65h-4.14v-21.3h3.21l11.1,13.98v-13.95h4.14v21.27h-3.36L211.07,396.98z"/>
		<path class="st3" d="M229.82,410.63v-21.3h14.31v3.63h-10.17v5.49h8.46v3.36h-8.46v8.82H229.82z"/>
		<path class="st3" d="M252.68,413.69c0.34,0.1,0.67,0.17,0.99,0.23c0.32,0.05,0.59,0.08,0.81,0.08c0.26,0,0.5-0.05,0.72-0.15
			c0.22-0.1,0.42-0.28,0.6-0.53c0.18-0.25,0.36-0.59,0.54-1.03c0.18-0.44,0.37-0.99,0.57-1.65l-6.21-15.72h4.14l4.26,12.24
			l3.78-12.24h3.78l-6.6,18.84c-0.38,1.1-1.03,2-1.95,2.7c-0.92,0.7-2.06,1.05-3.42,1.05c-0.32,0-0.65-0.03-0.98-0.08
			c-0.33-0.05-0.67-0.13-1.03-0.25V413.69z"/>
		<path class="st3" d="M281.75,410.93c-1.08,0-2.08-0.21-3-0.63s-1.71-1-2.37-1.74c-0.66-0.74-1.17-1.6-1.54-2.59
			s-0.55-2.05-0.55-3.2c0-1.14,0.17-2.2,0.52-3.18c0.35-0.98,0.83-1.84,1.46-2.58c0.62-0.74,1.36-1.32,2.22-1.74
			c0.86-0.42,1.8-0.63,2.82-0.63c1.16,0,2.21,0.28,3.13,0.84c0.93,0.56,1.66,1.29,2.18,2.19v-8.94h4.02v17.28
			c0,0.42,0.07,0.72,0.21,0.9c0.14,0.18,0.38,0.28,0.72,0.3v3.42c-0.7,0.14-1.27,0.21-1.71,0.21c-0.72,0-1.31-0.18-1.77-0.54
			c-0.46-0.36-0.72-0.83-0.78-1.41l-0.09-0.99c-0.58,1-1.37,1.76-2.36,2.27C283.86,410.68,282.83,410.93,281.75,410.93z
			 M282.8,407.51c0.38,0,0.77-0.06,1.17-0.2c0.4-0.13,0.77-0.31,1.11-0.55c0.34-0.24,0.64-0.52,0.92-0.84
			c0.27-0.32,0.47-0.67,0.62-1.05v-3.75c-0.16-0.44-0.39-0.84-0.68-1.21s-0.62-0.69-0.99-0.96c-0.37-0.27-0.76-0.49-1.17-0.65
			c-0.41-0.16-0.82-0.24-1.22-0.24c-0.6,0-1.15,0.13-1.67,0.39c-0.51,0.26-0.94,0.61-1.3,1.06s-0.64,0.97-0.84,1.54
			c-0.2,0.58-0.3,1.18-0.3,1.8c0,0.66,0.11,1.27,0.33,1.83c0.22,0.56,0.52,1.05,0.9,1.47s0.83,0.75,1.37,0.99
			C281.57,407.39,282.16,407.51,282.8,407.51z"/>
		<path class="st3" d="M301.88,410.93c-1.26,0-2.4-0.21-3.42-0.64c-1.02-0.43-1.89-1.01-2.61-1.75s-1.28-1.6-1.67-2.58
			c-0.39-0.98-0.58-2.01-0.58-3.09c0-1.12,0.19-2.18,0.57-3.17c0.38-0.99,0.93-1.86,1.65-2.61s1.59-1.34,2.62-1.79
			c1.03-0.44,2.18-0.66,3.46-0.66s2.42,0.22,3.44,0.66c1.01,0.44,1.87,1.03,2.58,1.77c0.71,0.74,1.25,1.6,1.62,2.58
			c0.37,0.98,0.55,2,0.55,3.06c0,0.26,0,0.51-0.01,0.75c-0.01,0.24-0.04,0.44-0.08,0.6h-12.15c0.06,0.62,0.21,1.17,0.45,1.65
			c0.24,0.48,0.55,0.89,0.93,1.23c0.38,0.34,0.81,0.6,1.29,0.78c0.48,0.18,0.98,0.27,1.5,0.27c0.8,0,1.55-0.2,2.27-0.58
			c0.71-0.39,1.19-0.91,1.46-1.54l3.45,0.96c-0.58,1.2-1.5,2.18-2.77,2.95C305.15,410.55,303.64,410.93,301.88,410.93z
			 M305.96,401.46c-0.1-1.18-0.54-2.12-1.31-2.83s-1.71-1.07-2.8-1.07c-0.54,0-1.04,0.1-1.51,0.29c-0.47,0.19-0.89,0.46-1.25,0.79
			c-0.36,0.34-0.66,0.75-0.89,1.23c-0.23,0.48-0.36,1.01-0.4,1.59H305.96z"/>
		<path class="st3" d="M312.53,388.73h4.02v16.86c0,0.58,0.14,1.03,0.42,1.35c0.28,0.32,0.68,0.48,1.2,0.48
			c0.24,0,0.5-0.04,0.79-0.12s0.57-0.18,0.83-0.3l0.54,3.06c-0.54,0.26-1.17,0.46-1.89,0.6s-1.37,0.21-1.95,0.21
			c-1.26,0-2.24-0.33-2.92-1c-0.69-0.67-1.04-1.62-1.04-2.87V388.73z"/>
		<path class="st3" d="M341.42,394.92c-0.14-0.14-0.4-0.33-0.76-0.57c-0.37-0.24-0.82-0.47-1.35-0.71
			c-0.53-0.23-1.11-0.42-1.72-0.58c-0.62-0.16-1.25-0.24-1.89-0.24c-1.14,0-1.99,0.21-2.55,0.63c-0.56,0.42-0.84,1.01-0.84,1.77
			c0,0.44,0.11,0.81,0.32,1.09c0.21,0.29,0.51,0.54,0.92,0.77c0.4,0.22,0.9,0.42,1.51,0.6s1.31,0.37,2.12,0.57
			c1.04,0.28,1.98,0.58,2.83,0.9c0.85,0.32,1.57,0.72,2.16,1.2c0.59,0.48,1.04,1.06,1.36,1.72c0.32,0.67,0.48,1.5,0.48,2.48
			c0,1.14-0.21,2.12-0.64,2.92c-0.43,0.81-1.01,1.47-1.74,1.96c-0.73,0.5-1.57,0.87-2.52,1.09c-0.95,0.23-1.95,0.35-2.98,0.35
			c-1.6,0-3.18-0.24-4.74-0.72c-1.56-0.48-2.96-1.16-4.2-2.04l1.83-3.57c0.18,0.18,0.5,0.42,0.97,0.71s1.03,0.58,1.67,0.87
			c0.64,0.29,1.35,0.54,2.13,0.73c0.78,0.2,1.58,0.3,2.4,0.3c2.28,0,3.42-0.73,3.42-2.19c0-0.46-0.13-0.85-0.39-1.17
			c-0.26-0.32-0.63-0.6-1.11-0.84c-0.48-0.24-1.06-0.46-1.74-0.66s-1.44-0.42-2.28-0.66c-1.02-0.28-1.91-0.58-2.66-0.92
			s-1.38-0.72-1.88-1.17s-0.88-0.97-1.12-1.56s-0.38-1.29-0.38-2.12c0-1.08,0.2-2.04,0.6-2.88c0.4-0.84,0.96-1.54,1.67-2.1
			c0.71-0.56,1.54-0.98,2.48-1.27c0.94-0.29,1.95-0.44,3.03-0.44c1.5,0,2.88,0.24,4.14,0.71c1.26,0.47,2.36,1.03,3.3,1.67
			L341.42,394.92z"/>
		<path class="st3" d="M361.9,407.01v3.63h-14.79v-21.3h14.52v3.63h-10.38v5.13h8.97v3.36h-8.97v5.55H361.9z"/>
		<path class="st3" d="M365.14,410.63v-21.3h14.31v3.63h-10.17v5.49h8.46v3.36h-8.46v8.82H365.14z"/>
	</g>
	<g>
		<g>
			<path class="st3" d="M181.98,296.11H302.9c15.36,0,27.82-12.46,27.82-27.82v-51.62l-148.75-70.73V296.11z"/>
			<polygon class="st4" points="330.73,94.02 181.98,94.02 181.98,143 181.98,145.94 330.73,216.67 330.73,213.73 			"/>
		</g>
		<g>
			<polygon class="st2" points="261.82,236.52 261.82,176.73 259.17,176.73 250.88,176.73 238.93,176.73 238.93,187.67 
				250.88,187.67 250.88,236.52 238.93,236.52 238.93,247.46 273.77,247.46 273.77,236.52 			"/>
			<circle class="st2" cx="256.05" cy="150.62" r="7.95"/>
		</g>
	</g>
</g>
</svg>
