<?xml version="1.0" encoding="utf-8"?>
<!-- Generator: Adobe Illustrator 24.0.0, SVG Export Plug-In . SVG Version: 6.00 Build 0)  -->
<svg version="1.1" xmlns="http://www.w3.org/2000/svg" xmlns:xlink="http://www.w3.org/1999/xlink" x="0px" y="0px"
	 viewBox="0 0 512 512" style="enable-background:new 0 0 512 512;" xml:space="preserve">
<style type="text/css">
	.st0{fill:#125DA9;}
	.st1{fill:#6A91BF;}
	.st2{fill:#FFFFFF;}
	.st3{fill:#969696;}
	.st4{fill:#B8B8B8;}
</style>
<g id="GUIAS">
</g>
<g id="Capa_1">
	<g>
		<path class="st3" d="M117.99,358.26c-0.14-0.14-0.4-0.33-0.77-0.57c-0.37-0.24-0.82-0.47-1.35-0.71
			c-0.53-0.23-1.11-0.42-1.73-0.58c-0.62-0.16-1.25-0.24-1.89-0.24c-1.14,0-1.99,0.21-2.55,0.63c-0.56,0.42-0.84,1.01-0.84,1.77
			c0,0.44,0.1,0.81,0.31,1.09c0.21,0.29,0.51,0.54,0.92,0.77c0.4,0.22,0.9,0.42,1.52,0.6c0.61,0.18,1.31,0.37,2.11,0.57
			c1.04,0.28,1.98,0.58,2.83,0.9c0.85,0.32,1.57,0.72,2.16,1.2c0.59,0.48,1.04,1.06,1.36,1.72c0.32,0.67,0.48,1.5,0.48,2.48
			c0,1.14-0.22,2.12-0.65,2.92c-0.43,0.81-1.01,1.47-1.74,1.96c-0.73,0.5-1.57,0.87-2.52,1.09c-0.95,0.23-1.95,0.35-2.98,0.35
			c-1.6,0-3.18-0.24-4.74-0.72c-1.56-0.48-2.96-1.16-4.2-2.04l1.83-3.57c0.18,0.18,0.5,0.42,0.97,0.71
			c0.47,0.29,1.02,0.58,1.67,0.87s1.35,0.54,2.13,0.73c0.78,0.2,1.58,0.3,2.4,0.3c2.28,0,3.42-0.73,3.42-2.19
			c0-0.46-0.13-0.85-0.39-1.17c-0.26-0.32-0.63-0.6-1.11-0.84c-0.48-0.24-1.06-0.46-1.74-0.66c-0.68-0.2-1.44-0.42-2.28-0.66
			c-1.02-0.28-1.91-0.58-2.66-0.92s-1.38-0.72-1.88-1.17s-0.88-0.97-1.12-1.56s-0.38-1.29-0.38-2.12c0-1.08,0.2-2.04,0.6-2.88
			c0.4-0.84,0.96-1.54,1.67-2.1c0.71-0.56,1.53-0.98,2.48-1.27c0.94-0.29,1.95-0.44,3.03-0.44c1.5,0,2.88,0.24,4.14,0.71
			c1.26,0.47,2.36,1.03,3.3,1.67L117.99,358.26z"/>
		<path class="st3" d="M130.59,374.28c-1.26,0-2.4-0.21-3.42-0.64s-1.89-1.01-2.61-1.75c-0.72-0.74-1.27-1.6-1.67-2.58
			c-0.39-0.98-0.58-2.01-0.58-3.09c0-1.12,0.19-2.18,0.57-3.17c0.38-0.99,0.93-1.86,1.65-2.61c0.72-0.75,1.59-1.34,2.62-1.79
			c1.03-0.44,2.18-0.66,3.46-0.66c1.28,0,2.42,0.22,3.44,0.66c1.01,0.44,1.87,1.03,2.58,1.77c0.71,0.74,1.25,1.6,1.62,2.58
			c0.37,0.98,0.55,2,0.55,3.06c0,0.26,0,0.51-0.01,0.75c-0.01,0.24-0.04,0.44-0.08,0.6h-12.15c0.06,0.62,0.21,1.17,0.45,1.65
			c0.24,0.48,0.55,0.89,0.93,1.23c0.38,0.34,0.81,0.6,1.29,0.78s0.98,0.27,1.5,0.27c0.8,0,1.55-0.2,2.27-0.58
			c0.71-0.39,1.19-0.91,1.46-1.54l3.45,0.96c-0.58,1.2-1.5,2.18-2.77,2.95C133.86,373.9,132.35,374.28,130.59,374.28z M134.67,364.8
			c-0.1-1.18-0.54-2.12-1.31-2.83c-0.77-0.71-1.71-1.07-2.81-1.07c-0.54,0-1.04,0.1-1.51,0.29c-0.47,0.19-0.89,0.46-1.25,0.79
			s-0.66,0.75-0.89,1.23c-0.23,0.48-0.36,1.01-0.4,1.59H134.67z"/>
		<path class="st3" d="M150.63,361.74c-1.22,0.02-2.31,0.25-3.27,0.71s-1.65,1.12-2.07,2.03v9.51h-4.02v-15.72h3.69v3.36
			c0.28-0.54,0.61-1.02,0.99-1.46c0.38-0.43,0.79-0.8,1.23-1.12c0.44-0.32,0.88-0.56,1.33-0.73c0.45-0.17,0.88-0.25,1.3-0.25
			c0.22,0,0.38,0,0.5,0c0.11,0,0.21,0.01,0.31,0.03V361.74z"/>
		<path class="st3" d="M157.11,373.98l-5.79-15.72h4.14l3.99,12.45l4.02-12.45h3.78l-5.79,15.72H157.11z"/>
		<path class="st3" d="M169.35,356.07v-3.99h4.02v3.99H169.35z M169.35,373.98v-15.72h4.02v15.72H169.35z"/>
		<path class="st3" d="M183.51,374.28c-1.08,0-2.08-0.21-3-0.63s-1.71-1-2.37-1.74c-0.66-0.74-1.18-1.6-1.55-2.59
			s-0.55-2.05-0.55-3.2c0-1.14,0.17-2.2,0.52-3.18c0.35-0.98,0.83-1.84,1.46-2.58c0.62-0.74,1.36-1.32,2.22-1.74s1.8-0.63,2.82-0.63
			c1.16,0,2.21,0.28,3.13,0.84c0.93,0.56,1.65,1.29,2.18,2.19v-8.94h4.02v17.28c0,0.42,0.07,0.72,0.21,0.9
			c0.14,0.18,0.38,0.28,0.72,0.3v3.42c-0.7,0.14-1.27,0.21-1.71,0.21c-0.72,0-1.31-0.18-1.77-0.54c-0.46-0.36-0.72-0.83-0.78-1.41
			l-0.09-0.99c-0.58,1-1.36,1.76-2.35,2.27C185.62,374.03,184.59,374.28,183.51,374.28z M184.56,370.86c0.38,0,0.77-0.06,1.17-0.2
			c0.4-0.13,0.77-0.31,1.11-0.55c0.34-0.24,0.65-0.52,0.92-0.84c0.27-0.32,0.48-0.67,0.62-1.05v-3.75
			c-0.16-0.44-0.39-0.84-0.68-1.21c-0.29-0.37-0.62-0.69-0.99-0.96c-0.37-0.27-0.76-0.49-1.17-0.65c-0.41-0.16-0.82-0.24-1.22-0.24
			c-0.6,0-1.15,0.13-1.67,0.39c-0.51,0.26-0.94,0.61-1.3,1.06c-0.36,0.45-0.64,0.97-0.84,1.54c-0.2,0.58-0.3,1.18-0.3,1.8
			c0,0.66,0.11,1.27,0.33,1.83c0.22,0.56,0.52,1.05,0.9,1.47c0.38,0.42,0.83,0.75,1.36,0.99
			C183.33,370.74,183.92,370.86,184.56,370.86z"/>
		<path class="st3" d="M203.61,374.28c-1.28,0-2.43-0.22-3.45-0.66c-1.02-0.44-1.89-1.03-2.6-1.78s-1.26-1.62-1.63-2.6
			c-0.38-0.98-0.57-2.01-0.57-3.09c0-1.1,0.19-2.14,0.57-3.12c0.38-0.98,0.92-1.84,1.63-2.59s1.58-1.34,2.6-1.79
			c1.02-0.44,2.17-0.66,3.45-0.66s2.42,0.22,3.44,0.66c1.01,0.44,1.87,1.04,2.58,1.79c0.71,0.75,1.25,1.62,1.64,2.59
			c0.38,0.98,0.57,2.02,0.57,3.12c0,1.08-0.19,2.11-0.57,3.09c-0.38,0.98-0.92,1.85-1.62,2.6c-0.7,0.75-1.56,1.34-2.58,1.78
			C206.04,374.06,204.89,374.28,203.61,374.28z M199.5,366.15c0,0.7,0.1,1.33,0.31,1.91c0.21,0.57,0.5,1.06,0.87,1.48
			c0.37,0.42,0.8,0.75,1.31,0.98c0.5,0.23,1.04,0.34,1.62,0.34s1.12-0.11,1.62-0.34c0.5-0.23,0.93-0.55,1.31-0.98
			c0.37-0.42,0.66-0.92,0.87-1.5c0.21-0.58,0.32-1.22,0.32-1.92c0-0.68-0.1-1.31-0.32-1.89c-0.21-0.58-0.5-1.08-0.87-1.5
			c-0.37-0.42-0.81-0.75-1.31-0.97c-0.5-0.23-1.04-0.35-1.62-0.35s-1.12,0.12-1.62,0.36c-0.5,0.24-0.94,0.57-1.31,0.99
			c-0.37,0.42-0.66,0.92-0.87,1.5S199.5,365.47,199.5,366.15z"/>
		<path class="st3" d="M223.89,361.74c-1.22,0.02-2.31,0.25-3.27,0.71s-1.65,1.12-2.07,2.03v9.51h-4.02v-15.72h3.69v3.36
			c0.28-0.54,0.61-1.02,0.99-1.46c0.38-0.43,0.79-0.8,1.23-1.12c0.44-0.32,0.88-0.56,1.33-0.73c0.45-0.17,0.88-0.25,1.3-0.25
			c0.22,0,0.38,0,0.5,0c0.11,0,0.21,0.01,0.31,0.03V361.74z"/>
		<path class="st3" d="M232.65,374.28c-1.26,0-2.4-0.21-3.42-0.64s-1.89-1.01-2.61-1.75c-0.72-0.74-1.27-1.6-1.67-2.58
			c-0.39-0.98-0.58-2.01-0.58-3.09c0-1.12,0.19-2.18,0.57-3.17c0.38-0.99,0.93-1.86,1.65-2.61c0.72-0.75,1.59-1.34,2.62-1.79
			c1.03-0.44,2.18-0.66,3.46-0.66c1.28,0,2.42,0.22,3.44,0.66c1.01,0.44,1.87,1.03,2.58,1.77c0.71,0.74,1.25,1.6,1.62,2.58
			c0.37,0.98,0.55,2,0.55,3.06c0,0.26,0,0.51-0.01,0.75c-0.01,0.24-0.04,0.44-0.08,0.6h-12.15c0.06,0.62,0.21,1.17,0.45,1.65
			c0.24,0.48,0.55,0.89,0.93,1.23c0.38,0.34,0.81,0.6,1.29,0.78s0.98,0.27,1.5,0.27c0.8,0,1.55-0.2,2.27-0.58
			c0.71-0.39,1.19-0.91,1.46-1.54l3.45,0.96c-0.58,1.2-1.5,2.18-2.77,2.95C235.92,373.9,234.41,374.28,232.65,374.28z M236.73,364.8
			c-0.1-1.18-0.54-2.12-1.31-2.83c-0.77-0.71-1.71-1.07-2.81-1.07c-0.54,0-1.04,0.1-1.51,0.29c-0.47,0.19-0.89,0.46-1.25,0.79
			s-0.66,0.75-0.89,1.23c-0.23,0.48-0.36,1.01-0.4,1.59H236.73z"/>
		<path class="st3" d="M249.27,374.28c-1.32,0-2.61-0.21-3.87-0.63c-1.26-0.42-2.34-1.02-3.24-1.8l1.5-2.52
			c0.96,0.68,1.89,1.2,2.8,1.54c0.91,0.35,1.81,0.53,2.72,0.53c0.8,0,1.43-0.15,1.89-0.45s0.69-0.73,0.69-1.29
			c0-0.56-0.27-0.97-0.81-1.23s-1.42-0.56-2.64-0.9c-1.02-0.28-1.89-0.55-2.61-0.81c-0.72-0.26-1.3-0.56-1.74-0.88
			c-0.44-0.33-0.76-0.71-0.96-1.14c-0.2-0.43-0.3-0.95-0.3-1.54c0-0.8,0.15-1.52,0.46-2.16c0.31-0.64,0.74-1.18,1.31-1.63
			c0.56-0.45,1.21-0.79,1.96-1.04s1.56-0.36,2.44-0.36c1.18,0,2.28,0.17,3.31,0.51c1.03,0.34,1.98,0.89,2.83,1.65l-1.62,2.43
			c-0.8-0.6-1.58-1.04-2.33-1.32s-1.5-0.42-2.23-0.42c-0.68,0-1.25,0.14-1.71,0.42c-0.46,0.28-0.69,0.73-0.69,1.35
			c0,0.28,0.05,0.51,0.17,0.69c0.11,0.18,0.28,0.34,0.52,0.48c0.24,0.14,0.55,0.28,0.94,0.41c0.39,0.13,0.87,0.27,1.46,0.41
			c1.08,0.28,2,0.56,2.77,0.84c0.77,0.28,1.4,0.6,1.89,0.96c0.49,0.36,0.85,0.78,1.08,1.25c0.23,0.47,0.34,1.04,0.34,1.7
			c0,1.54-0.57,2.75-1.71,3.64C252.78,373.84,251.23,374.28,249.27,374.28z"/>
		<path class="st3" d="M265.83,373.98v-21.3h9.03c0.98,0,1.88,0.21,2.71,0.62s1.54,0.95,2.14,1.62c0.6,0.67,1.07,1.43,1.41,2.28
			c0.34,0.85,0.51,1.71,0.51,2.57c0,0.9-0.16,1.77-0.48,2.62c-0.32,0.85-0.77,1.6-1.35,2.26c-0.58,0.66-1.28,1.19-2.1,1.59
			c-0.82,0.4-1.72,0.6-2.7,0.6h-5.04v7.14H265.83z M269.97,363.21h4.8c0.76,0,1.39-0.31,1.9-0.93c0.51-0.62,0.77-1.46,0.77-2.52
			c0-0.54-0.08-1.03-0.24-1.46s-0.37-0.79-0.63-1.09c-0.26-0.3-0.57-0.53-0.92-0.68c-0.35-0.15-0.71-0.22-1.07-0.22h-4.62V363.21z"
			/>
		<path class="st3" d="M288.93,374.28c-1.62,0-2.85-0.52-3.69-1.56s-1.26-2.58-1.26-4.62v-9.84H288v8.97c0,2.42,0.87,3.63,2.61,3.63
			c0.78,0,1.54-0.23,2.27-0.71c0.73-0.47,1.32-1.18,1.78-2.14v-9.75h4.02v11.1c0,0.42,0.08,0.72,0.22,0.9
			c0.15,0.18,0.39,0.28,0.74,0.3v3.42c-0.4,0.08-0.74,0.13-1,0.15c-0.27,0.02-0.52,0.03-0.74,0.03c-0.72,0-1.3-0.17-1.75-0.5
			c-0.45-0.33-0.71-0.78-0.79-1.36l-0.09-1.26c-0.7,1.08-1.6,1.89-2.7,2.43C291.46,374.01,290.25,374.28,288.93,374.28z
			 M292.35,356.43l-2.58-0.78l1.62-3.57h3.75L292.35,356.43z"/>
		<path class="st3" d="M311.61,374.28c-1.2,0-2.27-0.27-3.21-0.81c-0.94-0.54-1.68-1.28-2.22-2.22v2.73h-3.51v-21.9h4.02v8.94
			c0.56-0.96,1.29-1.71,2.21-2.24c0.91-0.53,1.97-0.79,3.19-0.79c1.02,0,1.95,0.22,2.79,0.66c0.84,0.44,1.56,1.03,2.17,1.77
			c0.61,0.74,1.08,1.61,1.41,2.61c0.33,1,0.5,2.05,0.5,3.15c0,1.14-0.18,2.2-0.55,3.18c-0.37,0.98-0.88,1.83-1.54,2.57
			s-1.44,1.3-2.34,1.72C313.62,374.07,312.64,374.28,311.61,374.28z M310.5,370.86c0.64,0,1.23-0.12,1.77-0.38s1-0.58,1.38-1
			c0.38-0.42,0.67-0.91,0.88-1.47s0.31-1.16,0.31-1.8c0-0.64-0.1-1.25-0.3-1.83s-0.49-1.09-0.85-1.53
			c-0.37-0.44-0.81-0.79-1.31-1.05s-1.05-0.39-1.65-0.39c-0.9,0-1.71,0.3-2.42,0.89s-1.26,1.31-1.63,2.17v3.75
			c0.14,0.4,0.34,0.76,0.61,1.08c0.27,0.32,0.58,0.59,0.92,0.82c0.34,0.23,0.71,0.41,1.11,0.54
			C309.72,370.8,310.12,370.86,310.5,370.86z"/>
		<path class="st3" d="M321.66,352.08h4.02v16.86c0,0.58,0.14,1.03,0.42,1.35c0.28,0.32,0.68,0.48,1.2,0.48
			c0.24,0,0.5-0.04,0.79-0.12s0.57-0.18,0.83-0.3l0.54,3.06c-0.54,0.26-1.17,0.46-1.89,0.6s-1.37,0.21-1.95,0.21
			c-1.26,0-2.24-0.33-2.92-1c-0.69-0.67-1.04-1.62-1.04-2.87V352.08z"/>
		<path class="st3" d="M331.19,356.07v-3.99h4.02v3.99H331.19z M331.19,373.98v-15.72h4.02v15.72H331.19z"/>
		<path class="st3" d="M337.85,366.12c0-1.1,0.19-2.14,0.57-3.12c0.38-0.98,0.93-1.84,1.65-2.58c0.72-0.74,1.59-1.33,2.61-1.77
			c1.02-0.44,2.17-0.66,3.45-0.66c1.72,0,3.18,0.37,4.39,1.11s2.12,1.71,2.71,2.91l-3.93,1.2c-0.34-0.58-0.79-1.03-1.35-1.34
			c-0.56-0.31-1.18-0.46-1.86-0.46c-0.58,0-1.12,0.12-1.62,0.35c-0.5,0.23-0.94,0.55-1.3,0.96c-0.37,0.41-0.66,0.91-0.87,1.48
			c-0.21,0.58-0.32,1.22-0.32,1.92c0,0.7,0.11,1.34,0.33,1.92c0.22,0.58,0.51,1.08,0.88,1.5c0.37,0.42,0.81,0.75,1.31,0.98
			c0.5,0.23,1.03,0.34,1.59,0.34c0.72,0,1.38-0.18,2-0.54c0.61-0.36,1.04-0.8,1.27-1.32l3.93,1.2c-0.54,1.2-1.43,2.18-2.67,2.94
			c-1.24,0.76-2.73,1.14-4.47,1.14c-1.28,0-2.43-0.22-3.45-0.66c-1.02-0.44-1.89-1.03-2.61-1.78s-1.28-1.62-1.67-2.61
			S337.85,367.2,337.85,366.12z"/>
		<path class="st3" d="M362.87,374.28c-1.28,0-2.43-0.22-3.45-0.66c-1.02-0.44-1.89-1.03-2.6-1.78s-1.25-1.62-1.63-2.6
			c-0.38-0.98-0.57-2.01-0.57-3.09c0-1.1,0.19-2.14,0.57-3.12c0.38-0.98,0.92-1.84,1.63-2.59s1.58-1.34,2.6-1.79
			c1.02-0.44,2.17-0.66,3.45-0.66c1.28,0,2.42,0.22,3.44,0.66c1.01,0.44,1.87,1.04,2.58,1.79c0.71,0.75,1.25,1.62,1.63,2.59
			c0.38,0.98,0.57,2.02,0.57,3.12c0,1.08-0.19,2.11-0.57,3.09c-0.38,0.98-0.92,1.85-1.62,2.6s-1.56,1.34-2.58,1.78
			C365.3,374.06,364.15,374.28,362.87,374.28z M358.76,366.15c0,0.7,0.1,1.33,0.31,1.91c0.21,0.57,0.5,1.06,0.87,1.48
			c0.37,0.42,0.8,0.75,1.31,0.98c0.5,0.23,1.04,0.34,1.62,0.34s1.12-0.11,1.62-0.34c0.5-0.23,0.93-0.55,1.31-0.98
			c0.37-0.42,0.66-0.92,0.87-1.5c0.21-0.58,0.32-1.22,0.32-1.92c0-0.68-0.1-1.31-0.32-1.89c-0.21-0.58-0.5-1.08-0.87-1.5
			c-0.37-0.42-0.81-0.75-1.31-0.97c-0.5-0.23-1.04-0.35-1.62-0.35s-1.12,0.12-1.62,0.36c-0.5,0.24-0.94,0.57-1.31,0.99
			s-0.66,0.92-0.87,1.5S358.76,365.47,358.76,366.15z"/>
		<path class="st3" d="M379.73,374.28c-1.32,0-2.61-0.21-3.87-0.63s-2.34-1.02-3.24-1.8l1.5-2.52c0.96,0.68,1.89,1.2,2.8,1.54
			c0.91,0.35,1.82,0.53,2.72,0.53c0.8,0,1.43-0.15,1.89-0.45s0.69-0.73,0.69-1.29c0-0.56-0.27-0.97-0.81-1.23s-1.42-0.56-2.64-0.9
			c-1.02-0.28-1.89-0.55-2.61-0.81s-1.3-0.56-1.74-0.88c-0.44-0.33-0.76-0.71-0.96-1.14c-0.2-0.43-0.3-0.95-0.3-1.54
			c0-0.8,0.15-1.52,0.46-2.16c0.31-0.64,0.75-1.18,1.31-1.63c0.56-0.45,1.21-0.79,1.96-1.04s1.56-0.36,2.44-0.36
			c1.18,0,2.29,0.17,3.32,0.51c1.03,0.34,1.97,0.89,2.83,1.65l-1.62,2.43c-0.8-0.6-1.58-1.04-2.33-1.32s-1.5-0.42-2.23-0.42
			c-0.68,0-1.25,0.14-1.71,0.42c-0.46,0.28-0.69,0.73-0.69,1.35c0,0.28,0.05,0.51,0.17,0.69c0.11,0.18,0.29,0.34,0.53,0.48
			c0.24,0.14,0.55,0.28,0.94,0.41c0.39,0.13,0.88,0.27,1.46,0.41c1.08,0.28,2,0.56,2.78,0.84c0.77,0.28,1.4,0.6,1.89,0.96
			s0.85,0.78,1.08,1.25c0.23,0.47,0.34,1.04,0.34,1.7c0,1.54-0.57,2.75-1.71,3.64C383.24,373.84,381.69,374.28,379.73,374.28z"/>
		<path class="st3" d="M395.39,377.04c0.34,0.1,0.67,0.17,0.99,0.23c0.32,0.05,0.59,0.08,0.81,0.08c0.26,0,0.5-0.05,0.72-0.15
			c0.22-0.1,0.42-0.28,0.6-0.53s0.36-0.59,0.54-1.03c0.18-0.44,0.37-0.99,0.57-1.65l-6.21-15.72h4.14l4.26,12.24l3.78-12.24h3.78
			l-6.6,18.84c-0.38,1.1-1.03,2-1.95,2.7c-0.92,0.7-2.06,1.05-3.42,1.05c-0.32,0-0.64-0.03-0.97-0.08s-0.67-0.13-1.04-0.25V377.04z"
			/>
		<path class="st3" d="M76.27,409.98v-21.3h9.03c0.98,0,1.88,0.21,2.71,0.62s1.54,0.95,2.15,1.62c0.6,0.67,1.07,1.43,1.41,2.28
			c0.34,0.85,0.51,1.71,0.51,2.57c0,0.9-0.16,1.77-0.48,2.62c-0.32,0.85-0.77,1.6-1.35,2.26c-0.58,0.66-1.28,1.19-2.1,1.59
			c-0.82,0.4-1.72,0.6-2.7,0.6h-5.04v7.14H76.27z M80.41,399.21h4.8c0.76,0,1.4-0.31,1.9-0.93c0.51-0.62,0.77-1.46,0.77-2.52
			c0-0.54-0.08-1.03-0.24-1.46s-0.37-0.79-0.63-1.09c-0.26-0.3-0.57-0.53-0.92-0.68c-0.35-0.15-0.71-0.22-1.06-0.22h-4.62V399.21z"
			/>
		<path class="st3" d="M98.71,410.28c-0.76,0-1.47-0.12-2.13-0.38c-0.66-0.25-1.23-0.6-1.71-1.05s-0.85-0.97-1.12-1.58
			c-0.27-0.6-0.4-1.26-0.4-1.98c0-0.74,0.17-1.43,0.5-2.06s0.79-1.16,1.38-1.6c0.59-0.44,1.29-0.79,2.12-1.04
			c0.82-0.25,1.72-0.38,2.7-0.38c0.7,0,1.38,0.06,2.06,0.18c0.67,0.12,1.26,0.29,1.78,0.51v-0.9c0-1.04-0.29-1.84-0.88-2.4
			c-0.59-0.56-1.47-0.84-2.62-0.84c-0.84,0-1.66,0.15-2.46,0.45c-0.8,0.3-1.62,0.74-2.46,1.32L94.21,396
			c2.02-1.34,4.2-2.01,6.54-2.01c2.26,0,4.01,0.56,5.26,1.67c1.25,1.11,1.88,2.71,1.88,4.82v4.89c0,0.42,0.08,0.72,0.23,0.9
			c0.15,0.18,0.4,0.28,0.73,0.3v3.42c-0.68,0.14-1.27,0.21-1.77,0.21c-0.76,0-1.35-0.17-1.76-0.51c-0.41-0.34-0.67-0.79-0.76-1.35
			l-0.09-0.87c-0.7,0.92-1.55,1.62-2.55,2.1C100.92,410.04,99.85,410.28,98.71,410.28z M99.85,407.34c0.68,0,1.32-0.12,1.94-0.36
			c0.61-0.24,1.08-0.56,1.43-0.96c0.44-0.34,0.66-0.72,0.66-1.14v-1.8c-0.48-0.18-1-0.32-1.56-0.43c-0.56-0.11-1.1-0.17-1.62-0.17
			c-1.04,0-1.89,0.24-2.55,0.71c-0.66,0.47-0.99,1.06-0.99,1.79c0,0.68,0.26,1.25,0.78,1.69C98.45,407.12,99.09,407.34,99.85,407.34
			z"/>
		<path class="st3" d="M121,397.74c-1.22,0.02-2.31,0.25-3.27,0.71s-1.65,1.12-2.07,2.03v9.51h-4.02v-15.72h3.69v3.36
			c0.28-0.54,0.61-1.02,0.99-1.46c0.38-0.43,0.79-0.8,1.23-1.12c0.44-0.32,0.88-0.56,1.33-0.73c0.45-0.17,0.88-0.25,1.3-0.25
			c0.22,0,0.38,0,0.5,0c0.11,0,0.21,0.01,0.31,0.03V397.74z"/>
		<path class="st3" d="M132.67,409.17c-0.54,0.24-1.2,0.48-1.98,0.72s-1.6,0.36-2.46,0.36c-0.56,0-1.09-0.07-1.58-0.21
			c-0.49-0.14-0.92-0.36-1.29-0.67c-0.37-0.31-0.67-0.71-0.88-1.2c-0.22-0.49-0.33-1.08-0.33-1.78v-9.03h-2.07v-3.09h2.07v-5.1h4.02
			v5.1h3.3v3.09h-3.3v7.68c0,0.56,0.15,0.96,0.44,1.19c0.29,0.23,0.65,0.34,1.06,0.34s0.83-0.07,1.23-0.21
			c0.4-0.14,0.72-0.26,0.96-0.36L132.67,409.17z"/>
		<path class="st3" d="M134.77,392.07v-3.99h4.02v3.99H134.77z M134.77,409.98v-15.72h4.02v15.72H134.77z"/>
		<path class="st3" d="M141.43,402.12c0-1.1,0.19-2.14,0.57-3.12c0.38-0.98,0.93-1.84,1.65-2.58c0.72-0.74,1.59-1.33,2.61-1.77
			c1.02-0.44,2.17-0.66,3.45-0.66c1.72,0,3.18,0.37,4.4,1.11c1.21,0.74,2.11,1.71,2.71,2.91l-3.93,1.2
			c-0.34-0.58-0.79-1.03-1.35-1.34c-0.56-0.31-1.18-0.46-1.86-0.46c-0.58,0-1.12,0.12-1.62,0.35c-0.5,0.23-0.94,0.55-1.31,0.96
			c-0.37,0.41-0.66,0.91-0.87,1.48c-0.21,0.58-0.31,1.22-0.31,1.92c0,0.7,0.11,1.34,0.33,1.92c0.22,0.58,0.51,1.08,0.88,1.5
			c0.37,0.42,0.81,0.75,1.31,0.98c0.5,0.23,1.03,0.34,1.59,0.34c0.72,0,1.38-0.18,2-0.54c0.61-0.36,1.04-0.8,1.27-1.32l3.93,1.2
			c-0.54,1.2-1.43,2.18-2.67,2.94c-1.24,0.76-2.73,1.14-4.47,1.14c-1.28,0-2.43-0.22-3.45-0.66c-1.02-0.44-1.89-1.03-2.61-1.78
			c-0.72-0.75-1.27-1.62-1.67-2.61C141.63,404.24,141.43,403.2,141.43,402.12z"/>
		<path class="st3" d="M164.14,410.28c-1.62,0-2.85-0.52-3.69-1.56s-1.26-2.58-1.26-4.62v-9.84h4.02v8.97
			c0,2.42,0.87,3.63,2.61,3.63c0.78,0,1.53-0.23,2.27-0.71c0.73-0.47,1.32-1.18,1.78-2.14v-9.75h4.02v11.1
			c0,0.42,0.08,0.72,0.23,0.9c0.15,0.18,0.39,0.28,0.73,0.3v3.42c-0.4,0.08-0.73,0.13-1,0.15c-0.27,0.02-0.52,0.03-0.73,0.03
			c-0.72,0-1.31-0.17-1.75-0.5c-0.45-0.33-0.72-0.78-0.8-1.36l-0.09-1.26c-0.7,1.08-1.6,1.89-2.7,2.43S165.46,410.28,164.14,410.28z
			"/>
		<path class="st3" d="M177.85,388.08h4.02v16.86c0,0.58,0.14,1.03,0.42,1.35c0.28,0.32,0.68,0.48,1.2,0.48
			c0.24,0,0.5-0.04,0.79-0.12s0.56-0.18,0.83-0.3l0.54,3.06c-0.54,0.26-1.17,0.46-1.89,0.6c-0.72,0.14-1.37,0.21-1.95,0.21
			c-1.26,0-2.23-0.33-2.92-1s-1.04-1.62-1.04-2.87V388.08z"/>
		<path class="st3" d="M191.68,410.28c-0.76,0-1.47-0.12-2.13-0.38c-0.66-0.25-1.23-0.6-1.71-1.05s-0.85-0.97-1.12-1.58
			c-0.27-0.6-0.4-1.26-0.4-1.98c0-0.74,0.17-1.43,0.5-2.06s0.79-1.16,1.38-1.6c0.59-0.44,1.29-0.79,2.12-1.04
			c0.82-0.25,1.72-0.38,2.7-0.38c0.7,0,1.38,0.06,2.06,0.18c0.67,0.12,1.26,0.29,1.78,0.51v-0.9c0-1.04-0.29-1.84-0.88-2.4
			c-0.59-0.56-1.47-0.84-2.62-0.84c-0.84,0-1.66,0.15-2.46,0.45c-0.8,0.3-1.62,0.74-2.46,1.32l-1.23-2.55
			c2.02-1.34,4.2-2.01,6.54-2.01c2.26,0,4.01,0.56,5.26,1.67c1.25,1.11,1.88,2.71,1.88,4.82v4.89c0,0.42,0.08,0.72,0.23,0.9
			c0.15,0.18,0.4,0.28,0.73,0.3v3.42c-0.68,0.14-1.27,0.21-1.77,0.21c-0.76,0-1.35-0.17-1.76-0.51c-0.41-0.34-0.67-0.79-0.76-1.35
			l-0.09-0.87c-0.7,0.92-1.55,1.62-2.55,2.1C193.89,410.04,192.82,410.28,191.68,410.28z M192.82,407.34c0.68,0,1.32-0.12,1.94-0.36
			c0.61-0.24,1.08-0.56,1.43-0.96c0.44-0.34,0.66-0.72,0.66-1.14v-1.8c-0.48-0.18-1-0.32-1.56-0.43c-0.56-0.11-1.1-0.17-1.62-0.17
			c-1.04,0-1.89,0.24-2.55,0.71c-0.66,0.47-0.99,1.06-0.99,1.79c0,0.68,0.26,1.25,0.78,1.69
			C191.42,407.12,192.06,407.34,192.82,407.34z"/>
		<path class="st3" d="M213.97,397.74c-1.22,0.02-2.31,0.25-3.27,0.71s-1.65,1.12-2.07,2.03v9.51h-4.02v-15.72h3.69v3.36
			c0.28-0.54,0.61-1.02,0.99-1.46c0.38-0.43,0.79-0.8,1.23-1.12c0.44-0.32,0.88-0.56,1.33-0.73c0.45-0.17,0.88-0.25,1.3-0.25
			c0.22,0,0.38,0,0.5,0c0.11,0,0.21,0.01,0.31,0.03V397.74z"/>
		<path class="st3" d="M222.73,410.28c-1.26,0-2.4-0.21-3.42-0.64s-1.89-1.01-2.61-1.75c-0.72-0.74-1.27-1.6-1.67-2.58
			c-0.39-0.98-0.58-2.01-0.58-3.09c0-1.12,0.19-2.18,0.57-3.17c0.38-0.99,0.93-1.86,1.65-2.61c0.72-0.75,1.59-1.34,2.62-1.79
			c1.03-0.44,2.18-0.66,3.46-0.66c1.28,0,2.42,0.22,3.44,0.66c1.01,0.44,1.87,1.03,2.58,1.77c0.71,0.74,1.25,1.6,1.62,2.58
			c0.37,0.98,0.55,2,0.55,3.06c0,0.26,0,0.51-0.01,0.75c-0.01,0.24-0.04,0.44-0.08,0.6h-12.15c0.06,0.62,0.21,1.17,0.45,1.65
			c0.24,0.48,0.55,0.89,0.93,1.23c0.38,0.34,0.81,0.6,1.29,0.78s0.98,0.27,1.5,0.27c0.8,0,1.55-0.2,2.27-0.58
			c0.71-0.39,1.19-0.91,1.46-1.54l3.45,0.96c-0.58,1.2-1.5,2.18-2.77,2.95C226.01,409.9,224.49,410.28,222.73,410.28z M226.81,400.8
			c-0.1-1.18-0.54-2.12-1.31-2.83c-0.77-0.71-1.71-1.07-2.81-1.07c-0.54,0-1.04,0.1-1.51,0.29c-0.47,0.19-0.89,0.46-1.25,0.79
			s-0.66,0.75-0.89,1.23c-0.23,0.48-0.36,1.01-0.4,1.59H226.81z"/>
		<path class="st3" d="M239.35,410.28c-1.32,0-2.61-0.21-3.87-0.63c-1.26-0.42-2.34-1.02-3.24-1.8l1.5-2.52
			c0.96,0.68,1.89,1.2,2.8,1.54c0.91,0.35,1.81,0.53,2.72,0.53c0.8,0,1.43-0.15,1.89-0.45s0.69-0.73,0.69-1.29
			c0-0.56-0.27-0.97-0.81-1.23s-1.42-0.56-2.64-0.9c-1.02-0.28-1.89-0.55-2.61-0.81c-0.72-0.26-1.3-0.56-1.74-0.88
			c-0.44-0.33-0.76-0.71-0.96-1.14c-0.2-0.43-0.3-0.95-0.3-1.54c0-0.8,0.15-1.52,0.46-2.16c0.31-0.64,0.74-1.18,1.31-1.63
			c0.56-0.45,1.21-0.79,1.96-1.04s1.56-0.36,2.44-0.36c1.18,0,2.28,0.17,3.31,0.51c1.03,0.34,1.98,0.89,2.83,1.65l-1.62,2.43
			c-0.8-0.6-1.58-1.04-2.33-1.32s-1.5-0.42-2.23-0.42c-0.68,0-1.25,0.14-1.71,0.42c-0.46,0.28-0.69,0.73-0.69,1.35
			c0,0.28,0.05,0.51,0.17,0.69c0.11,0.18,0.28,0.34,0.52,0.48c0.24,0.14,0.55,0.28,0.94,0.41c0.39,0.13,0.87,0.27,1.46,0.41
			c1.08,0.28,2,0.56,2.77,0.84c0.77,0.28,1.4,0.6,1.89,0.96c0.49,0.36,0.85,0.78,1.08,1.25c0.23,0.47,0.34,1.04,0.34,1.7
			c0,1.54-0.57,2.75-1.71,3.64C242.86,409.84,241.31,410.28,239.35,410.28z"/>
		<path class="st3" d="M268.6,394.26c-0.14-0.14-0.4-0.33-0.76-0.57c-0.37-0.24-0.82-0.47-1.35-0.71c-0.53-0.23-1.11-0.42-1.72-0.58
			c-0.62-0.16-1.25-0.24-1.89-0.24c-1.14,0-1.99,0.21-2.55,0.63c-0.56,0.42-0.84,1.01-0.84,1.77c0,0.44,0.11,0.81,0.32,1.09
			c0.21,0.29,0.51,0.54,0.92,0.77c0.4,0.22,0.9,0.42,1.51,0.6s1.31,0.37,2.12,0.57c1.04,0.28,1.98,0.58,2.83,0.9
			c0.85,0.32,1.57,0.72,2.16,1.2c0.59,0.48,1.04,1.06,1.36,1.72c0.32,0.67,0.48,1.5,0.48,2.48c0,1.14-0.21,2.12-0.64,2.92
			c-0.43,0.81-1.01,1.47-1.74,1.96c-0.73,0.5-1.57,0.87-2.52,1.09c-0.95,0.23-1.95,0.35-2.98,0.35c-1.6,0-3.18-0.24-4.74-0.72
			c-1.56-0.48-2.96-1.16-4.2-2.04l1.83-3.57c0.18,0.18,0.5,0.42,0.97,0.71c0.47,0.29,1.03,0.58,1.67,0.87
			c0.64,0.29,1.35,0.54,2.13,0.73c0.78,0.2,1.58,0.3,2.4,0.3c2.28,0,3.42-0.73,3.42-2.19c0-0.46-0.13-0.85-0.39-1.17
			c-0.26-0.32-0.63-0.6-1.11-0.84c-0.48-0.24-1.06-0.46-1.74-0.66s-1.44-0.42-2.28-0.66c-1.02-0.28-1.91-0.58-2.66-0.92
			s-1.38-0.72-1.88-1.17c-0.5-0.45-0.88-0.97-1.12-1.56s-0.38-1.29-0.38-2.12c0-1.08,0.2-2.04,0.6-2.88c0.4-0.84,0.96-1.54,1.67-2.1
			c0.71-0.56,1.54-0.98,2.48-1.27c0.94-0.29,1.95-0.44,3.03-0.44c1.5,0,2.88,0.24,4.14,0.71c1.26,0.47,2.36,1.03,3.3,1.67
			L268.6,394.26z"/>
		<path class="st3" d="M278.2,410.28c-0.76,0-1.47-0.12-2.13-0.38c-0.66-0.25-1.23-0.6-1.71-1.05c-0.48-0.45-0.85-0.97-1.12-1.58
			c-0.27-0.6-0.4-1.26-0.4-1.98c0-0.74,0.17-1.43,0.5-2.06s0.79-1.16,1.38-1.6c0.59-0.44,1.29-0.79,2.12-1.04
			c0.82-0.25,1.72-0.38,2.7-0.38c0.7,0,1.38,0.06,2.06,0.18c0.67,0.12,1.26,0.29,1.78,0.51v-0.9c0-1.04-0.29-1.84-0.88-2.4
			c-0.59-0.56-1.46-0.84-2.62-0.84c-0.84,0-1.66,0.15-2.46,0.45s-1.62,0.74-2.46,1.32L273.7,396c2.02-1.34,4.2-2.01,6.54-2.01
			c2.26,0,4.01,0.56,5.26,1.67c1.25,1.11,1.88,2.71,1.88,4.82v4.89c0,0.42,0.08,0.72,0.22,0.9c0.15,0.18,0.4,0.28,0.74,0.3v3.42
			c-0.68,0.14-1.27,0.21-1.77,0.21c-0.76,0-1.35-0.17-1.76-0.51s-0.67-0.79-0.76-1.35l-0.09-0.87c-0.7,0.92-1.55,1.62-2.55,2.1
			C280.41,410.04,279.34,410.28,278.2,410.28z M279.34,407.34c0.68,0,1.32-0.12,1.93-0.36s1.08-0.56,1.43-0.96
			c0.44-0.34,0.66-0.72,0.66-1.14v-1.8c-0.48-0.18-1-0.32-1.56-0.43c-0.56-0.11-1.1-0.17-1.62-0.17c-1.04,0-1.89,0.24-2.55,0.71
			s-0.99,1.06-0.99,1.79c0,0.68,0.26,1.25,0.78,1.69C277.94,407.12,278.58,407.34,279.34,407.34z"/>
		<path class="st3" d="M305.74,409.98h-4.02v-8.82c0-1.26-0.22-2.18-0.66-2.76c-0.44-0.58-1.05-0.87-1.83-0.87
			c-0.4,0-0.81,0.08-1.23,0.24c-0.42,0.16-0.82,0.39-1.19,0.67c-0.37,0.29-0.71,0.64-1,1.04c-0.3,0.4-0.52,0.84-0.66,1.32v9.18
			h-4.02v-15.72h3.63v2.91c0.58-1,1.42-1.78,2.52-2.34c1.1-0.56,2.34-0.84,3.72-0.84c0.98,0,1.78,0.18,2.4,0.54
			c0.62,0.36,1.1,0.83,1.44,1.41c0.34,0.58,0.57,1.24,0.71,1.98c0.13,0.74,0.19,1.49,0.19,2.25V409.98z"/>
		<path class="st3" d="M308.26,402.12c0-1.1,0.19-2.14,0.57-3.12c0.38-0.98,0.93-1.84,1.65-2.58c0.72-0.74,1.59-1.33,2.61-1.77
			c1.02-0.44,2.17-0.66,3.45-0.66c1.72,0,3.18,0.37,4.4,1.11c1.21,0.74,2.11,1.71,2.71,2.91l-3.93,1.2
			c-0.34-0.58-0.79-1.03-1.35-1.34c-0.56-0.31-1.18-0.46-1.86-0.46c-0.58,0-1.12,0.12-1.62,0.35c-0.5,0.23-0.94,0.55-1.31,0.96
			s-0.66,0.91-0.87,1.48c-0.21,0.58-0.31,1.22-0.31,1.92c0,0.7,0.11,1.34,0.33,1.92c0.22,0.58,0.51,1.08,0.88,1.5
			c0.37,0.42,0.8,0.75,1.3,0.98c0.5,0.23,1.03,0.34,1.59,0.34c0.72,0,1.38-0.18,2-0.54c0.61-0.36,1.04-0.8,1.28-1.32l3.93,1.2
			c-0.54,1.2-1.43,2.18-2.67,2.94s-2.73,1.14-4.47,1.14c-1.28,0-2.43-0.22-3.45-0.66c-1.02-0.44-1.89-1.03-2.61-1.78
			c-0.72-0.75-1.27-1.62-1.67-2.61C308.46,404.24,308.26,403.2,308.26,402.12z"/>
		<path class="st3" d="M326.17,392.07v-3.99h4.02v3.99H326.17z M326.17,409.98v-15.72h4.02v15.72H326.17z"/>
		<path class="st3" d="M341.08,410.28c-1.28,0-2.43-0.22-3.45-0.66c-1.02-0.44-1.89-1.03-2.6-1.78s-1.25-1.62-1.63-2.6
			c-0.38-0.98-0.57-2.01-0.57-3.09c0-1.1,0.19-2.14,0.57-3.12c0.38-0.98,0.92-1.84,1.63-2.59s1.58-1.34,2.6-1.79
			c1.02-0.44,2.17-0.66,3.45-0.66c1.28,0,2.42,0.22,3.44,0.66c1.01,0.44,1.87,1.04,2.58,1.79c0.71,0.75,1.25,1.62,1.63,2.59
			c0.38,0.98,0.57,2.02,0.57,3.12c0,1.08-0.19,2.11-0.57,3.09c-0.38,0.98-0.92,1.85-1.62,2.6s-1.56,1.34-2.58,1.78
			C343.51,410.06,342.36,410.28,341.08,410.28z M336.97,402.15c0,0.7,0.1,1.33,0.31,1.91c0.21,0.57,0.5,1.06,0.87,1.48
			c0.37,0.42,0.8,0.75,1.31,0.98c0.5,0.23,1.04,0.34,1.62,0.34s1.12-0.11,1.62-0.34c0.5-0.23,0.93-0.55,1.31-0.98
			c0.37-0.42,0.66-0.92,0.87-1.5c0.21-0.58,0.32-1.22,0.32-1.92c0-0.68-0.1-1.31-0.32-1.89c-0.21-0.58-0.5-1.08-0.87-1.5
			c-0.37-0.42-0.81-0.75-1.31-0.97c-0.5-0.23-1.04-0.35-1.62-0.35s-1.12,0.12-1.62,0.36c-0.5,0.24-0.94,0.57-1.31,0.99
			s-0.66,0.92-0.87,1.5S336.97,401.47,336.97,402.15z"/>
		<path class="st3" d="M366.61,409.98h-4.02v-8.82c0-1.26-0.22-2.18-0.66-2.76c-0.44-0.58-1.05-0.87-1.83-0.87
			c-0.4,0-0.81,0.08-1.23,0.24s-0.82,0.39-1.18,0.67c-0.37,0.29-0.71,0.64-1.01,1.04c-0.3,0.4-0.52,0.84-0.66,1.32v9.18H352v-15.72
			h3.63v2.91c0.58-1,1.42-1.78,2.52-2.34c1.1-0.56,2.34-0.84,3.72-0.84c0.98,0,1.78,0.18,2.4,0.54c0.62,0.36,1.1,0.83,1.44,1.41
			s0.58,1.24,0.71,1.98c0.13,0.74,0.2,1.49,0.2,2.25V409.98z"/>
		<path class="st3" d="M374.41,410.28c-0.76,0-1.47-0.12-2.13-0.38c-0.66-0.25-1.23-0.6-1.71-1.05c-0.48-0.45-0.85-0.97-1.12-1.58
			c-0.27-0.6-0.4-1.26-0.4-1.98c0-0.74,0.17-1.43,0.5-2.06s0.79-1.16,1.38-1.6c0.59-0.44,1.29-0.79,2.12-1.04
			c0.82-0.25,1.72-0.38,2.7-0.38c0.7,0,1.38,0.06,2.06,0.18c0.67,0.12,1.26,0.29,1.78,0.51v-0.9c0-1.04-0.29-1.84-0.88-2.4
			c-0.59-0.56-1.46-0.84-2.62-0.84c-0.84,0-1.66,0.15-2.46,0.45s-1.62,0.74-2.46,1.32l-1.23-2.55c2.02-1.34,4.2-2.01,6.54-2.01
			c2.26,0,4.01,0.56,5.26,1.67c1.25,1.11,1.88,2.71,1.88,4.82v4.89c0,0.42,0.08,0.72,0.22,0.9c0.15,0.18,0.4,0.28,0.74,0.3v3.42
			c-0.68,0.14-1.27,0.21-1.77,0.21c-0.76,0-1.35-0.17-1.76-0.51s-0.67-0.79-0.76-1.35l-0.09-0.87c-0.7,0.92-1.55,1.62-2.55,2.1
			C376.62,410.04,375.55,410.28,374.41,410.28z M375.55,407.34c0.68,0,1.32-0.12,1.93-0.36s1.08-0.56,1.43-0.96
			c0.44-0.34,0.66-0.72,0.66-1.14v-1.8c-0.48-0.18-1-0.32-1.56-0.43c-0.56-0.11-1.1-0.17-1.62-0.17c-1.04,0-1.89,0.24-2.55,0.71
			s-0.99,1.06-0.99,1.79c0,0.68,0.26,1.25,0.78,1.69C374.15,407.12,374.79,407.34,375.55,407.34z"/>
		<path class="st3" d="M393.85,410.28c-1.08,0-2.08-0.21-3-0.63s-1.71-1-2.37-1.74c-0.66-0.74-1.17-1.6-1.54-2.59
			s-0.55-2.05-0.55-3.2c0-1.14,0.17-2.2,0.52-3.18c0.35-0.98,0.83-1.84,1.46-2.58c0.62-0.74,1.36-1.32,2.22-1.74
			c0.86-0.42,1.8-0.63,2.82-0.63c1.16,0,2.21,0.28,3.13,0.84c0.93,0.56,1.66,1.29,2.18,2.19v-8.94h4.02v17.28
			c0,0.42,0.07,0.72,0.21,0.9c0.14,0.18,0.38,0.28,0.72,0.3v3.42c-0.7,0.14-1.27,0.21-1.71,0.21c-0.72,0-1.31-0.18-1.77-0.54
			c-0.46-0.36-0.72-0.83-0.78-1.41l-0.09-0.99c-0.58,1-1.37,1.76-2.36,2.27C395.96,410.03,394.93,410.28,393.85,410.28z
			 M394.9,406.86c0.38,0,0.77-0.06,1.17-0.2c0.4-0.13,0.77-0.31,1.11-0.55c0.34-0.24,0.64-0.52,0.92-0.84
			c0.27-0.32,0.47-0.67,0.62-1.05v-3.75c-0.16-0.44-0.39-0.84-0.68-1.21s-0.62-0.69-0.99-0.96c-0.37-0.27-0.76-0.49-1.17-0.65
			c-0.41-0.16-0.82-0.24-1.22-0.24c-0.6,0-1.15,0.13-1.67,0.39c-0.51,0.26-0.94,0.61-1.3,1.06s-0.64,0.97-0.84,1.54
			c-0.2,0.58-0.3,1.18-0.3,1.8c0,0.66,0.11,1.27,0.33,1.83c0.22,0.56,0.52,1.05,0.9,1.47s0.83,0.75,1.37,0.99
			C393.67,406.74,394.26,406.86,394.9,406.86z"/>
		<path class="st3" d="M413.95,410.28c-1.28,0-2.43-0.22-3.45-0.66c-1.02-0.44-1.88-1.03-2.59-1.78s-1.26-1.62-1.63-2.6
			c-0.38-0.98-0.57-2.01-0.57-3.09c0-1.1,0.19-2.14,0.57-3.12c0.38-0.98,0.92-1.84,1.63-2.59s1.58-1.34,2.59-1.79
			c1.02-0.44,2.17-0.66,3.45-0.66c1.28,0,2.42,0.22,3.43,0.66c1.01,0.44,1.87,1.04,2.58,1.79s1.25,1.62,1.64,2.59
			c0.38,0.98,0.57,2.02,0.57,3.12c0,1.08-0.19,2.11-0.57,3.09c-0.38,0.98-0.92,1.85-1.62,2.6c-0.7,0.75-1.56,1.34-2.58,1.78
			C416.38,410.06,415.23,410.28,413.95,410.28z M409.84,402.15c0,0.7,0.11,1.33,0.32,1.91c0.21,0.57,0.5,1.06,0.87,1.48
			c0.37,0.42,0.8,0.75,1.3,0.98c0.5,0.23,1.04,0.34,1.62,0.34s1.12-0.11,1.62-0.34c0.5-0.23,0.93-0.55,1.3-0.98
			c0.37-0.42,0.66-0.92,0.87-1.5c0.21-0.58,0.32-1.22,0.32-1.92c0-0.68-0.11-1.31-0.32-1.89s-0.5-1.08-0.87-1.5s-0.81-0.75-1.3-0.97
			c-0.5-0.23-1.04-0.35-1.62-0.35s-1.12,0.12-1.62,0.36s-0.94,0.57-1.3,0.99c-0.37,0.42-0.66,0.92-0.87,1.5
			S409.84,401.47,409.84,402.15z"/>
		<path class="st3" d="M430.81,410.28c-1.32,0-2.61-0.21-3.87-0.63c-1.26-0.42-2.34-1.02-3.24-1.8l1.5-2.52
			c0.96,0.68,1.89,1.2,2.8,1.54c0.91,0.35,1.81,0.53,2.71,0.53c0.8,0,1.43-0.15,1.89-0.45s0.69-0.73,0.69-1.29
			c0-0.56-0.27-0.97-0.81-1.23s-1.42-0.56-2.64-0.9c-1.02-0.28-1.89-0.55-2.61-0.81c-0.72-0.26-1.3-0.56-1.74-0.88
			c-0.44-0.33-0.76-0.71-0.96-1.14c-0.2-0.43-0.3-0.95-0.3-1.54c0-0.8,0.15-1.52,0.46-2.16c0.31-0.64,0.74-1.18,1.3-1.63
			c0.56-0.45,1.21-0.79,1.96-1.04s1.56-0.36,2.45-0.36c1.18,0,2.28,0.17,3.31,0.51s1.98,0.89,2.83,1.65l-1.62,2.43
			c-0.8-0.6-1.58-1.04-2.33-1.32s-1.5-0.42-2.24-0.42c-0.68,0-1.25,0.14-1.71,0.42s-0.69,0.73-0.69,1.35c0,0.28,0.05,0.51,0.17,0.69
			c0.11,0.18,0.28,0.34,0.52,0.48c0.24,0.14,0.55,0.28,0.95,0.41c0.39,0.13,0.87,0.27,1.46,0.41c1.08,0.28,2,0.56,2.77,0.84
			c0.77,0.28,1.4,0.6,1.89,0.96c0.49,0.36,0.85,0.78,1.08,1.25c0.23,0.47,0.34,1.04,0.34,1.7c0,1.54-0.57,2.75-1.71,3.64
			C434.32,409.84,432.77,410.28,430.81,410.28z"/>
	</g>
	<g>
		<path class="st0" d="M298.94,256.9c1.19,2.06-0.3,4.64-2.68,4.64h-80.52c-2.38,0-3.87-2.58-2.68-4.64l27.48-47.59l-40.13-19.08
			v105.47c0,0.23,0.19,0.42,0.42,0.42h70.33c22.34,0,40.46-18.11,40.46-40.46V243.1l-28.43-13.52L298.94,256.9z"/>
		<polygon class="st0" points="250.62,233.84 261.38,233.84 261.38,219.22 250.62,214.1 		"/>
		<rect x="250.62" y="243.15" class="st0" width="10.76" height="12.13"/>
		
			<ellipse transform="matrix(0.7071 -0.7071 0.7071 0.7071 -12.5054 217.2572)" class="st1" cx="256" cy="123.72" rx="29.58" ry="29.58"/>
		<path class="st1" d="M294.83,168.21h-77.48c-9.36,0-16.96,7.59-16.96,16.96v5.06l40.13,19.08l12.79-22.15
			c1.19-2.06,4.17-2.06,5.36,0l24.49,42.42l28.43,13.52v-58.12C311.6,175.72,304.09,168.21,294.83,168.21z"/>
		<polygon class="st1" points="250.62,197.7 250.62,214.1 261.38,219.22 261.38,197.7 		"/>
	</g>
</g>
</svg>
