<?xml version="1.0" encoding="utf-8"?>
<!-- Generator: Adobe Illustrator 24.0.0, SVG Export Plug-In . SVG Version: 6.00 Build 0)  -->
<svg version="1.1" xmlns="http://www.w3.org/2000/svg" xmlns:xlink="http://www.w3.org/1999/xlink" x="0px" y="0px"
	 viewBox="0 0 512 512" style="enable-background:new 0 0 512 512;" xml:space="preserve">
<style type="text/css">
	.st0{fill:#125DA9;}
	.st1{fill:#6A91BF;}
	.st2{fill:#FFFFFF;}
	.st3{fill:#969696;}
	.st4{fill:#B8B8B8;}
</style>
<g id="GUIAS">
</g>
<g id="Capa_1">
	<g>
		<g>
			<path class="st0" d="M181.51,142.66v125.29c0,15.36,12.46,27.82,27.82,27.82h93.11c15.36,0,27.82-12.46,27.82-27.82v-54.56
				L181.51,142.66z"/>
			<path class="st1" d="M330.26,121.5c0-15.36-12.46-27.82-27.82-27.82h-93.11c-15.36,0-27.82,12.46-27.82,27.82v21.16l148.75,70.73
				V121.5z"/>
		</g>
		<g>
			<rect x="202.59" y="131.04" class="st2" width="87.31" height="8.7"/>
			<rect x="202.59" y="155.37" class="st2" width="78.13" height="8.7"/>
			<rect x="202.59" y="179.71" class="st2" width="67.19" height="8.7"/>
			<rect x="202.59" y="204.05" class="st2" width="55.99" height="8.7"/>
		</g>
		<path class="st2" d="M322.67,162.3l4.32-10.18c1.7-4.01-0.17-8.64-4.18-10.34l-10.51-4.46c-4.03-1.71-8.69,0.17-10.4,4.2
			l-4.3,10.13L322.67,162.3z"/>
		
			<rect x="235.44" y="197.81" transform="matrix(0.3907 -0.9205 0.9205 0.3907 -19.751 393.0195)" class="st2" width="103.15" height="27.23"/>
		<polygon class="st2" points="276.73,270.51 251.66,259.87 254.69,287.25 		"/>
	</g>
	<g>
		<path class="st3" d="M55.74,357.92c-0.14-0.14-0.4-0.33-0.77-0.57c-0.37-0.24-0.82-0.47-1.35-0.71c-0.53-0.23-1.11-0.42-1.73-0.58
			c-0.62-0.16-1.25-0.24-1.89-0.24c-1.14,0-1.99,0.21-2.55,0.63c-0.56,0.42-0.84,1.01-0.84,1.77c0,0.44,0.1,0.81,0.31,1.09
			c0.21,0.29,0.51,0.54,0.92,0.77c0.4,0.22,0.9,0.42,1.52,0.6c0.61,0.18,1.31,0.37,2.11,0.57c1.04,0.28,1.98,0.58,2.83,0.9
			c0.85,0.32,1.57,0.72,2.16,1.2c0.59,0.48,1.04,1.06,1.36,1.72c0.32,0.67,0.48,1.5,0.48,2.48c0,1.14-0.22,2.12-0.65,2.92
			c-0.43,0.81-1.01,1.47-1.74,1.96c-0.73,0.5-1.57,0.87-2.52,1.09c-0.95,0.23-1.95,0.35-2.98,0.35c-1.6,0-3.18-0.24-4.74-0.72
			c-1.56-0.48-2.96-1.16-4.2-2.04l1.83-3.57c0.18,0.18,0.5,0.42,0.97,0.71c0.47,0.29,1.02,0.58,1.67,0.87s1.35,0.54,2.13,0.73
			c0.78,0.2,1.58,0.3,2.4,0.3c2.28,0,3.42-0.73,3.42-2.19c0-0.46-0.13-0.85-0.39-1.17c-0.26-0.32-0.63-0.6-1.11-0.84
			c-0.48-0.24-1.06-0.46-1.74-0.66c-0.68-0.2-1.44-0.42-2.28-0.66c-1.02-0.28-1.91-0.58-2.66-0.92s-1.38-0.72-1.88-1.17
			s-0.88-0.97-1.12-1.56s-0.38-1.29-0.38-2.12c0-1.08,0.2-2.04,0.6-2.88c0.4-0.84,0.96-1.54,1.67-2.1c0.71-0.56,1.53-0.98,2.48-1.27
			c0.94-0.29,1.95-0.44,3.03-0.44c1.5,0,2.88,0.24,4.14,0.71c1.26,0.47,2.36,1.03,3.3,1.67L55.74,357.92z"/>
		<path class="st3" d="M68.34,373.94c-1.26,0-2.4-0.21-3.42-0.64s-1.89-1.01-2.61-1.75c-0.72-0.74-1.27-1.6-1.67-2.58
			c-0.39-0.98-0.58-2.01-0.58-3.09c0-1.12,0.19-2.18,0.57-3.17c0.38-0.99,0.93-1.86,1.65-2.61c0.72-0.75,1.59-1.34,2.62-1.79
			c1.03-0.44,2.18-0.66,3.46-0.66c1.28,0,2.42,0.22,3.44,0.66c1.01,0.44,1.87,1.03,2.58,1.77c0.71,0.74,1.25,1.6,1.62,2.58
			c0.37,0.98,0.55,2,0.55,3.06c0,0.26,0,0.51-0.01,0.75c-0.01,0.24-0.04,0.44-0.08,0.6H64.32c0.06,0.62,0.21,1.17,0.45,1.65
			c0.24,0.48,0.55,0.89,0.93,1.23c0.38,0.34,0.81,0.6,1.29,0.78s0.98,0.27,1.5,0.27c0.8,0,1.55-0.2,2.27-0.58
			c0.71-0.39,1.19-0.91,1.46-1.54l3.45,0.96c-0.58,1.2-1.5,2.18-2.77,2.95C71.62,373.56,70.1,373.94,68.34,373.94z M72.42,364.46
			c-0.1-1.18-0.54-2.12-1.31-2.83c-0.77-0.71-1.71-1.07-2.81-1.07c-0.54,0-1.04,0.1-1.51,0.29c-0.47,0.19-0.89,0.46-1.25,0.79
			s-0.66,0.75-0.89,1.23c-0.23,0.48-0.36,1.01-0.4,1.59H72.42z"/>
		<path class="st3" d="M88.38,361.4c-1.22,0.02-2.31,0.25-3.27,0.71s-1.65,1.12-2.07,2.03v9.51h-4.02v-15.72h3.69v3.36
			c0.28-0.54,0.61-1.02,0.99-1.46c0.38-0.43,0.79-0.8,1.23-1.12c0.44-0.32,0.88-0.56,1.33-0.73c0.45-0.17,0.88-0.25,1.3-0.25
			c0.22,0,0.38,0,0.5,0c0.11,0,0.21,0.01,0.31,0.03V361.4z"/>
		<path class="st3" d="M94.86,373.64l-5.79-15.72h4.14l3.99,12.45l4.02-12.45H105l-5.79,15.72H94.86z"/>
		<path class="st3" d="M107.1,355.73v-3.99h4.02v3.99H107.1z M107.1,373.64v-15.72h4.02v15.72H107.1z"/>
		<path class="st3" d="M121.26,373.94c-1.08,0-2.08-0.21-3-0.63s-1.71-1-2.37-1.74c-0.66-0.74-1.18-1.6-1.55-2.59
			s-0.55-2.05-0.55-3.2c0-1.14,0.17-2.2,0.52-3.18c0.35-0.98,0.83-1.84,1.46-2.58c0.62-0.74,1.36-1.32,2.22-1.74s1.8-0.63,2.82-0.63
			c1.16,0,2.21,0.28,3.13,0.84c0.93,0.56,1.65,1.29,2.18,2.19v-8.94h4.02v17.28c0,0.42,0.07,0.72,0.21,0.9
			c0.14,0.18,0.38,0.28,0.72,0.3v3.42c-0.7,0.14-1.27,0.21-1.71,0.21c-0.72,0-1.31-0.18-1.77-0.54c-0.46-0.36-0.72-0.83-0.78-1.41
			l-0.09-0.99c-0.58,1-1.36,1.76-2.35,2.27C123.38,373.69,122.34,373.94,121.26,373.94z M122.31,370.52c0.38,0,0.77-0.06,1.17-0.2
			c0.4-0.13,0.77-0.31,1.11-0.55c0.34-0.24,0.65-0.52,0.92-0.84c0.27-0.32,0.48-0.67,0.62-1.05v-3.75
			c-0.16-0.44-0.39-0.84-0.68-1.21c-0.29-0.37-0.62-0.69-0.99-0.96c-0.37-0.27-0.76-0.49-1.17-0.65c-0.41-0.16-0.82-0.24-1.22-0.24
			c-0.6,0-1.15,0.13-1.67,0.39c-0.51,0.26-0.94,0.61-1.3,1.06c-0.36,0.45-0.64,0.97-0.84,1.54c-0.2,0.58-0.3,1.18-0.3,1.8
			c0,0.66,0.11,1.27,0.33,1.83c0.22,0.56,0.52,1.05,0.9,1.47c0.38,0.42,0.83,0.75,1.36,0.99
			C121.09,370.4,121.67,370.52,122.31,370.52z"/>
		<path class="st3" d="M141.36,373.94c-1.28,0-2.43-0.22-3.45-0.66c-1.02-0.44-1.89-1.03-2.6-1.78s-1.26-1.62-1.63-2.6
			c-0.38-0.98-0.57-2.01-0.57-3.09c0-1.1,0.19-2.14,0.57-3.12c0.38-0.98,0.92-1.84,1.63-2.59s1.58-1.34,2.6-1.79
			c1.02-0.44,2.17-0.66,3.45-0.66s2.42,0.22,3.44,0.66c1.01,0.44,1.87,1.04,2.58,1.79c0.71,0.75,1.25,1.62,1.64,2.59
			c0.38,0.98,0.57,2.02,0.57,3.12c0,1.08-0.19,2.11-0.57,3.09c-0.38,0.98-0.92,1.85-1.62,2.6c-0.7,0.75-1.56,1.34-2.58,1.78
			C143.79,373.72,142.64,373.94,141.36,373.94z M137.25,365.81c0,0.7,0.1,1.33,0.31,1.91c0.21,0.57,0.5,1.06,0.87,1.48
			c0.37,0.42,0.8,0.75,1.31,0.98c0.5,0.23,1.04,0.34,1.62,0.34s1.12-0.11,1.62-0.34c0.5-0.23,0.93-0.55,1.31-0.98
			c0.37-0.42,0.66-0.92,0.87-1.5c0.21-0.58,0.32-1.22,0.32-1.92c0-0.68-0.1-1.31-0.32-1.89c-0.21-0.58-0.5-1.08-0.87-1.5
			c-0.37-0.42-0.81-0.75-1.31-0.97c-0.5-0.23-1.04-0.35-1.62-0.35s-1.12,0.12-1.62,0.36c-0.5,0.24-0.94,0.57-1.31,0.99
			c-0.37,0.42-0.66,0.92-0.87,1.5S137.25,365.13,137.25,365.81z"/>
		<path class="st3" d="M161.64,361.4c-1.22,0.02-2.31,0.25-3.27,0.71s-1.65,1.12-2.07,2.03v9.51h-4.02v-15.72h3.69v3.36
			c0.28-0.54,0.61-1.02,0.99-1.46c0.38-0.43,0.79-0.8,1.23-1.12c0.44-0.32,0.88-0.56,1.33-0.73c0.45-0.17,0.88-0.25,1.3-0.25
			c0.22,0,0.38,0,0.5,0c0.11,0,0.21,0.01,0.31,0.03V361.4z"/>
		<path class="st3" d="M170.4,373.94c-1.26,0-2.4-0.21-3.42-0.64s-1.89-1.01-2.61-1.75c-0.72-0.74-1.27-1.6-1.67-2.58
			c-0.39-0.98-0.58-2.01-0.58-3.09c0-1.12,0.19-2.18,0.57-3.17c0.38-0.99,0.93-1.86,1.65-2.61c0.72-0.75,1.59-1.34,2.62-1.79
			c1.03-0.44,2.18-0.66,3.46-0.66c1.28,0,2.42,0.22,3.44,0.66c1.01,0.44,1.87,1.03,2.58,1.77c0.71,0.74,1.25,1.6,1.62,2.58
			c0.37,0.98,0.55,2,0.55,3.06c0,0.26,0,0.51-0.01,0.75c-0.01,0.24-0.04,0.44-0.08,0.6h-12.15c0.06,0.62,0.21,1.17,0.45,1.65
			c0.24,0.48,0.55,0.89,0.93,1.23c0.38,0.34,0.81,0.6,1.29,0.78s0.98,0.27,1.5,0.27c0.8,0,1.55-0.2,2.27-0.58
			c0.71-0.39,1.19-0.91,1.46-1.54l3.45,0.96c-0.58,1.2-1.5,2.18-2.77,2.95C173.68,373.56,172.16,373.94,170.4,373.94z
			 M174.48,364.46c-0.1-1.18-0.54-2.12-1.31-2.83c-0.77-0.71-1.71-1.07-2.81-1.07c-0.54,0-1.04,0.1-1.51,0.29
			c-0.47,0.19-0.89,0.46-1.25,0.79s-0.66,0.75-0.89,1.23c-0.23,0.48-0.36,1.01-0.4,1.59H174.48z"/>
		<path class="st3" d="M187.02,373.94c-1.32,0-2.61-0.21-3.87-0.63c-1.26-0.42-2.34-1.02-3.24-1.8l1.5-2.52
			c0.96,0.68,1.89,1.2,2.8,1.54c0.91,0.35,1.81,0.53,2.72,0.53c0.8,0,1.43-0.15,1.89-0.45s0.69-0.73,0.69-1.29
			c0-0.56-0.27-0.97-0.81-1.23s-1.42-0.56-2.64-0.9c-1.02-0.28-1.89-0.55-2.61-0.81c-0.72-0.26-1.3-0.56-1.74-0.88
			c-0.44-0.33-0.76-0.71-0.96-1.14c-0.2-0.43-0.3-0.95-0.3-1.54c0-0.8,0.15-1.52,0.46-2.16c0.31-0.64,0.74-1.18,1.31-1.63
			c0.56-0.45,1.21-0.79,1.96-1.04s1.56-0.36,2.44-0.36c1.18,0,2.28,0.17,3.31,0.51c1.03,0.34,1.98,0.89,2.83,1.65l-1.62,2.43
			c-0.8-0.6-1.58-1.04-2.33-1.32s-1.5-0.42-2.23-0.42c-0.68,0-1.25,0.14-1.71,0.42c-0.46,0.28-0.69,0.73-0.69,1.35
			c0,0.28,0.05,0.51,0.17,0.69c0.11,0.18,0.28,0.34,0.52,0.48c0.24,0.14,0.55,0.28,0.94,0.41c0.39,0.13,0.87,0.27,1.46,0.41
			c1.08,0.28,2,0.56,2.77,0.84c0.77,0.28,1.4,0.6,1.89,0.96c0.49,0.36,0.85,0.78,1.08,1.25c0.23,0.47,0.34,1.04,0.34,1.7
			c0,1.54-0.57,2.75-1.71,3.64C190.53,373.5,188.98,373.94,187.02,373.94z"/>
		<path class="st3" d="M209.13,373.94c-1,0-1.92-0.21-2.76-0.64c-0.84-0.43-1.56-1.01-2.17-1.75c-0.61-0.74-1.08-1.61-1.42-2.6
			c-0.34-0.99-0.51-2.05-0.51-3.19c0-1.14,0.18-2.2,0.56-3.18c0.37-0.98,0.88-1.83,1.54-2.56s1.44-1.31,2.34-1.73
			c0.9-0.42,1.87-0.63,2.91-0.63c1.2,0,2.26,0.28,3.18,0.83c0.92,0.55,1.67,1.28,2.25,2.17v-2.73h3.51v17.28
			c0,0.44,0.08,0.75,0.24,0.92c0.16,0.17,0.44,0.27,0.84,0.29v3.42c-0.34,0.06-0.71,0.11-1.11,0.14c-0.4,0.03-0.76,0.04-1.08,0.04
			c-0.4,0-0.78-0.07-1.12-0.21c-0.35-0.14-0.66-0.33-0.92-0.57c-0.26-0.24-0.47-0.53-0.63-0.86c-0.16-0.33-0.24-0.69-0.24-1.09
			v-6.39c-0.58,1.02-1.33,1.79-2.25,2.29S210.31,373.94,209.13,373.94z M210.63,370.52c0.86,0,1.61-0.24,2.25-0.72
			c0.64-0.48,1.19-1.1,1.65-1.86v-3.72c-0.12-0.44-0.31-0.85-0.58-1.23c-0.27-0.38-0.58-0.71-0.94-1c-0.36-0.29-0.75-0.51-1.17-0.67
			c-0.42-0.16-0.84-0.24-1.26-0.24c-0.62,0-1.19,0.13-1.69,0.39c-0.51,0.26-0.95,0.61-1.32,1.06s-0.66,0.97-0.87,1.54
			c-0.21,0.58-0.32,1.18-0.32,1.8c0,0.66,0.11,1.27,0.32,1.83c0.21,0.56,0.5,1.05,0.87,1.47s0.81,0.75,1.33,0.99
			C209.41,370.4,209.99,370.52,210.63,370.52z"/>
		<path class="st3" d="M227.01,373.94c-1.62,0-2.85-0.52-3.69-1.56s-1.26-2.58-1.26-4.62v-9.84h4.02v8.97
			c0,2.42,0.87,3.63,2.61,3.63c0.78,0,1.53-0.23,2.27-0.71c0.73-0.47,1.32-1.18,1.78-2.14v-9.75h4.02v11.1
			c0,0.42,0.08,0.72,0.23,0.9c0.15,0.18,0.39,0.28,0.73,0.3v3.42c-0.4,0.08-0.73,0.13-1,0.15c-0.27,0.02-0.52,0.03-0.73,0.03
			c-0.72,0-1.31-0.17-1.75-0.5c-0.45-0.33-0.72-0.78-0.8-1.36l-0.09-1.26c-0.7,1.08-1.6,1.89-2.7,2.43S228.33,373.94,227.01,373.94z
			"/>
		<path class="st3" d="M248.04,373.94c-1.26,0-2.4-0.21-3.42-0.64s-1.89-1.01-2.61-1.75c-0.72-0.74-1.27-1.6-1.67-2.58
			c-0.39-0.98-0.58-2.01-0.58-3.09c0-1.12,0.19-2.18,0.57-3.17c0.38-0.99,0.93-1.86,1.65-2.61c0.72-0.75,1.59-1.34,2.62-1.79
			c1.03-0.44,2.18-0.66,3.46-0.66c1.28,0,2.42,0.22,3.44,0.66c1.01,0.44,1.87,1.03,2.58,1.77c0.71,0.74,1.25,1.6,1.62,2.58
			c0.37,0.98,0.55,2,0.55,3.06c0,0.26,0,0.51-0.01,0.75c-0.01,0.24-0.04,0.44-0.08,0.6h-12.15c0.06,0.62,0.21,1.17,0.45,1.65
			c0.24,0.48,0.55,0.89,0.93,1.23c0.38,0.34,0.81,0.6,1.29,0.78s0.98,0.27,1.5,0.27c0.8,0,1.55-0.2,2.27-0.58
			c0.71-0.39,1.19-0.91,1.46-1.54l3.45,0.96c-0.58,1.2-1.5,2.18-2.77,2.95C251.32,373.56,249.8,373.94,248.04,373.94z
			 M252.12,364.46c-0.1-1.18-0.54-2.12-1.31-2.83c-0.77-0.71-1.71-1.07-2.81-1.07c-0.54,0-1.04,0.1-1.51,0.29
			c-0.47,0.19-0.89,0.46-1.25,0.79s-0.66,0.75-0.89,1.23c-0.23,0.48-0.36,1.01-0.4,1.59H252.12z"/>
		<path class="st3" d="M266.31,373.64v-21.3h4.14v21.3H266.31z"/>
		<path class="st3" d="M289.11,373.64h-4.02v-8.82c0-1.26-0.22-2.18-0.66-2.76c-0.44-0.58-1.05-0.87-1.83-0.87
			c-0.4,0-0.81,0.08-1.23,0.24c-0.42,0.16-0.82,0.39-1.19,0.67c-0.37,0.29-0.71,0.64-1,1.04c-0.3,0.4-0.52,0.84-0.66,1.32v9.18
			h-4.02v-15.72h3.63v2.91c0.58-1,1.42-1.78,2.52-2.34c1.1-0.56,2.34-0.84,3.72-0.84c0.98,0,1.78,0.18,2.4,0.54
			c0.62,0.36,1.1,0.83,1.44,1.41c0.34,0.58,0.57,1.24,0.71,1.98c0.13,0.74,0.19,1.49,0.19,2.25V373.64z"/>
		<path class="st3" d="M301.89,372.83c-0.54,0.24-1.2,0.48-1.98,0.72c-0.78,0.24-1.6,0.36-2.46,0.36c-0.56,0-1.08-0.07-1.58-0.21
			s-0.92-0.36-1.29-0.67c-0.37-0.31-0.67-0.71-0.88-1.2c-0.22-0.49-0.33-1.08-0.33-1.78v-9.03h-2.07v-3.09h2.07v-5.1h4.02v5.1h3.3
			v3.09h-3.3v7.68c0,0.56,0.14,0.96,0.43,1.19c0.29,0.23,0.65,0.34,1.07,0.34s0.83-0.07,1.23-0.21s0.72-0.26,0.96-0.36
			L301.89,372.83z"/>
		<path class="st3" d="M310.89,373.94c-1.26,0-2.4-0.21-3.42-0.64c-1.02-0.43-1.89-1.01-2.61-1.75s-1.28-1.6-1.67-2.58
			c-0.39-0.98-0.58-2.01-0.58-3.09c0-1.12,0.19-2.18,0.57-3.17c0.38-0.99,0.93-1.86,1.65-2.61s1.59-1.34,2.62-1.79
			c1.03-0.44,2.18-0.66,3.46-0.66s2.42,0.22,3.44,0.66c1.01,0.44,1.87,1.03,2.58,1.77c0.71,0.74,1.25,1.6,1.62,2.58
			c0.37,0.98,0.55,2,0.55,3.06c0,0.26,0,0.51-0.01,0.75c-0.01,0.24-0.04,0.44-0.08,0.6h-12.15c0.06,0.62,0.21,1.17,0.45,1.65
			c0.24,0.48,0.55,0.89,0.93,1.23c0.38,0.34,0.81,0.6,1.29,0.78c0.48,0.18,0.98,0.27,1.5,0.27c0.8,0,1.55-0.2,2.27-0.58
			c0.71-0.39,1.19-0.91,1.46-1.54l3.45,0.96c-0.58,1.2-1.5,2.18-2.77,2.95C314.17,373.56,312.65,373.94,310.89,373.94z
			 M314.97,364.46c-0.1-1.18-0.54-2.12-1.31-2.83s-1.71-1.07-2.8-1.07c-0.54,0-1.04,0.1-1.51,0.29c-0.47,0.19-0.89,0.46-1.25,0.79
			c-0.36,0.34-0.66,0.75-0.89,1.23c-0.23,0.48-0.36,1.01-0.4,1.59H314.97z"/>
		<path class="st3" d="M330.93,361.4c-1.22,0.02-2.31,0.25-3.27,0.71s-1.65,1.12-2.07,2.03v9.51h-4.02v-15.72h3.69v3.36
			c0.28-0.54,0.61-1.02,0.99-1.46c0.38-0.43,0.79-0.8,1.23-1.12c0.44-0.32,0.88-0.56,1.33-0.73s0.88-0.25,1.3-0.25
			c0.22,0,0.38,0,0.5,0s0.21,0.01,0.32,0.03V361.4z"/>
		<path class="st3" d="M337.41,373.64l-5.79-15.72h4.14l3.99,12.45l4.02-12.45h3.78l-5.79,15.72H337.41z"/>
		<path class="st3" d="M349.65,355.73v-3.99h4.02v3.99H349.65z M349.65,373.64v-15.72h4.02v15.72H349.65z"/>
		<path class="st3" d="M364.59,373.94c-1.26,0-2.4-0.21-3.42-0.64c-1.02-0.43-1.89-1.01-2.61-1.75c-0.72-0.74-1.27-1.6-1.67-2.58
			c-0.39-0.98-0.58-2.01-0.58-3.09c0-1.12,0.19-2.18,0.57-3.17c0.38-0.99,0.93-1.86,1.65-2.61c0.72-0.75,1.59-1.34,2.62-1.79
			c1.03-0.44,2.18-0.66,3.46-0.66c1.28,0,2.42,0.22,3.43,0.66c1.01,0.44,1.87,1.03,2.58,1.77c0.71,0.74,1.25,1.6,1.62,2.58
			c0.37,0.98,0.55,2,0.55,3.06c0,0.26,0,0.51-0.01,0.75c-0.01,0.24-0.04,0.44-0.08,0.6h-12.15c0.06,0.62,0.21,1.17,0.45,1.65
			c0.24,0.48,0.55,0.89,0.93,1.23c0.38,0.34,0.81,0.6,1.29,0.78c0.48,0.18,0.98,0.27,1.5,0.27c0.8,0,1.55-0.2,2.26-0.58
			c0.71-0.39,1.2-0.91,1.46-1.54l3.45,0.96c-0.58,1.2-1.5,2.18-2.78,2.95C367.87,373.56,366.35,373.94,364.59,373.94z
			 M368.67,364.46c-0.1-1.18-0.54-2.12-1.3-2.83c-0.77-0.71-1.71-1.07-2.81-1.07c-0.54,0-1.04,0.1-1.51,0.29
			c-0.47,0.19-0.88,0.46-1.25,0.79c-0.36,0.34-0.66,0.75-0.88,1.23c-0.23,0.48-0.37,1.01-0.41,1.59H368.67z"/>
		<path class="st3" d="M389.88,373.64h-4.02v-8.82c0-1.26-0.22-2.18-0.66-2.76c-0.44-0.58-1.05-0.87-1.83-0.87
			c-0.4,0-0.81,0.08-1.23,0.24s-0.82,0.39-1.18,0.67c-0.37,0.29-0.71,0.64-1.01,1.04c-0.3,0.4-0.52,0.84-0.66,1.32v9.18h-4.02
			v-15.72h3.63v2.91c0.58-1,1.42-1.78,2.52-2.34c1.1-0.56,2.34-0.84,3.72-0.84c0.98,0,1.78,0.18,2.4,0.54
			c0.62,0.36,1.1,0.83,1.44,1.41s0.58,1.24,0.71,1.98c0.13,0.74,0.2,1.49,0.2,2.25V373.64z"/>
		<path class="st3" d="M400.68,373.94c-1.26,0-2.4-0.21-3.42-0.64c-1.02-0.43-1.89-1.01-2.61-1.75s-1.28-1.6-1.67-2.58
			c-0.39-0.98-0.58-2.01-0.58-3.09c0-1.12,0.19-2.18,0.57-3.17c0.38-0.99,0.93-1.86,1.65-2.61s1.59-1.34,2.62-1.79
			c1.03-0.44,2.18-0.66,3.46-0.66s2.42,0.22,3.44,0.66c1.01,0.44,1.87,1.03,2.58,1.77c0.71,0.74,1.25,1.6,1.62,2.58
			c0.37,0.98,0.55,2,0.55,3.06c0,0.26,0,0.51-0.01,0.75c-0.01,0.24-0.04,0.44-0.08,0.6h-12.15c0.06,0.62,0.21,1.17,0.45,1.65
			c0.24,0.48,0.55,0.89,0.93,1.23c0.38,0.34,0.81,0.6,1.29,0.78c0.48,0.18,0.98,0.27,1.5,0.27c0.8,0,1.55-0.2,2.27-0.58
			c0.71-0.39,1.19-0.91,1.46-1.54l3.45,0.96c-0.58,1.2-1.5,2.18-2.77,2.95C403.96,373.56,402.44,373.94,400.68,373.94z
			 M404.76,364.46c-0.1-1.18-0.54-2.12-1.31-2.83s-1.71-1.07-2.8-1.07c-0.54,0-1.04,0.1-1.51,0.29c-0.47,0.19-0.89,0.46-1.25,0.79
			c-0.36,0.34-0.66,0.75-0.89,1.23c-0.23,0.48-0.36,1.01-0.4,1.59H404.76z"/>
		<path class="st3" d="M425.97,373.64h-4.02v-8.82c0-1.26-0.22-2.18-0.66-2.76c-0.44-0.58-1.05-0.87-1.83-0.87
			c-0.4,0-0.81,0.08-1.23,0.24s-0.82,0.39-1.18,0.67c-0.37,0.29-0.71,0.64-1.01,1.04c-0.3,0.4-0.52,0.84-0.66,1.32v9.18h-4.02
			v-15.72h3.63v2.91c0.58-1,1.42-1.78,2.52-2.34c1.1-0.56,2.34-0.84,3.72-0.84c0.98,0,1.78,0.18,2.4,0.54
			c0.62,0.36,1.1,0.83,1.44,1.41s0.58,1.24,0.71,1.98c0.13,0.74,0.2,1.49,0.2,2.25V373.64z"/>
		<path class="st3" d="M443.97,373.94c-1.26,0-2.4-0.21-3.42-0.64c-1.02-0.43-1.89-1.01-2.61-1.75c-0.72-0.74-1.27-1.6-1.67-2.58
			c-0.39-0.98-0.58-2.01-0.58-3.09c0-1.12,0.19-2.18,0.57-3.17c0.38-0.99,0.93-1.86,1.65-2.61c0.72-0.75,1.59-1.34,2.62-1.79
			c1.03-0.44,2.18-0.66,3.46-0.66c1.28,0,2.42,0.22,3.43,0.66c1.01,0.44,1.87,1.03,2.58,1.77c0.71,0.74,1.25,1.6,1.62,2.58
			c0.37,0.98,0.55,2,0.55,3.06c0,0.26,0,0.51-0.01,0.75c-0.01,0.24-0.04,0.44-0.08,0.6h-12.15c0.06,0.62,0.21,1.17,0.45,1.65
			c0.24,0.48,0.55,0.89,0.93,1.23c0.38,0.34,0.81,0.6,1.29,0.78c0.48,0.18,0.98,0.27,1.5,0.27c0.8,0,1.55-0.2,2.26-0.58
			c0.71-0.39,1.2-0.91,1.46-1.54l3.45,0.96c-0.58,1.2-1.5,2.18-2.78,2.95C447.24,373.56,445.73,373.94,443.97,373.94z
			 M448.05,364.46c-0.1-1.18-0.54-2.12-1.3-2.83c-0.77-0.71-1.71-1.07-2.81-1.07c-0.54,0-1.04,0.1-1.51,0.29
			c-0.47,0.19-0.88,0.46-1.25,0.79c-0.36,0.34-0.66,0.75-0.88,1.23c-0.23,0.48-0.37,1.01-0.41,1.59H448.05z"/>
		<path class="st3" d="M469.26,373.64h-4.02v-8.82c0-1.26-0.22-2.18-0.66-2.76s-1.05-0.87-1.83-0.87c-0.4,0-0.81,0.08-1.23,0.24
			s-0.82,0.39-1.19,0.67c-0.37,0.29-0.71,0.64-1,1.04c-0.3,0.4-0.52,0.84-0.66,1.32v9.18h-4.02v-15.72h3.63v2.91
			c0.58-1,1.42-1.78,2.52-2.34c1.1-0.56,2.34-0.84,3.72-0.84c0.98,0,1.78,0.18,2.4,0.54c0.62,0.36,1.1,0.83,1.44,1.41
			c0.34,0.58,0.57,1.24,0.71,1.98c0.13,0.74,0.2,1.49,0.2,2.25V373.64z"/>
		<path class="st3" d="M48.53,387.74h4.02v16.86c0,0.58,0.14,1.03,0.42,1.35c0.28,0.32,0.68,0.48,1.2,0.48
			c0.24,0,0.5-0.04,0.79-0.12s0.56-0.18,0.83-0.3l0.54,3.06c-0.54,0.26-1.17,0.46-1.89,0.6c-0.72,0.14-1.37,0.21-1.95,0.21
			c-1.26,0-2.23-0.33-2.92-1s-1.04-1.62-1.04-2.87V387.74z"/>
		<path class="st3" d="M65.33,409.94c-1.28,0-2.43-0.22-3.45-0.66c-1.02-0.44-1.89-1.03-2.6-1.78s-1.26-1.62-1.63-2.6
			c-0.38-0.98-0.57-2.01-0.57-3.09c0-1.1,0.19-2.14,0.57-3.12c0.38-0.98,0.92-1.84,1.63-2.59s1.58-1.34,2.6-1.79
			c1.02-0.44,2.17-0.66,3.45-0.66s2.42,0.22,3.44,0.66c1.01,0.44,1.87,1.04,2.58,1.79c0.71,0.75,1.25,1.62,1.64,2.59
			c0.38,0.98,0.57,2.02,0.57,3.12c0,1.08-0.19,2.11-0.57,3.09c-0.38,0.98-0.92,1.85-1.62,2.6c-0.7,0.75-1.56,1.34-2.58,1.78
			C67.76,409.72,66.61,409.94,65.33,409.94z M61.22,401.81c0,0.7,0.1,1.33,0.31,1.91c0.21,0.57,0.5,1.06,0.87,1.48
			c0.37,0.42,0.8,0.75,1.31,0.98c0.5,0.23,1.04,0.34,1.62,0.34s1.12-0.11,1.62-0.34c0.5-0.23,0.93-0.55,1.31-0.98
			c0.37-0.42,0.66-0.92,0.87-1.5c0.21-0.58,0.32-1.22,0.32-1.92c0-0.68-0.1-1.31-0.32-1.89c-0.21-0.58-0.5-1.08-0.87-1.5
			c-0.37-0.42-0.81-0.75-1.31-0.97c-0.5-0.23-1.04-0.35-1.62-0.35s-1.12,0.12-1.62,0.36c-0.5,0.24-0.94,0.57-1.31,0.99
			c-0.37,0.42-0.66,0.92-0.87,1.5S61.22,401.13,61.22,401.81z"/>
		<path class="st3" d="M82.19,409.94c-1.32,0-2.61-0.21-3.87-0.63c-1.26-0.42-2.34-1.02-3.24-1.8l1.5-2.52
			c0.96,0.68,1.89,1.2,2.8,1.54c0.91,0.35,1.81,0.53,2.72,0.53c0.8,0,1.43-0.15,1.89-0.45s0.69-0.73,0.69-1.29
			c0-0.56-0.27-0.97-0.81-1.23s-1.42-0.56-2.64-0.9c-1.02-0.28-1.89-0.55-2.61-0.81c-0.72-0.26-1.3-0.56-1.74-0.88
			c-0.44-0.33-0.76-0.71-0.96-1.14c-0.2-0.43-0.3-0.95-0.3-1.54c0-0.8,0.15-1.52,0.46-2.16c0.31-0.64,0.74-1.18,1.31-1.63
			c0.56-0.45,1.21-0.79,1.96-1.04s1.56-0.36,2.44-0.36c1.18,0,2.28,0.17,3.31,0.51c1.03,0.34,1.98,0.89,2.83,1.65l-1.62,2.43
			c-0.8-0.6-1.58-1.04-2.33-1.32s-1.5-0.42-2.23-0.42c-0.68,0-1.25,0.14-1.71,0.42c-0.46,0.28-0.69,0.73-0.69,1.35
			c0,0.28,0.05,0.51,0.17,0.69c0.11,0.18,0.28,0.34,0.52,0.48c0.24,0.14,0.55,0.28,0.94,0.41c0.39,0.13,0.87,0.27,1.46,0.41
			c1.08,0.28,2,0.56,2.77,0.84c0.77,0.28,1.4,0.6,1.89,0.96c0.49,0.36,0.85,0.78,1.08,1.25c0.23,0.47,0.34,1.04,0.34,1.7
			c0,1.54-0.57,2.75-1.71,3.64C85.7,409.5,84.15,409.94,82.19,409.94z"/>
		<path class="st3" d="M98.75,409.64v-21.3h9.03c0.98,0,1.88,0.21,2.71,0.62s1.54,0.95,2.15,1.62c0.6,0.67,1.07,1.43,1.41,2.28
			c0.34,0.85,0.51,1.71,0.51,2.57c0,0.9-0.16,1.77-0.48,2.62c-0.32,0.85-0.77,1.6-1.35,2.26c-0.58,0.66-1.28,1.19-2.1,1.59
			c-0.82,0.4-1.72,0.6-2.7,0.6h-5.04v7.14H98.75z M102.89,398.87h4.8c0.76,0,1.4-0.31,1.9-0.93c0.51-0.62,0.77-1.46,0.77-2.52
			c0-0.54-0.08-1.03-0.24-1.46s-0.37-0.79-0.63-1.09c-0.26-0.3-0.57-0.53-0.92-0.68c-0.35-0.15-0.71-0.22-1.06-0.22h-4.62V398.87z"
			/>
		<path class="st3" d="M126.41,397.4c-1.22,0.02-2.31,0.25-3.27,0.71s-1.65,1.12-2.07,2.03v9.51h-4.02v-15.72h3.69v3.36
			c0.28-0.54,0.61-1.02,0.99-1.46c0.38-0.43,0.79-0.8,1.23-1.12c0.44-0.32,0.88-0.56,1.33-0.73c0.45-0.17,0.88-0.25,1.3-0.25
			c0.22,0,0.38,0,0.5,0c0.11,0,0.21,0.01,0.31,0.03V397.4z"/>
		<path class="st3" d="M135.14,409.94c-1.28,0-2.43-0.22-3.45-0.66c-1.02-0.44-1.89-1.03-2.6-1.78s-1.26-1.62-1.63-2.6
			c-0.38-0.98-0.57-2.01-0.57-3.09c0-1.1,0.19-2.14,0.57-3.12c0.38-0.98,0.92-1.84,1.63-2.59s1.58-1.34,2.6-1.79
			c1.02-0.44,2.17-0.66,3.45-0.66s2.42,0.22,3.44,0.66c1.01,0.44,1.87,1.04,2.58,1.79c0.71,0.75,1.25,1.62,1.64,2.59
			c0.38,0.98,0.57,2.02,0.57,3.12c0,1.08-0.19,2.11-0.57,3.09c-0.38,0.98-0.92,1.85-1.62,2.6c-0.7,0.75-1.56,1.34-2.58,1.78
			C137.57,409.72,136.42,409.94,135.14,409.94z M131.03,401.81c0,0.7,0.1,1.33,0.31,1.91c0.21,0.57,0.5,1.06,0.87,1.48
			c0.37,0.42,0.8,0.75,1.31,0.98c0.5,0.23,1.04,0.34,1.62,0.34s1.12-0.11,1.62-0.34c0.5-0.23,0.93-0.55,1.31-0.98
			c0.37-0.42,0.66-0.92,0.87-1.5c0.21-0.58,0.32-1.22,0.32-1.92c0-0.68-0.1-1.31-0.32-1.89c-0.21-0.58-0.5-1.08-0.87-1.5
			c-0.37-0.42-0.81-0.75-1.31-0.97c-0.5-0.23-1.04-0.35-1.62-0.35s-1.12,0.12-1.62,0.36c-0.5,0.24-0.94,0.57-1.31,0.99
			c-0.37,0.42-0.66,0.92-0.87,1.5S131.03,401.13,131.03,401.81z"/>
		<path class="st3" d="M145.07,401.78c0-1.1,0.19-2.14,0.57-3.12c0.38-0.98,0.93-1.84,1.65-2.58c0.72-0.74,1.59-1.33,2.61-1.77
			c1.02-0.44,2.17-0.66,3.45-0.66c1.72,0,3.18,0.37,4.4,1.11c1.21,0.74,2.11,1.71,2.71,2.91l-3.93,1.2
			c-0.34-0.58-0.79-1.03-1.35-1.34c-0.56-0.31-1.18-0.46-1.86-0.46c-0.58,0-1.12,0.12-1.62,0.35c-0.5,0.23-0.94,0.55-1.31,0.96
			c-0.37,0.41-0.66,0.91-0.87,1.48c-0.21,0.58-0.31,1.22-0.31,1.92c0,0.7,0.11,1.34,0.33,1.92c0.22,0.58,0.51,1.08,0.88,1.5
			c0.37,0.42,0.81,0.75,1.31,0.98c0.5,0.23,1.03,0.34,1.59,0.34c0.72,0,1.38-0.18,2-0.54c0.61-0.36,1.04-0.8,1.27-1.32l3.93,1.2
			c-0.54,1.2-1.43,2.18-2.67,2.94c-1.24,0.76-2.73,1.14-4.47,1.14c-1.28,0-2.43-0.22-3.45-0.66c-1.02-0.44-1.89-1.03-2.61-1.78
			c-0.72-0.75-1.27-1.62-1.67-2.61C145.26,403.9,145.07,402.86,145.07,401.78z"/>
		<path class="st3" d="M170.12,409.94c-1.26,0-2.4-0.21-3.42-0.64s-1.89-1.01-2.61-1.75c-0.72-0.74-1.27-1.6-1.67-2.58
			c-0.39-0.98-0.58-2.01-0.58-3.09c0-1.12,0.19-2.18,0.57-3.17c0.38-0.99,0.93-1.86,1.65-2.61c0.72-0.75,1.59-1.34,2.62-1.79
			c1.03-0.44,2.18-0.66,3.46-0.66c1.28,0,2.42,0.22,3.44,0.66c1.01,0.44,1.87,1.03,2.58,1.77c0.71,0.74,1.25,1.6,1.62,2.58
			c0.37,0.98,0.55,2,0.55,3.06c0,0.26,0,0.51-0.01,0.75c-0.01,0.24-0.04,0.44-0.08,0.6H166.1c0.06,0.62,0.21,1.17,0.45,1.65
			c0.24,0.48,0.55,0.89,0.93,1.23c0.38,0.34,0.81,0.6,1.29,0.78s0.98,0.27,1.5,0.27c0.8,0,1.55-0.2,2.27-0.58
			c0.71-0.39,1.19-0.91,1.46-1.54l3.45,0.96c-0.58,1.2-1.5,2.18-2.77,2.95C173.39,409.56,171.88,409.94,170.12,409.94z
			 M174.2,400.46c-0.1-1.18-0.54-2.12-1.31-2.83c-0.77-0.71-1.71-1.07-2.81-1.07c-0.54,0-1.04,0.1-1.51,0.29
			c-0.47,0.19-0.89,0.46-1.25,0.79s-0.66,0.75-0.89,1.23c-0.23,0.48-0.36,1.01-0.4,1.59H174.2z"/>
		<path class="st3" d="M186.74,409.94c-1.32,0-2.61-0.21-3.87-0.63c-1.26-0.42-2.34-1.02-3.24-1.8l1.5-2.52
			c0.96,0.68,1.89,1.2,2.8,1.54c0.91,0.35,1.81,0.53,2.72,0.53c0.8,0,1.43-0.15,1.89-0.45s0.69-0.73,0.69-1.29
			c0-0.56-0.27-0.97-0.81-1.23s-1.42-0.56-2.64-0.9c-1.02-0.28-1.89-0.55-2.61-0.81c-0.72-0.26-1.3-0.56-1.74-0.88
			c-0.44-0.33-0.76-0.71-0.96-1.14c-0.2-0.43-0.3-0.95-0.3-1.54c0-0.8,0.15-1.52,0.46-2.16c0.31-0.64,0.74-1.18,1.31-1.63
			c0.56-0.45,1.21-0.79,1.96-1.04s1.56-0.36,2.44-0.36c1.18,0,2.28,0.17,3.31,0.51c1.03,0.34,1.98,0.89,2.83,1.65l-1.62,2.43
			c-0.8-0.6-1.58-1.04-2.33-1.32s-1.5-0.42-2.23-0.42c-0.68,0-1.25,0.14-1.71,0.42c-0.46,0.28-0.69,0.73-0.69,1.35
			c0,0.28,0.05,0.51,0.17,0.69c0.11,0.18,0.28,0.34,0.52,0.48c0.24,0.14,0.55,0.28,0.94,0.41c0.39,0.13,0.87,0.27,1.46,0.41
			c1.08,0.28,2,0.56,2.77,0.84c0.77,0.28,1.4,0.6,1.89,0.96c0.49,0.36,0.85,0.78,1.08,1.25c0.23,0.47,0.34,1.04,0.34,1.7
			c0,1.54-0.57,2.75-1.71,3.64C190.25,409.5,188.7,409.94,186.74,409.94z"/>
		<path class="st3" d="M202.97,409.94c-1.28,0-2.43-0.22-3.45-0.66c-1.02-0.44-1.89-1.03-2.6-1.78s-1.26-1.62-1.63-2.6
			c-0.38-0.98-0.57-2.01-0.57-3.09c0-1.1,0.19-2.14,0.57-3.12c0.38-0.98,0.92-1.84,1.63-2.59s1.58-1.34,2.6-1.79
			c1.02-0.44,2.17-0.66,3.45-0.66s2.42,0.22,3.44,0.66c1.01,0.44,1.87,1.04,2.58,1.79c0.71,0.75,1.25,1.62,1.64,2.59
			c0.38,0.98,0.57,2.02,0.57,3.12c0,1.08-0.19,2.11-0.57,3.09c-0.38,0.98-0.92,1.85-1.62,2.6c-0.7,0.75-1.56,1.34-2.58,1.78
			C205.4,409.72,204.25,409.94,202.97,409.94z M198.86,401.81c0,0.7,0.1,1.33,0.31,1.91c0.21,0.57,0.5,1.06,0.87,1.48
			c0.37,0.42,0.8,0.75,1.31,0.98c0.5,0.23,1.04,0.34,1.62,0.34s1.12-0.11,1.62-0.34c0.5-0.23,0.93-0.55,1.31-0.98
			c0.37-0.42,0.66-0.92,0.87-1.5c0.21-0.58,0.32-1.22,0.32-1.92c0-0.68-0.1-1.31-0.32-1.89c-0.21-0.58-0.5-1.08-0.87-1.5
			c-0.37-0.42-0.81-0.75-1.31-0.97c-0.5-0.23-1.04-0.35-1.62-0.35s-1.12,0.12-1.62,0.36c-0.5,0.24-0.94,0.57-1.31,0.99
			c-0.37,0.42-0.66,0.92-0.87,1.5S198.86,401.13,198.86,401.81z"/>
		<path class="st3" d="M219.83,409.94c-1.32,0-2.61-0.21-3.87-0.63c-1.26-0.42-2.34-1.02-3.24-1.8l1.5-2.52
			c0.96,0.68,1.89,1.2,2.8,1.54c0.91,0.35,1.81,0.53,2.72,0.53c0.8,0,1.43-0.15,1.89-0.45s0.69-0.73,0.69-1.29
			c0-0.56-0.27-0.97-0.81-1.23s-1.42-0.56-2.64-0.9c-1.02-0.28-1.89-0.55-2.61-0.81c-0.72-0.26-1.3-0.56-1.74-0.88
			c-0.44-0.33-0.76-0.71-0.96-1.14c-0.2-0.43-0.3-0.95-0.3-1.54c0-0.8,0.15-1.52,0.46-2.16c0.31-0.64,0.74-1.18,1.31-1.63
			c0.56-0.45,1.21-0.79,1.96-1.04s1.56-0.36,2.44-0.36c1.18,0,2.28,0.17,3.31,0.51c1.03,0.34,1.98,0.89,2.83,1.65l-1.62,2.43
			c-0.8-0.6-1.58-1.04-2.33-1.32s-1.5-0.42-2.23-0.42c-0.68,0-1.25,0.14-1.71,0.42c-0.46,0.28-0.69,0.73-0.69,1.35
			c0,0.28,0.05,0.51,0.17,0.69c0.11,0.18,0.28,0.34,0.52,0.48c0.24,0.14,0.55,0.28,0.94,0.41c0.39,0.13,0.87,0.27,1.46,0.41
			c1.08,0.28,2,0.56,2.77,0.84c0.77,0.28,1.4,0.6,1.89,0.96c0.49,0.36,0.85,0.78,1.08,1.25c0.23,0.47,0.34,1.04,0.34,1.7
			c0,1.54-0.57,2.75-1.71,3.64C223.34,409.5,221.79,409.94,219.83,409.94z"/>
		<path class="st3" d="M242.51,409.94c-1.08,0-2.08-0.21-3-0.63s-1.71-1-2.37-1.74c-0.66-0.74-1.18-1.6-1.55-2.59
			s-0.55-2.05-0.55-3.2c0-1.14,0.17-2.2,0.52-3.18c0.35-0.98,0.83-1.84,1.46-2.58c0.62-0.74,1.36-1.32,2.22-1.74s1.8-0.63,2.82-0.63
			c1.16,0,2.21,0.28,3.13,0.84c0.93,0.56,1.65,1.29,2.18,2.19v-8.94h4.02v17.28c0,0.42,0.07,0.72,0.21,0.9
			c0.14,0.18,0.38,0.28,0.72,0.3v3.42c-0.7,0.14-1.27,0.21-1.71,0.21c-0.72,0-1.31-0.18-1.77-0.54c-0.46-0.36-0.72-0.83-0.78-1.41
			l-0.09-0.99c-0.58,1-1.36,1.76-2.35,2.27C244.62,409.69,243.59,409.94,242.51,409.94z M243.56,406.52c0.38,0,0.77-0.06,1.17-0.2
			c0.4-0.13,0.77-0.31,1.11-0.55c0.34-0.24,0.65-0.52,0.92-0.84c0.27-0.32,0.48-0.67,0.62-1.05v-3.75
			c-0.16-0.44-0.39-0.84-0.68-1.21c-0.29-0.37-0.62-0.69-0.99-0.96c-0.37-0.27-0.76-0.49-1.17-0.65c-0.41-0.16-0.82-0.24-1.22-0.24
			c-0.6,0-1.15,0.13-1.67,0.39c-0.51,0.26-0.94,0.61-1.3,1.06c-0.36,0.45-0.64,0.97-0.84,1.54c-0.2,0.58-0.3,1.18-0.3,1.8
			c0,0.66,0.11,1.27,0.33,1.83c0.22,0.56,0.52,1.05,0.9,1.47c0.38,0.42,0.83,0.75,1.36,0.99
			C242.33,406.4,242.92,406.52,243.56,406.52z"/>
		<path class="st3" d="M262.64,409.94c-1.26,0-2.4-0.21-3.42-0.64c-1.02-0.43-1.89-1.01-2.61-1.75c-0.72-0.74-1.27-1.6-1.67-2.58
			c-0.39-0.98-0.58-2.01-0.58-3.09c0-1.12,0.19-2.18,0.57-3.17c0.38-0.99,0.93-1.86,1.65-2.61c0.72-0.75,1.59-1.34,2.62-1.79
			c1.03-0.44,2.18-0.66,3.46-0.66s2.42,0.22,3.44,0.66c1.01,0.44,1.87,1.03,2.58,1.77c0.71,0.74,1.25,1.6,1.62,2.58
			c0.37,0.98,0.55,2,0.55,3.06c0,0.26,0,0.51-0.01,0.75c-0.01,0.24-0.04,0.44-0.08,0.6h-12.15c0.06,0.62,0.21,1.17,0.45,1.65
			c0.24,0.48,0.55,0.89,0.93,1.23c0.38,0.34,0.81,0.6,1.29,0.78c0.48,0.18,0.98,0.27,1.5,0.27c0.8,0,1.55-0.2,2.27-0.58
			c0.71-0.39,1.19-0.91,1.46-1.54l3.45,0.96c-0.58,1.2-1.5,2.18-2.77,2.95C265.91,409.56,264.4,409.94,262.64,409.94z
			 M266.72,400.46c-0.1-1.18-0.54-2.12-1.31-2.83s-1.71-1.07-2.8-1.07c-0.54,0-1.04,0.1-1.51,0.29c-0.47,0.19-0.89,0.46-1.25,0.79
			c-0.36,0.34-0.66,0.75-0.89,1.23c-0.23,0.48-0.36,1.01-0.4,1.59H266.72z"/>
		<path class="st3" d="M279.62,398.84c0-1.3,0.23-2.58,0.7-3.86c0.47-1.27,1.16-2.4,2.06-3.4c0.9-1,2-1.81,3.3-2.43
			c1.3-0.62,2.78-0.93,4.44-0.93c1.96,0,3.65,0.43,5.08,1.29c1.43,0.86,2.49,1.98,3.19,3.36l-3.18,2.19
			c-0.28-0.6-0.62-1.1-1.02-1.51c-0.4-0.41-0.83-0.74-1.29-0.98c-0.46-0.24-0.94-0.41-1.44-0.52s-0.99-0.17-1.47-0.17
			c-1.04,0-1.95,0.21-2.71,0.63c-0.77,0.42-1.41,0.96-1.92,1.63c-0.51,0.67-0.89,1.43-1.15,2.28c-0.26,0.85-0.39,1.7-0.39,2.54
			c0,0.94,0.15,1.84,0.45,2.71s0.72,1.63,1.28,2.29c0.55,0.66,1.21,1.19,1.98,1.59c0.77,0.4,1.62,0.6,2.54,0.6
			c0.48,0,0.98-0.06,1.5-0.18c0.52-0.12,1.01-0.31,1.49-0.57c0.47-0.26,0.9-0.59,1.3-1c0.4-0.41,0.72-0.9,0.96-1.48l3.39,1.95
			c-0.34,0.8-0.82,1.5-1.45,2.11c-0.63,0.61-1.34,1.12-2.13,1.54s-1.63,0.74-2.53,0.96c-0.9,0.22-1.78,0.33-2.64,0.33
			c-1.52,0-2.91-0.32-4.17-0.96c-1.26-0.64-2.34-1.47-3.25-2.5c-0.91-1.03-1.62-2.2-2.13-3.51
			C279.87,401.54,279.62,400.2,279.62,398.84z"/>
		<path class="st3" d="M308.36,409.94c-1.28,0-2.43-0.22-3.45-0.66c-1.02-0.44-1.88-1.03-2.59-1.78s-1.26-1.62-1.63-2.6
			c-0.38-0.98-0.57-2.01-0.57-3.09c0-1.1,0.19-2.14,0.57-3.12c0.38-0.98,0.92-1.84,1.63-2.59s1.58-1.34,2.59-1.79
			c1.02-0.44,2.17-0.66,3.45-0.66c1.28,0,2.42,0.22,3.43,0.66c1.01,0.44,1.87,1.04,2.58,1.79s1.25,1.62,1.64,2.59
			c0.38,0.98,0.57,2.02,0.57,3.12c0,1.08-0.19,2.11-0.57,3.09c-0.38,0.98-0.92,1.85-1.62,2.6c-0.7,0.75-1.56,1.34-2.58,1.78
			C310.79,409.72,309.64,409.94,308.36,409.94z M304.25,401.81c0,0.7,0.11,1.33,0.32,1.91c0.21,0.57,0.5,1.06,0.87,1.48
			c0.37,0.42,0.8,0.75,1.3,0.98c0.5,0.23,1.04,0.34,1.62,0.34s1.12-0.11,1.62-0.34c0.5-0.23,0.93-0.55,1.3-0.98
			c0.37-0.42,0.66-0.92,0.87-1.5c0.21-0.58,0.32-1.22,0.32-1.92c0-0.68-0.11-1.31-0.32-1.89s-0.5-1.08-0.87-1.5s-0.81-0.75-1.3-0.97
			c-0.5-0.23-1.04-0.35-1.62-0.35s-1.12,0.12-1.62,0.36s-0.94,0.57-1.3,0.99c-0.37,0.42-0.66,0.92-0.87,1.5
			S304.25,401.13,304.25,401.81z"/>
		<path class="st3" d="M333.89,409.64h-4.02v-8.82c0-1.26-0.22-2.18-0.66-2.76c-0.44-0.58-1.05-0.87-1.83-0.87
			c-0.4,0-0.81,0.08-1.23,0.24c-0.42,0.16-0.82,0.39-1.19,0.67c-0.37,0.29-0.71,0.64-1,1.04c-0.3,0.4-0.52,0.84-0.66,1.32v9.18
			h-4.02v-15.72h3.63v2.91c0.58-1,1.42-1.78,2.52-2.34c1.1-0.56,2.34-0.84,3.72-0.84c0.98,0,1.78,0.18,2.4,0.54
			c0.62,0.36,1.1,0.83,1.44,1.41c0.34,0.58,0.57,1.24,0.71,1.98c0.13,0.74,0.19,1.49,0.19,2.25V409.64z"/>
		<path class="st3" d="M346.67,408.83c-0.54,0.24-1.2,0.48-1.98,0.72c-0.78,0.24-1.6,0.36-2.46,0.36c-0.56,0-1.09-0.07-1.58-0.21
			c-0.49-0.14-0.92-0.36-1.29-0.67c-0.37-0.31-0.67-0.71-0.88-1.2c-0.22-0.49-0.33-1.08-0.33-1.78v-9.03h-2.07v-3.09h2.07v-5.1h4.02
			v5.1h3.3v3.09h-3.3v7.68c0,0.56,0.15,0.96,0.44,1.19c0.29,0.23,0.64,0.34,1.06,0.34s0.83-0.07,1.23-0.21
			c0.4-0.14,0.72-0.26,0.96-0.36L346.67,408.83z"/>
		<path class="st3" d="M358.13,397.4c-1.22,0.02-2.31,0.25-3.27,0.71s-1.65,1.12-2.07,2.03v9.51h-4.02v-15.72h3.69v3.36
			c0.28-0.54,0.61-1.02,0.99-1.46c0.38-0.43,0.79-0.8,1.23-1.12c0.44-0.32,0.88-0.56,1.33-0.73s0.88-0.25,1.3-0.25
			c0.22,0,0.38,0,0.5,0s0.21,0.01,0.32,0.03V397.4z"/>
		<path class="st3" d="M364.46,409.94c-0.76,0-1.47-0.12-2.13-0.38c-0.66-0.25-1.23-0.6-1.71-1.05c-0.48-0.45-0.85-0.97-1.12-1.58
			c-0.27-0.6-0.4-1.26-0.4-1.98c0-0.74,0.17-1.43,0.5-2.06s0.79-1.16,1.38-1.6c0.59-0.44,1.29-0.79,2.12-1.04
			c0.82-0.25,1.72-0.38,2.7-0.38c0.7,0,1.38,0.06,2.06,0.18c0.67,0.12,1.26,0.29,1.78,0.51v-0.9c0-1.04-0.29-1.84-0.88-2.4
			c-0.59-0.56-1.46-0.84-2.62-0.84c-0.84,0-1.66,0.15-2.46,0.45s-1.62,0.74-2.46,1.32l-1.23-2.55c2.02-1.34,4.2-2.01,6.54-2.01
			c2.26,0,4.01,0.56,5.26,1.67c1.25,1.11,1.88,2.71,1.88,4.82v4.89c0,0.42,0.08,0.72,0.22,0.9c0.15,0.18,0.4,0.28,0.74,0.3v3.42
			c-0.68,0.14-1.27,0.21-1.77,0.21c-0.76,0-1.35-0.17-1.76-0.51s-0.67-0.79-0.76-1.35l-0.09-0.87c-0.7,0.92-1.55,1.62-2.55,2.1
			C366.67,409.7,365.6,409.94,364.46,409.94z M365.6,407c0.68,0,1.32-0.12,1.93-0.36s1.08-0.56,1.43-0.96
			c0.44-0.34,0.66-0.72,0.66-1.14v-1.8c-0.48-0.18-1-0.32-1.56-0.43c-0.56-0.11-1.1-0.17-1.62-0.17c-1.04,0-1.89,0.24-2.55,0.71
			s-0.99,1.06-0.99,1.79c0,0.68,0.26,1.25,0.78,1.69C364.2,406.78,364.83,407,365.6,407z"/>
		<path class="st3" d="M386.69,408.83c-0.54,0.24-1.2,0.48-1.98,0.72c-0.78,0.24-1.6,0.36-2.46,0.36c-0.56,0-1.09-0.07-1.58-0.21
			c-0.49-0.14-0.92-0.36-1.29-0.67c-0.37-0.31-0.67-0.71-0.88-1.2c-0.22-0.49-0.33-1.08-0.33-1.78v-9.03h-2.07v-3.09h2.07v-5.1h4.02
			v5.1h3.3v3.09h-3.3v7.68c0,0.56,0.15,0.96,0.44,1.19c0.29,0.23,0.64,0.34,1.06,0.34s0.83-0.07,1.23-0.21
			c0.4-0.14,0.72-0.26,0.96-0.36L386.69,408.83z"/>
		<path class="st3" d="M393.08,409.94c-0.76,0-1.47-0.12-2.13-0.38s-1.23-0.6-1.71-1.05c-0.48-0.45-0.86-0.97-1.12-1.58
			c-0.27-0.6-0.41-1.26-0.41-1.98c0-0.74,0.17-1.43,0.5-2.06s0.79-1.16,1.38-1.6c0.59-0.44,1.29-0.79,2.12-1.04s1.72-0.38,2.7-0.38
			c0.7,0,1.38,0.06,2.05,0.18s1.26,0.29,1.79,0.51v-0.9c0-1.04-0.29-1.84-0.88-2.4c-0.59-0.56-1.47-0.84-2.62-0.84
			c-0.84,0-1.66,0.15-2.46,0.45c-0.8,0.3-1.62,0.74-2.46,1.32l-1.23-2.55c2.02-1.34,4.2-2.01,6.54-2.01c2.26,0,4.01,0.56,5.26,1.67
			c1.25,1.11,1.88,2.71,1.88,4.82v4.89c0,0.42,0.08,0.72,0.23,0.9c0.15,0.18,0.39,0.28,0.73,0.3v3.42
			c-0.68,0.14-1.27,0.21-1.77,0.21c-0.76,0-1.35-0.17-1.75-0.51c-0.41-0.34-0.67-0.79-0.76-1.35l-0.09-0.87
			c-0.7,0.92-1.55,1.62-2.55,2.1C395.29,409.7,394.21,409.94,393.08,409.94z M394.21,407c0.68,0,1.33-0.12,1.94-0.36
			c0.61-0.24,1.08-0.56,1.42-0.96c0.44-0.34,0.66-0.72,0.66-1.14v-1.8c-0.48-0.18-1-0.32-1.56-0.43c-0.56-0.11-1.1-0.17-1.62-0.17
			c-1.04,0-1.89,0.24-2.55,0.71c-0.66,0.47-0.99,1.06-0.99,1.79c0,0.68,0.26,1.25,0.78,1.69C392.82,406.78,393.46,407,394.21,407z"
			/>
		<path class="st3" d="M405.01,401.78c0-1.1,0.19-2.14,0.57-3.12c0.38-0.98,0.93-1.84,1.65-2.58c0.72-0.74,1.59-1.33,2.61-1.77
			c1.02-0.44,2.17-0.66,3.45-0.66c1.72,0,3.18,0.37,4.4,1.11c1.21,0.74,2.11,1.71,2.71,2.91l-3.93,1.2
			c-0.34-0.58-0.79-1.03-1.35-1.34c-0.56-0.31-1.18-0.46-1.86-0.46c-0.58,0-1.12,0.12-1.62,0.35c-0.5,0.23-0.94,0.55-1.31,0.96
			s-0.66,0.91-0.87,1.48c-0.21,0.58-0.31,1.22-0.31,1.92c0,0.7,0.11,1.34,0.33,1.92c0.22,0.58,0.51,1.08,0.88,1.5
			c0.37,0.42,0.8,0.75,1.3,0.98c0.5,0.23,1.03,0.34,1.59,0.34c0.72,0,1.38-0.18,2-0.54c0.61-0.36,1.04-0.8,1.28-1.32l3.93,1.2
			c-0.54,1.2-1.43,2.18-2.67,2.94s-2.73,1.14-4.47,1.14c-1.28,0-2.43-0.22-3.45-0.66c-1.02-0.44-1.89-1.03-2.61-1.78
			c-0.72-0.75-1.27-1.62-1.67-2.61C405.21,403.9,405.01,402.86,405.01,401.78z"/>
		<path class="st3" d="M422.92,391.73v-3.99h4.02v3.99H422.92z M422.92,409.64v-15.72h4.02v15.72H422.92z"/>
		<path class="st3" d="M437.83,409.94c-1.28,0-2.43-0.22-3.45-0.66c-1.02-0.44-1.89-1.03-2.6-1.78s-1.25-1.62-1.63-2.6
			c-0.38-0.98-0.57-2.01-0.57-3.09c0-1.1,0.19-2.14,0.57-3.12c0.38-0.98,0.92-1.84,1.63-2.59s1.58-1.34,2.6-1.79
			c1.02-0.44,2.17-0.66,3.45-0.66c1.28,0,2.42,0.22,3.44,0.66c1.01,0.44,1.87,1.04,2.58,1.79c0.71,0.75,1.25,1.62,1.63,2.59
			c0.38,0.98,0.57,2.02,0.57,3.12c0,1.08-0.19,2.11-0.57,3.09c-0.38,0.98-0.92,1.85-1.62,2.6s-1.56,1.34-2.58,1.78
			C440.26,409.72,439.11,409.94,437.83,409.94z M433.72,401.81c0,0.7,0.1,1.33,0.31,1.91c0.21,0.57,0.5,1.06,0.87,1.48
			c0.37,0.42,0.8,0.75,1.31,0.98c0.5,0.23,1.04,0.34,1.62,0.34s1.12-0.11,1.62-0.34c0.5-0.23,0.93-0.55,1.31-0.98
			c0.37-0.42,0.66-0.92,0.87-1.5c0.21-0.58,0.32-1.22,0.32-1.92c0-0.68-0.1-1.31-0.32-1.89c-0.21-0.58-0.5-1.08-0.87-1.5
			c-0.37-0.42-0.81-0.75-1.31-0.97c-0.5-0.23-1.04-0.35-1.62-0.35s-1.12,0.12-1.62,0.36c-0.5,0.24-0.94,0.57-1.31,0.99
			s-0.66,0.92-0.87,1.5S433.72,401.13,433.72,401.81z M438.85,392.09l-2.58-0.78l1.62-3.57h3.75L438.85,392.09z"/>
		<path class="st3" d="M463.37,409.64h-4.02v-8.82c0-1.26-0.22-2.18-0.66-2.76s-1.05-0.87-1.83-0.87c-0.4,0-0.81,0.08-1.23,0.24
			s-0.82,0.39-1.19,0.67c-0.37,0.29-0.71,0.64-1.01,1.04c-0.3,0.4-0.52,0.84-0.66,1.32v9.18h-4.02v-15.72h3.63v2.91
			c0.58-1,1.42-1.78,2.52-2.34c1.1-0.56,2.34-0.84,3.72-0.84c0.98,0,1.78,0.18,2.4,0.54c0.62,0.36,1.1,0.83,1.44,1.41
			c0.34,0.58,0.57,1.24,0.71,1.98c0.13,0.74,0.2,1.49,0.2,2.25V409.64z"/>
	</g>
</g>
</svg>
