<?xml version="1.0" encoding="utf-8"?>
<!-- Generator: Adobe Illustrator 24.0.0, SVG Export Plug-In . SVG Version: 6.00 Build 0)  -->
<svg version="1.1" xmlns="http://www.w3.org/2000/svg" xmlns:xlink="http://www.w3.org/1999/xlink" x="0px" y="0px"
	 viewBox="0 0 512 512" style="enable-background:new 0 0 512 512;" xml:space="preserve">
<style type="text/css">
	.st0{fill:#125DA9;}
	.st1{fill:#6A91BF;}
	.st2{fill:#FFFFFF;}
	.st3{fill:#969696;}
	.st4{fill:#B8B8B8;}
</style>
<g id="GUIAS">
</g>
<g id="Capa_1">
	<g>
		<path class="st3" d="M146.82,362.89c0-1.3,0.23-2.58,0.7-3.86c0.47-1.27,1.16-2.4,2.06-3.4s2-1.81,3.3-2.43
			c1.3-0.62,2.78-0.93,4.44-0.93c1.96,0,3.65,0.43,5.08,1.29c1.43,0.86,2.49,1.98,3.19,3.36l-3.18,2.19
			c-0.28-0.6-0.62-1.1-1.02-1.51s-0.83-0.74-1.29-0.98c-0.46-0.24-0.94-0.41-1.44-0.52s-0.99-0.17-1.47-0.17
			c-1.04,0-1.95,0.21-2.71,0.63c-0.77,0.42-1.41,0.96-1.92,1.63c-0.51,0.67-0.9,1.43-1.15,2.28c-0.26,0.85-0.39,1.7-0.39,2.54
			c0,0.94,0.15,1.84,0.45,2.71c0.3,0.87,0.72,1.63,1.27,2.29c0.55,0.66,1.21,1.19,1.98,1.59c0.77,0.4,1.61,0.6,2.54,0.6
			c0.48,0,0.98-0.06,1.5-0.18c0.52-0.12,1.01-0.31,1.48-0.57c0.47-0.26,0.9-0.59,1.31-1c0.4-0.41,0.72-0.9,0.96-1.48l3.39,1.95
			c-0.34,0.8-0.82,1.5-1.45,2.11c-0.63,0.61-1.34,1.12-2.13,1.54s-1.63,0.74-2.53,0.96c-0.9,0.22-1.78,0.33-2.64,0.33
			c-1.52,0-2.91-0.32-4.17-0.96c-1.26-0.64-2.35-1.47-3.25-2.5c-0.91-1.03-1.62-2.2-2.13-3.51
			C147.08,365.58,146.82,364.25,146.82,362.89z"/>
		<path class="st3" d="M175.56,373.99c-1.28,0-2.43-0.22-3.45-0.66c-1.02-0.44-1.89-1.03-2.6-1.78s-1.26-1.62-1.63-2.6
			c-0.38-0.98-0.57-2.01-0.57-3.09c0-1.1,0.19-2.14,0.57-3.12c0.38-0.98,0.92-1.84,1.63-2.59s1.58-1.34,2.6-1.79
			c1.02-0.44,2.17-0.66,3.45-0.66s2.42,0.22,3.44,0.66c1.01,0.44,1.87,1.04,2.58,1.79c0.71,0.75,1.25,1.62,1.64,2.59
			c0.38,0.98,0.57,2.02,0.57,3.12c0,1.08-0.19,2.11-0.57,3.09c-0.38,0.98-0.92,1.85-1.62,2.6c-0.7,0.75-1.56,1.34-2.58,1.78
			C177.99,373.77,176.84,373.99,175.56,373.99z M171.45,365.86c0,0.7,0.1,1.33,0.31,1.91c0.21,0.57,0.5,1.06,0.87,1.48
			c0.37,0.42,0.8,0.75,1.31,0.98c0.5,0.23,1.04,0.34,1.62,0.34s1.12-0.11,1.62-0.34c0.5-0.23,0.93-0.55,1.31-0.98
			c0.37-0.42,0.66-0.92,0.87-1.5c0.21-0.58,0.32-1.22,0.32-1.92c0-0.68-0.1-1.31-0.32-1.89c-0.21-0.58-0.5-1.08-0.87-1.5
			c-0.37-0.42-0.81-0.75-1.31-0.97c-0.5-0.23-1.04-0.35-1.62-0.35s-1.12,0.12-1.62,0.36c-0.5,0.24-0.94,0.57-1.31,0.99
			c-0.37,0.42-0.66,0.92-0.87,1.5S171.45,365.18,171.45,365.86z"/>
		<path class="st3" d="M201.09,373.69h-4.02v-8.82c0-1.26-0.22-2.18-0.66-2.76s-1.05-0.87-1.83-0.87c-0.4,0-0.81,0.08-1.23,0.24
			c-0.42,0.16-0.82,0.39-1.19,0.67c-0.37,0.29-0.71,0.64-1.01,1.04c-0.3,0.4-0.52,0.84-0.66,1.32v9.18h-4.02v-15.72h3.63v2.91
			c0.58-1,1.42-1.78,2.52-2.34c1.1-0.56,2.34-0.84,3.72-0.84c0.98,0,1.78,0.18,2.4,0.54c0.62,0.36,1.1,0.83,1.44,1.41
			c0.34,0.58,0.57,1.24,0.71,1.98c0.13,0.74,0.19,1.49,0.19,2.25V373.69z"/>
		<path class="st3" d="M213.87,372.88c-0.54,0.24-1.2,0.48-1.98,0.72s-1.6,0.36-2.46,0.36c-0.56,0-1.09-0.07-1.58-0.21
			c-0.49-0.14-0.92-0.36-1.29-0.67c-0.37-0.31-0.67-0.71-0.88-1.2c-0.22-0.49-0.33-1.08-0.33-1.78v-9.03h-2.07v-3.09h2.07v-5.1h4.02
			v5.1h3.3v3.09h-3.3v7.68c0,0.56,0.15,0.96,0.44,1.19c0.29,0.23,0.65,0.34,1.06,0.34s0.83-0.07,1.23-0.21
			c0.4-0.14,0.72-0.26,0.96-0.36L213.87,372.88z"/>
		<path class="st3" d="M225.33,361.45c-1.22,0.02-2.31,0.25-3.27,0.71s-1.65,1.12-2.07,2.03v9.51h-4.02v-15.72h3.69v3.36
			c0.28-0.54,0.61-1.02,0.99-1.46c0.38-0.43,0.79-0.8,1.23-1.12c0.44-0.32,0.88-0.56,1.33-0.73c0.45-0.17,0.88-0.25,1.3-0.25
			c0.22,0,0.38,0,0.5,0c0.11,0,0.21,0.01,0.31,0.03V361.45z"/>
		<path class="st3" d="M231.66,373.99c-0.76,0-1.47-0.12-2.13-0.38c-0.66-0.25-1.23-0.6-1.71-1.05s-0.85-0.97-1.12-1.58
			c-0.27-0.6-0.4-1.26-0.4-1.98c0-0.74,0.17-1.43,0.5-2.06s0.79-1.16,1.38-1.6c0.59-0.44,1.29-0.79,2.12-1.04
			c0.82-0.25,1.72-0.38,2.7-0.38c0.7,0,1.38,0.06,2.06,0.18c0.67,0.12,1.26,0.29,1.78,0.51v-0.9c0-1.04-0.29-1.84-0.88-2.4
			c-0.59-0.56-1.47-0.84-2.62-0.84c-0.84,0-1.66,0.15-2.46,0.45c-0.8,0.3-1.62,0.74-2.46,1.32l-1.23-2.55
			c2.02-1.34,4.2-2.01,6.54-2.01c2.26,0,4.01,0.56,5.26,1.67c1.25,1.11,1.88,2.71,1.88,4.82v4.89c0,0.42,0.08,0.72,0.23,0.9
			c0.15,0.18,0.4,0.28,0.73,0.3v3.42c-0.68,0.14-1.27,0.21-1.77,0.21c-0.76,0-1.35-0.17-1.76-0.51c-0.41-0.34-0.67-0.79-0.76-1.35
			l-0.09-0.87c-0.7,0.92-1.55,1.62-2.55,2.1C233.87,373.75,232.8,373.99,231.66,373.99z M232.8,371.05c0.68,0,1.32-0.12,1.94-0.36
			c0.61-0.24,1.08-0.56,1.43-0.96c0.44-0.34,0.66-0.72,0.66-1.14v-1.8c-0.48-0.18-1-0.32-1.56-0.43c-0.56-0.11-1.1-0.17-1.62-0.17
			c-1.04,0-1.89,0.24-2.55,0.71c-0.66,0.47-0.99,1.06-0.99,1.79c0,0.68,0.26,1.25,0.78,1.69
			C231.4,370.82,232.04,371.05,232.8,371.05z"/>
		<path class="st3" d="M253.89,372.88c-0.54,0.24-1.2,0.48-1.98,0.72s-1.6,0.36-2.46,0.36c-0.56,0-1.09-0.07-1.58-0.21
			c-0.49-0.14-0.92-0.36-1.29-0.67c-0.37-0.31-0.67-0.71-0.88-1.2c-0.22-0.49-0.33-1.08-0.33-1.78v-9.03h-2.07v-3.09h2.07v-5.1h4.02
			v5.1h3.3v3.09h-3.3v7.68c0,0.56,0.15,0.96,0.44,1.19c0.29,0.23,0.65,0.34,1.06,0.34s0.83-0.07,1.23-0.21
			c0.4-0.14,0.72-0.26,0.96-0.36L253.89,372.88z"/>
		<path class="st3" d="M260.28,373.99c-0.76,0-1.47-0.12-2.13-0.38s-1.23-0.6-1.71-1.05s-0.85-0.97-1.12-1.58
			c-0.27-0.6-0.4-1.26-0.4-1.98c0-0.74,0.17-1.43,0.5-2.06s0.79-1.16,1.38-1.6c0.59-0.44,1.29-0.79,2.12-1.04s1.72-0.38,2.7-0.38
			c0.7,0,1.38,0.06,2.05,0.18s1.26,0.29,1.79,0.51v-0.9c0-1.04-0.29-1.84-0.88-2.4c-0.59-0.56-1.47-0.84-2.62-0.84
			c-0.84,0-1.66,0.15-2.46,0.45c-0.8,0.3-1.62,0.74-2.46,1.32l-1.23-2.55c2.02-1.34,4.2-2.01,6.54-2.01c2.26,0,4.01,0.56,5.26,1.67
			c1.25,1.11,1.88,2.71,1.88,4.82v4.89c0,0.42,0.08,0.72,0.23,0.9c0.15,0.18,0.39,0.28,0.73,0.3v3.42
			c-0.68,0.14-1.27,0.21-1.77,0.21c-0.76,0-1.35-0.17-1.75-0.51c-0.41-0.34-0.67-0.79-0.76-1.35l-0.09-0.87
			c-0.7,0.92-1.55,1.62-2.55,2.1C262.49,373.75,261.42,373.99,260.28,373.99z M261.42,371.05c0.68,0,1.33-0.12,1.94-0.36
			c0.61-0.24,1.08-0.56,1.42-0.96c0.44-0.34,0.66-0.72,0.66-1.14v-1.8c-0.48-0.18-1-0.32-1.56-0.43c-0.56-0.11-1.1-0.17-1.62-0.17
			c-1.04,0-1.89,0.24-2.55,0.71c-0.66,0.47-0.99,1.06-0.99,1.79c0,0.68,0.26,1.25,0.78,1.69
			C260.02,370.82,260.66,371.05,261.42,371.05z"/>
		<path class="st3" d="M272.22,365.83c0-1.1,0.19-2.14,0.57-3.12c0.38-0.98,0.93-1.84,1.65-2.58c0.72-0.74,1.59-1.33,2.61-1.77
			c1.02-0.44,2.17-0.66,3.45-0.66c1.72,0,3.18,0.37,4.4,1.11c1.21,0.74,2.11,1.71,2.71,2.91l-3.93,1.2
			c-0.34-0.58-0.79-1.03-1.35-1.34c-0.56-0.31-1.18-0.46-1.86-0.46c-0.58,0-1.12,0.12-1.62,0.35c-0.5,0.23-0.94,0.55-1.31,0.96
			s-0.66,0.91-0.87,1.48c-0.21,0.58-0.31,1.22-0.31,1.92c0,0.7,0.11,1.34,0.33,1.92c0.22,0.58,0.51,1.08,0.88,1.5
			c0.37,0.42,0.8,0.75,1.3,0.98c0.5,0.23,1.03,0.34,1.59,0.34c0.72,0,1.38-0.18,2-0.54c0.61-0.36,1.04-0.8,1.28-1.32l3.93,1.2
			c-0.54,1.2-1.43,2.18-2.67,2.94s-2.73,1.14-4.47,1.14c-1.28,0-2.43-0.22-3.45-0.66c-1.02-0.44-1.89-1.03-2.61-1.78
			c-0.72-0.75-1.27-1.62-1.67-2.61C272.41,367.94,272.22,366.91,272.22,365.83z"/>
		<path class="st3" d="M290.13,355.78v-3.99h4.02v3.99H290.13z M290.13,373.69v-15.72h4.02v15.72H290.13z"/>
		<path class="st3" d="M305.04,373.99c-1.28,0-2.43-0.22-3.45-0.66c-1.02-0.44-1.89-1.03-2.6-1.78s-1.25-1.62-1.63-2.6
			c-0.38-0.98-0.57-2.01-0.57-3.09c0-1.1,0.19-2.14,0.57-3.12c0.38-0.98,0.92-1.84,1.63-2.59s1.58-1.34,2.6-1.79
			c1.02-0.44,2.17-0.66,3.45-0.66c1.28,0,2.42,0.22,3.44,0.66c1.01,0.44,1.87,1.04,2.58,1.79c0.71,0.75,1.25,1.62,1.63,2.59
			c0.38,0.98,0.57,2.02,0.57,3.12c0,1.08-0.19,2.11-0.57,3.09c-0.38,0.98-0.92,1.85-1.62,2.6s-1.56,1.34-2.58,1.78
			C307.47,373.77,306.32,373.99,305.04,373.99z M300.93,365.86c0,0.7,0.1,1.33,0.31,1.91c0.21,0.57,0.5,1.06,0.87,1.48
			c0.37,0.42,0.8,0.75,1.31,0.98c0.5,0.23,1.04,0.34,1.62,0.34s1.12-0.11,1.62-0.34c0.5-0.23,0.93-0.55,1.31-0.98
			c0.37-0.42,0.66-0.92,0.87-1.5c0.21-0.58,0.32-1.22,0.32-1.92c0-0.68-0.1-1.31-0.32-1.89c-0.21-0.58-0.5-1.08-0.87-1.5
			c-0.37-0.42-0.81-0.75-1.31-0.97c-0.5-0.23-1.04-0.35-1.62-0.35s-1.12,0.12-1.62,0.36c-0.5,0.24-0.94,0.57-1.31,0.99
			s-0.66,0.92-0.87,1.5S300.93,365.18,300.93,365.86z"/>
		<path class="st3" d="M330.57,373.69h-4.02v-8.82c0-1.26-0.22-2.18-0.66-2.76c-0.44-0.58-1.05-0.87-1.83-0.87
			c-0.4,0-0.81,0.08-1.23,0.24s-0.82,0.39-1.18,0.67c-0.37,0.29-0.71,0.64-1.01,1.04c-0.3,0.4-0.52,0.84-0.66,1.32v9.18h-4.02
			v-15.72h3.63v2.91c0.58-1,1.42-1.78,2.52-2.34c1.1-0.56,2.34-0.84,3.72-0.84c0.98,0,1.78,0.18,2.4,0.54
			c0.62,0.36,1.1,0.83,1.44,1.41s0.58,1.24,0.71,1.98c0.13,0.74,0.2,1.49,0.2,2.25V373.69z"/>
		<path class="st3" d="M341.37,373.99c-1.26,0-2.4-0.21-3.42-0.64c-1.02-0.43-1.89-1.01-2.61-1.75s-1.28-1.6-1.67-2.58
			c-0.39-0.98-0.58-2.01-0.58-3.09c0-1.12,0.19-2.18,0.57-3.17c0.38-0.99,0.93-1.86,1.65-2.61s1.59-1.34,2.62-1.79
			c1.03-0.44,2.18-0.66,3.46-0.66s2.42,0.22,3.44,0.66c1.01,0.44,1.87,1.03,2.58,1.77c0.71,0.74,1.25,1.6,1.62,2.58
			c0.37,0.98,0.55,2,0.55,3.06c0,0.26,0,0.51-0.01,0.75c-0.01,0.24-0.04,0.44-0.08,0.6h-12.15c0.06,0.62,0.21,1.17,0.45,1.65
			c0.24,0.48,0.55,0.89,0.93,1.23c0.38,0.34,0.81,0.6,1.29,0.78c0.48,0.18,0.98,0.27,1.5,0.27c0.8,0,1.55-0.2,2.27-0.58
			c0.71-0.39,1.19-0.91,1.46-1.54l3.45,0.96c-0.58,1.2-1.5,2.18-2.77,2.95C344.64,373.6,343.13,373.99,341.37,373.99z
			 M345.45,364.51c-0.1-1.18-0.54-2.12-1.31-2.83s-1.71-1.07-2.8-1.07c-0.54,0-1.04,0.1-1.51,0.29c-0.47,0.19-0.89,0.46-1.25,0.79
			c-0.36,0.34-0.66,0.75-0.89,1.23c-0.23,0.48-0.36,1.01-0.4,1.59H345.45z"/>
		<path class="st3" d="M357.99,373.99c-1.32,0-2.61-0.21-3.87-0.63s-2.34-1.02-3.24-1.8l1.5-2.52c0.96,0.68,1.89,1.2,2.8,1.54
			c0.91,0.35,1.82,0.53,2.72,0.53c0.8,0,1.43-0.15,1.89-0.45s0.69-0.73,0.69-1.29c0-0.56-0.27-0.97-0.81-1.23s-1.42-0.56-2.64-0.9
			c-1.02-0.28-1.89-0.55-2.61-0.81s-1.3-0.56-1.74-0.88c-0.44-0.33-0.76-0.71-0.96-1.14c-0.2-0.43-0.3-0.95-0.3-1.54
			c0-0.8,0.15-1.52,0.46-2.16c0.31-0.64,0.75-1.18,1.31-1.63c0.56-0.45,1.21-0.79,1.96-1.04s1.56-0.36,2.44-0.36
			c1.18,0,2.29,0.17,3.32,0.51c1.03,0.34,1.97,0.89,2.83,1.65l-1.62,2.43c-0.8-0.6-1.58-1.04-2.33-1.32s-1.5-0.42-2.23-0.42
			c-0.68,0-1.25,0.14-1.71,0.42c-0.46,0.28-0.69,0.73-0.69,1.35c0,0.28,0.05,0.51,0.17,0.69c0.11,0.18,0.29,0.34,0.53,0.48
			c0.24,0.14,0.55,0.28,0.94,0.41c0.39,0.13,0.88,0.27,1.46,0.41c1.08,0.28,2,0.56,2.78,0.84c0.77,0.28,1.4,0.6,1.89,0.96
			s0.85,0.78,1.08,1.25c0.23,0.47,0.34,1.04,0.34,1.7c0,1.54-0.57,2.75-1.71,3.64C361.5,373.54,359.95,373.99,357.99,373.99z"/>
		<path class="st3" d="M196.5,409.69v-21.3h9.03c0.98,0,1.88,0.21,2.71,0.62s1.54,0.95,2.15,1.62c0.6,0.67,1.07,1.43,1.41,2.28
			c0.34,0.85,0.51,1.71,0.51,2.57c0,0.9-0.16,1.77-0.48,2.62c-0.32,0.85-0.77,1.6-1.35,2.26c-0.58,0.66-1.28,1.19-2.1,1.59
			c-0.82,0.4-1.72,0.6-2.7,0.6h-5.04v7.14H196.5z M200.64,398.92h4.8c0.76,0,1.4-0.31,1.9-0.93c0.51-0.62,0.77-1.46,0.77-2.52
			c0-0.54-0.08-1.03-0.24-1.46s-0.37-0.79-0.63-1.09c-0.26-0.3-0.57-0.53-0.92-0.68c-0.35-0.15-0.71-0.22-1.06-0.22h-4.62V398.92z"
			/>
		<path class="st3" d="M219.6,409.99c-1.62,0-2.85-0.52-3.69-1.56s-1.26-2.58-1.26-4.62v-9.84h4.02v8.97c0,2.42,0.87,3.63,2.61,3.63
			c0.78,0,1.53-0.23,2.27-0.71c0.73-0.47,1.32-1.18,1.78-2.14v-9.75h4.02v11.1c0,0.42,0.08,0.72,0.23,0.9
			c0.15,0.18,0.39,0.28,0.73,0.3v3.42c-0.4,0.08-0.73,0.13-1,0.15c-0.27,0.02-0.52,0.03-0.73,0.03c-0.72,0-1.31-0.17-1.75-0.5
			c-0.45-0.33-0.72-0.78-0.8-1.36l-0.09-1.26c-0.7,1.08-1.6,1.89-2.7,2.43S220.92,409.99,219.6,409.99z M223.02,392.14l-2.58-0.78
			l1.62-3.57h3.75L223.02,392.14z"/>
		<path class="st3" d="M242.28,409.99c-1.2,0-2.27-0.27-3.21-0.81c-0.94-0.54-1.68-1.28-2.22-2.22v2.73h-3.51v-21.9h4.02v8.94
			c0.56-0.96,1.29-1.71,2.21-2.24c0.91-0.53,1.97-0.79,3.19-0.79c1.02,0,1.95,0.22,2.79,0.66c0.84,0.44,1.56,1.03,2.17,1.77
			c0.61,0.74,1.08,1.61,1.41,2.61c0.33,1,0.5,2.05,0.5,3.15c0,1.14-0.19,2.2-0.56,3.18c-0.37,0.98-0.88,1.83-1.54,2.57
			s-1.44,1.3-2.34,1.72C244.29,409.78,243.32,409.99,242.28,409.99z M241.17,406.57c0.64,0,1.23-0.12,1.77-0.38s1-0.58,1.38-1
			c0.38-0.42,0.67-0.91,0.88-1.47s0.31-1.16,0.31-1.8c0-0.64-0.1-1.25-0.3-1.83c-0.2-0.58-0.49-1.09-0.85-1.53
			c-0.37-0.44-0.81-0.79-1.31-1.05s-1.05-0.39-1.65-0.39c-0.9,0-1.71,0.3-2.42,0.89s-1.26,1.31-1.63,2.17v3.75
			c0.14,0.4,0.34,0.76,0.61,1.08s0.57,0.59,0.92,0.82c0.34,0.23,0.71,0.41,1.11,0.54C240.4,406.5,240.79,406.57,241.17,406.57z"/>
		<path class="st3" d="M252.33,387.79h4.02v16.86c0,0.58,0.14,1.03,0.42,1.35c0.28,0.32,0.68,0.48,1.2,0.48
			c0.24,0,0.5-0.04,0.79-0.12s0.57-0.18,0.83-0.3l0.54,3.06c-0.54,0.26-1.17,0.46-1.89,0.6s-1.37,0.21-1.95,0.21
			c-1.26,0-2.23-0.33-2.92-1s-1.04-1.62-1.04-2.87V387.79z"/>
		<path class="st3" d="M261.87,391.78v-3.99h4.02v3.99H261.87z M261.87,409.69v-15.72h4.02v15.72H261.87z"/>
		<path class="st3" d="M268.53,401.83c0-1.1,0.19-2.14,0.57-3.12c0.38-0.98,0.93-1.84,1.65-2.58c0.72-0.74,1.59-1.33,2.61-1.77
			c1.02-0.44,2.17-0.66,3.45-0.66c1.72,0,3.18,0.37,4.39,1.11s2.12,1.71,2.71,2.91l-3.93,1.2c-0.34-0.58-0.79-1.03-1.35-1.34
			c-0.56-0.31-1.18-0.46-1.86-0.46c-0.58,0-1.12,0.12-1.62,0.35c-0.5,0.23-0.94,0.55-1.3,0.96c-0.37,0.41-0.66,0.91-0.87,1.48
			c-0.21,0.58-0.32,1.22-0.32,1.92c0,0.7,0.11,1.34,0.33,1.92c0.22,0.58,0.51,1.08,0.88,1.5c0.37,0.42,0.81,0.75,1.31,0.98
			c0.5,0.23,1.03,0.34,1.59,0.34c0.72,0,1.38-0.18,2-0.54c0.61-0.36,1.04-0.8,1.27-1.32l3.93,1.2c-0.54,1.2-1.43,2.18-2.67,2.94
			c-1.24,0.76-2.73,1.14-4.47,1.14c-1.28,0-2.43-0.22-3.45-0.66c-1.02-0.44-1.89-1.03-2.61-1.78s-1.28-1.62-1.67-2.61
			S268.53,402.91,268.53,401.83z"/>
		<path class="st3" d="M290.73,409.99c-0.76,0-1.47-0.12-2.13-0.38c-0.66-0.25-1.23-0.6-1.71-1.05c-0.48-0.45-0.85-0.97-1.12-1.58
			c-0.27-0.6-0.4-1.26-0.4-1.98c0-0.74,0.17-1.43,0.5-2.06s0.79-1.16,1.38-1.6c0.59-0.44,1.29-0.79,2.12-1.04
			c0.82-0.25,1.72-0.38,2.7-0.38c0.7,0,1.38,0.06,2.06,0.18c0.67,0.12,1.26,0.29,1.78,0.51v-0.9c0-1.04-0.29-1.84-0.88-2.4
			c-0.59-0.56-1.46-0.84-2.62-0.84c-0.84,0-1.66,0.15-2.46,0.45s-1.62,0.74-2.46,1.32l-1.23-2.55c2.02-1.34,4.2-2.01,6.54-2.01
			c2.26,0,4.01,0.56,5.26,1.67c1.25,1.11,1.88,2.71,1.88,4.82v4.89c0,0.42,0.08,0.72,0.22,0.9c0.15,0.18,0.4,0.28,0.74,0.3v3.42
			c-0.68,0.14-1.27,0.21-1.77,0.21c-0.76,0-1.35-0.17-1.76-0.51s-0.67-0.79-0.76-1.35l-0.09-0.87c-0.7,0.92-1.55,1.62-2.55,2.1
			C292.94,409.75,291.87,409.99,290.73,409.99z M291.87,407.05c0.68,0,1.32-0.12,1.93-0.36s1.08-0.56,1.43-0.96
			c0.44-0.34,0.66-0.72,0.66-1.14v-1.8c-0.48-0.18-1-0.32-1.56-0.43c-0.56-0.11-1.1-0.17-1.62-0.17c-1.04,0-1.89,0.24-2.55,0.71
			s-0.99,1.06-0.99,1.79c0,0.68,0.26,1.25,0.78,1.69C290.47,406.82,291.11,407.05,291.87,407.05z"/>
		<path class="st3" d="M309.6,409.99c-1.32,0-2.61-0.21-3.87-0.63c-1.26-0.42-2.34-1.02-3.24-1.8l1.5-2.52
			c0.96,0.68,1.89,1.2,2.8,1.54c0.91,0.35,1.81,0.53,2.71,0.53c0.8,0,1.43-0.15,1.89-0.45s0.69-0.73,0.69-1.29
			c0-0.56-0.27-0.97-0.81-1.23s-1.42-0.56-2.64-0.9c-1.02-0.28-1.89-0.55-2.61-0.81c-0.72-0.26-1.3-0.56-1.74-0.88
			c-0.44-0.33-0.76-0.71-0.96-1.14c-0.2-0.43-0.3-0.95-0.3-1.54c0-0.8,0.15-1.52,0.46-2.16c0.31-0.64,0.74-1.18,1.3-1.63
			c0.56-0.45,1.21-0.79,1.96-1.04s1.56-0.36,2.45-0.36c1.18,0,2.28,0.17,3.31,0.51s1.98,0.89,2.83,1.65l-1.62,2.43
			c-0.8-0.6-1.58-1.04-2.33-1.32s-1.5-0.42-2.24-0.42c-0.68,0-1.25,0.14-1.71,0.42s-0.69,0.73-0.69,1.35c0,0.28,0.05,0.51,0.17,0.69
			c0.11,0.18,0.28,0.34,0.52,0.48c0.24,0.14,0.55,0.28,0.95,0.41c0.39,0.13,0.87,0.27,1.46,0.41c1.08,0.28,2,0.56,2.77,0.84
			c0.77,0.28,1.4,0.6,1.89,0.96c0.49,0.36,0.85,0.78,1.08,1.25c0.23,0.47,0.34,1.04,0.34,1.7c0,1.54-0.57,2.75-1.71,3.64
			C313.11,409.54,311.56,409.99,309.6,409.99z"/>
	</g>
	<g>
		<g>
			<path class="st0" d="M181.21,142.66v125.29c0,15.36,12.46,27.82,27.82,27.82h93.11c15.36,0,27.82-12.46,27.82-27.82v-54.56
				L181.21,142.66z"/>
			<path class="st1" d="M329.96,121.5c0-15.36-12.46-27.82-27.82-27.82h-93.11c-15.36,0-27.82,12.46-27.82,27.82v21.16l148.75,70.73
				V121.5z"/>
		</g>
		<g>
			<g>
				<rect x="202.63" y="185.3" class="st2" width="105.92" height="9.36"/>
				<rect x="202.63" y="208.72" class="st2" width="105.92" height="9.36"/>
				<rect x="202.63" y="233.46" class="st2" width="105.92" height="9.36"/>
				<rect x="202.63" y="258.81" class="st2" width="105.92" height="9.36"/>
			</g>
			<g>
				<rect x="215.27" y="121.28" class="st2" width="25.22" height="36.6"/>
				<rect x="270.68" y="121.28" class="st2" width="25.22" height="36.6"/>
				<circle class="st2" cx="255.58" cy="139.58" r="8.57"/>
			</g>
		</g>
	</g>
</g>
</svg>
