<?xml version="1.0" encoding="utf-8"?>
<!-- Generator: Adobe Illustrator 24.0.0, SVG Export Plug-In . SVG Version: 6.00 Build 0)  -->
<svg version="1.1" xmlns="http://www.w3.org/2000/svg" xmlns:xlink="http://www.w3.org/1999/xlink" x="0px" y="0px"
	 viewBox="0 0 1065.03 320" style="enable-background:new 0 0 1065.03 320;" xml:space="preserve">
<style type="text/css">
	.st0{display:none;}
	.st1{fill:none;}
	.st2{fill:url(#SVGID_1_);}
	.st3{fill:url(#SVGID_2_);}
	.st4{fill:url(#SVGID_3_);}
	.st5{fill:url(#SVGID_4_);}
	.st6{fill:url(#SVGID_5_);}
	.st7{fill:url(#SVGID_6_);}
	.st8{fill:url(#SVGID_7_);}
	.st9{fill:#FFFFFF;}
	.st10{fill:url(#SVGID_8_);}
	.st11{fill:url(#SVGID_9_);}
	.st12{fill:#C1AE27;}
	.st13{fill:#C09D01;}
	.st14{fill:#C1A004;}
	.st15{fill:#125DA9;}
	.st16{fill:#0096D3;}
	.st17{fill:#D5CD3D;}
</style>
<g id="GUIAS" class="st0">
</g>
<g id="Capa_1">
	<g>
		<g>
			<path class="st1" d="M122.49,171.56c2.38,0.51,4.66,1.08,6.88,1.7C127.26,172.62,124.97,172.06,122.49,171.56z"/>
			<linearGradient id="SVGID_1_" gradientUnits="userSpaceOnUse" x1="44.5481" y1="110.7033" x2="209.9335" y2="203.3192">
				<stop  offset="0" style="stop-color:#1CAEE5"/>
				<stop  offset="0.0547" style="stop-color:#19A4DC"/>
				<stop  offset="0.3632" style="stop-color:#076FAA"/>
				<stop  offset="0.514" style="stop-color:#005B97"/>
				<stop  offset="0.6184" style="stop-color:#03649F"/>
				<stop  offset="0.7881" style="stop-color:#0B7CB6"/>
				<stop  offset="1" style="stop-color:#18A3DA"/>
			</linearGradient>
			<path class="st2" d="M135.47,134.56c-54.73-6.4-75.68-33.91-83.66-55.54C47.75,89.18,47,100.45,47,111.06
				c0,33.79,14.3,50.09,43.8,55.46c11.49,2.09,22.07,3.19,30.72,4.85c0.33,0.06,0.66,0.12,0.95,0.18c0.01,0,0.01,0,0.02,0
				c2.47,0.5,4.77,1.05,6.88,1.7c32.77,9.18,48.41,30.54,55.59,51.96c5.38-8.18,8.52-18.23,8.52-30.39
				C193.48,151.45,173.31,141.68,135.47,134.56z"/>
			
				<radialGradient id="SVGID_2_" cx="109.4147" cy="78.9517" r="106.8854" gradientTransform="matrix(0.985 -0.1724 0.1774 1.0139 -12.3707 17.7663)" gradientUnits="userSpaceOnUse">
				<stop  offset="0" style="stop-color:#1890C9"/>
				<stop  offset="0.5125" style="stop-color:#0B74AF"/>
				<stop  offset="1" style="stop-color:#015E9A"/>
			</radialGradient>
			<path class="st3" d="M135.47,134.56c-4.26-0.8-8.75-1.57-13.46-2.35c-38.22-6.32-35.53-47.04-2.45-47.04
				c30.57,0,56.77,11.03,56.77,11.03V54.77c0,0-32.48-16.09-78.67-7.75c-27.27,4.93-40,17.32-45.85,31.99
				C59.79,100.65,80.75,128.16,135.47,134.56z"/>
			
				<radialGradient id="SVGID_3_" cx="115.8207" cy="219.7178" r="67.3116" fx="114.158" fy="219.7693" gradientUnits="userSpaceOnUse">
				<stop  offset="0" style="stop-color:#1CAEE5"/>
				<stop  offset="0.211" style="stop-color:#159AD2"/>
				<stop  offset="0.7357" style="stop-color:#066DA7"/>
				<stop  offset="1" style="stop-color:#005B97"/>
			</radialGradient>
			<path class="st4" d="M129.37,173.26c8.98,2.74,14.47,7.15,14.47,16.2c0,18.77-9.36,28.29-45.51,24.79
				c-36-3.48-49.25-10.19-49.25-10.19v41.72c0,0,19.56,8.78,59.3,9.54c30.51,0.58,61.91-7.82,76.57-30.1
				C177.79,203.8,162.15,182.44,129.37,173.26z"/>
			<linearGradient id="SVGID_4_" gradientUnits="userSpaceOnUse" x1="220.2259" y1="130.6051" x2="334.4115" y2="130.6051">
				<stop  offset="0" style="stop-color:#1CAEE5"/>
				<stop  offset="0.211" style="stop-color:#159AD2"/>
				<stop  offset="0.7357" style="stop-color:#066DA7"/>
				<stop  offset="1" style="stop-color:#005B97"/>
			</linearGradient>
			<path class="st5" d="M279.95,88.71c-13.8-10.36-35.33-25.84-59.72-40.14v153.54c8.52,5.54,22.51,10.53,45.27,10.53l0.96-46.21
				h67.95l-0.09-39.16h-68.46V88.71H279.95z"/>
			<linearGradient id="SVGID_5_" gradientUnits="userSpaceOnUse" x1="220.2259" y1="227.5127" x2="348.5812" y2="227.5127">
				<stop  offset="0" style="stop-color:#015E9A"/>
				<stop  offset="0.0981" style="stop-color:#0466A1"/>
				<stop  offset="0.6974" style="stop-color:#1693C6"/>
				<stop  offset="1" style="stop-color:#1DA4D5"/>
			</linearGradient>
			<path class="st6" d="M220.23,252.92h128.36v-40.28H265.5c-22.76,0-36.75-4.99-45.27-10.53V252.92z"/>
			<linearGradient id="SVGID_6_" gradientUnits="userSpaceOnUse" x1="220.2259" y1="68.5851" x2="343.4951" y2="68.5851">
				<stop  offset="0" style="stop-color:#0669A4"/>
				<stop  offset="0.7216" style="stop-color:#107FBA"/>
				<stop  offset="1" style="stop-color:#1589C4"/>
			</linearGradient>
			<path class="st7" d="M343.5,88.71V48.46H220.23v0.11c24.39,14.3,45.92,29.78,59.72,40.14H343.5z"/>
			<linearGradient id="SVGID_7_" gradientUnits="userSpaceOnUse" x1="356.7112" y1="149.6895" x2="540.8227" y2="149.6895">
				<stop  offset="0" style="stop-color:#1CAEE5"/>
				<stop  offset="0.211" style="stop-color:#159AD2"/>
				<stop  offset="0.7357" style="stop-color:#066DA7"/>
				<stop  offset="1" style="stop-color:#005B97"/>
			</linearGradient>
			<path class="st8" d="M513.12,173.87c1.73-6.17,2.67-12.66,2.67-19.38c0-24.17-11.98-45.54-30.32-58.51l-17.22-48.52h-42.28
				l-14.69,43.38c-23.03,11.92-38.78,35.94-38.78,63.66c0,10.95,2.46,21.31,6.85,30.59l-22.64,66.83h56.89l6.07-22.98h61.55
				l6.99,22.98h52.6L513.12,173.87z"/>
			<path class="st9" d="M448.25,201.02c-0.61-1.18-1.67-2.06-2.93-2.46l-19.46-6.14c-0.49-0.16-1-0.23-1.5-0.23
				c-0.8,0-1.59,0.19-2.31,0.56c-1.18,0.61-2.06,1.67-2.46,2.93l-20.97,66.44c-1.22,3.87-0.86,7.99,1.01,11.59
				c1.87,3.6,5.04,6.26,8.91,7.48c1.49,0.47,3.03,0.71,4.58,0.71c6.66,0,12.49-4.27,14.5-10.63l20.97-66.44
				C448.98,203.57,448.86,202.2,448.25,201.02z"/>
			<g>
				<linearGradient id="SVGID_8_" gradientUnits="userSpaceOnUse" x1="407.94" y1="268.784" x2="437.1573" y2="203.0449">
					<stop  offset="0" style="stop-color:#D1C52E"/>
					<stop  offset="1" style="stop-color:#C09D01"/>
				</linearGradient>
				<path class="st10" d="M403.38,263.62c-1.7,5.37,1.29,11.11,6.66,12.8c5.37,1.7,11.11-1.29,12.8-6.66l20.97-66.44l-19.46-6.14
					L403.38,263.62z"/>
			</g>
			<circle class="st9" cx="444.14" cy="154.5" r="66.77"/>
			<linearGradient id="SVGID_9_" gradientUnits="userSpaceOnUse" x1="397.2182" y1="166.0232" x2="517.0021" y2="136.6026">
				<stop  offset="0" style="stop-color:#D1C52E"/>
				<stop  offset="0.5028" style="stop-color:#C09D01"/>
				<stop  offset="1" style="stop-color:#CFC028"/>
			</linearGradient>
			<circle class="st11" cx="444.14" cy="154.5" r="59.91"/>
			<circle class="st9" cx="444.14" cy="154.5" r="44.78"/>
			<g>
				<path class="st12" d="M477.55,165.88c-0.14,0-0.29-0.01-0.43-0.02c-2.2-0.24-3.79-2.21-3.55-4.4
					c1.33-12.46-5.57-24.31-13.08-29.57c-1.81-1.27-2.25-3.76-0.98-5.57c1.27-1.81,3.76-2.25,5.57-0.98
					c9.15,6.4,18.19,20.7,16.45,36.97C481.3,164.36,479.57,165.88,477.55,165.88z"/>
			</g>
			<circle class="st13" cx="450.73" cy="122.33" r="6.28"/>
		</g>
		<g>
			<g>
				<path class="st14" d="M586.94,55.4c-5.13-1.99-6.69-3.42-6.69-6.13c0-2.05,1.54-4.44,5.88-4.44c2.94,0,5.18,0.89,6.54,1.63
					l1.21,0.66l2.08-6.15l-0.83-0.47c-1.3-0.74-4.19-1.98-8.83-1.98c-7.79,0-13.24,4.65-13.24,11.3c0,5.32,3.48,9.14,10.61,11.67
					c5.27,2.03,6.3,3.86,6.3,6.35c0,3.22-2.55,5.22-6.66,5.22c-2.73,0-5.74-0.85-8.04-2.27L573.99,70l-1.9,6.3l0.71,0.48
					c2.27,1.52,6.46,2.58,10.17,2.58c9.83,0,14.24-5.98,14.24-11.91C597.21,61.78,594.14,58.17,586.94,55.4z"/>
				<path class="st14" d="M613.48,49.05c-8.09,0-13.74,6.42-13.74,15.62c0,8.92,5.63,14.68,14.35,14.68c4.54,0,7.62-0.96,9.4-1.76
					l0.87-0.39l-1.37-5.75l-1.26,0.53c-1.58,0.67-3.52,1.29-6.98,1.29c-2.25,0-7.31-0.71-7.98-7h17.62l1.06-0.26l0.12-1.02
					c0.06-0.53,0.14-1.25,0.14-2.15C625.72,55.98,621.94,49.05,613.48,49.05z M613.09,54.86c1.61,0,2.9,0.48,3.83,1.43
					c1.21,1.23,1.61,2.98,1.73,4.19h-11.65C607.63,57.96,609.39,54.86,613.09,54.86z"/>
				<path class="st14" d="M643.1,55.3c2.57,0,4.18,0.61,5.08,1.12l1.27,0.72l1.79-6.1l-0.86-0.43c-1.39-0.7-4.13-1.51-7.28-1.51
					c-9.17,0-15.57,6.33-15.57,15.4c0,8.88,5.83,14.85,14.52,14.85c3.7,0,6.75-0.91,8.24-1.68l0.79-0.41l-1.34-5.89l-1.28,0.56
					c-1.35,0.6-3.01,1.23-5.52,1.23c-4.88,0-8.16-3.57-8.16-8.88C634.77,60.14,636.95,55.3,643.1,55.3z"/>
				<path class="st14" d="M660.72,52.26l-0.08-2.6h-6.62l0.08,1.23c0.15,2.29,0.22,4.85,0.22,8.29V78.8h7.13V63.35
					c0-0.76,0.1-1.47,0.2-2.06c0.6-3.28,2.67-5.32,5.4-5.32c0.55,0,0.97,0.04,1.41,0.14l1.4,0.31v-6.94L669,49.25
					C666.06,48.53,662.81,49.76,660.72,52.26z"/>
				<path class="st14" d="M683.69,49.05c-8.09,0-13.74,6.42-13.74,15.62c0,8.92,5.63,14.68,14.35,14.68c4.54,0,7.62-0.96,9.4-1.76
					l0.87-0.39l-1.37-5.75l-1.26,0.53c-1.58,0.67-3.52,1.29-6.98,1.29c-2.25,0-7.31-0.71-7.98-7h17.62l1.06-0.26l0.12-1.02
					c0.06-0.53,0.14-1.25,0.14-2.15C695.94,55.98,692.15,49.05,683.69,49.05z M683.31,54.86c1.61,0,2.9,0.48,3.83,1.43
					c1.21,1.23,1.61,2.98,1.73,4.19h-11.65C677.84,57.96,679.6,54.86,683.31,54.86z"/>
				<path class="st14" d="M707.87,41.61l-7.08,1.89v6.16h-4.16v6.02h4.16v13.48c0,3.74,0.7,6.22,2.17,7.75
					c1.4,1.6,3.52,2.45,6.14,2.45c1.89,0,3.58-0.27,4.76-0.75l0.76-0.31l-0.36-5.9l-1.37,0.37c-0.49,0.13-1.33,0.29-2.53,0.29
					c-1.27,0-2.5-0.31-2.5-4.06V55.69h6.98v-6.02h-6.98V41.61z"/>
				<path class="st14" d="M739.2,71.22V61.18c0-7.82-4.03-12.13-11.35-12.13c-3.49,0-6.93,0.94-9.44,2.57l-0.76,0.49l1.89,5.46
					l1.24-0.8c1.75-1.13,4.13-1.81,6.36-1.81c3.17,0,4.75,1.42,4.93,4.46c-6.17,0.13-10.66,1.55-13.36,4.24
					c-1.82,1.81-2.75,4.13-2.75,6.88c0,4.4,3.21,8.86,9.36,8.86c2.84,0,5.5-0.97,7.49-2.67l0.23,2.06h6.85l-0.25-1.36
					C739.34,75.87,739.2,73.84,739.2,71.22z M732.18,65.1v3.51c0,0.34-0.08,0.76-0.22,1.18c-0.58,1.71-2.35,3.71-5.39,3.71
					c-1.04,0-3.45-0.34-3.45-3.5c0-1.16,0.36-2.07,1.09-2.79C725.58,65.87,728.32,65.15,732.18,65.1z"/>
				<path class="st14" d="M751.18,52.26l-0.08-2.6h-6.62l0.08,1.23c0.15,2.26,0.22,4.82,0.22,8.29V78.8h7.13V63.35
					c0-0.76,0.1-1.47,0.2-2.06c0.6-3.28,2.67-5.32,5.4-5.32c0.55,0,0.97,0.04,1.41,0.14l1.41,0.31v-6.94l-0.88-0.22
					C756.52,48.53,753.26,49.76,751.18,52.26z"/>
				<rect x="763.13" y="49.66" class="st14" width="7.19" height="29.14"/>
				<polygon class="st14" points="776.71,38.08 768.19,38.08 761.89,48.32 767.98,48.32 				"/>
				<path class="st14" d="M797.27,71.22V61.18c0-7.82-4.03-12.13-11.35-12.13c-3.49,0-6.93,0.94-9.44,2.57l-0.76,0.49l1.89,5.46
					l1.24-0.8c1.75-1.13,4.13-1.81,6.36-1.81c3.17,0,4.75,1.42,4.92,4.46c-6.17,0.13-10.66,1.55-13.36,4.24
					c-1.82,1.81-2.75,4.13-2.75,6.88c0,4.4,3.21,8.86,9.36,8.86c2.84,0,5.5-0.97,7.49-2.67l0.23,2.06h6.85l-0.25-1.36
					C797.41,75.87,797.27,73.84,797.27,71.22z M790.24,65.1v3.51c0,0.34-0.08,0.77-0.21,1.18c-0.58,1.71-2.35,3.71-5.39,3.71
					c-1.04,0-3.45-0.34-3.45-3.5c0-1.16,0.36-2.07,1.09-2.79C783.65,65.87,786.39,65.15,790.24,65.1z"/>
				<polygon class="st14" points="838.08,72.45 821.9,72.45 821.9,61.29 836.42,61.29 836.42,54.98 821.9,54.98 821.9,45.49 
					837.25,45.49 837.25,39.13 814.76,39.13 814.76,78.8 838.08,78.8 				"/>
				<path class="st14" d="M842.49,73.27c0,6.36-0.52,8.14-1.53,9.31c-0.86,0.94-2.43,1.52-4.55,1.68l-1.22,0.09l0.79,6.04H837
					c2.65,0,6.63-0.89,9.14-3.4c2.52-2.58,3.55-6.01,3.55-11.84V49.66h-7.19V73.27z"/>
				<path class="st14" d="M846.15,39.07c-2.43,0-4.26,1.81-4.26,4.2c0,2.37,1.78,4.15,4.15,4.15c1.23,0,2.33-0.44,3.1-1.24
					c0.75-0.77,1.14-1.81,1.1-2.93C850.23,40.83,848.51,39.07,846.15,39.07z"/>
				<path class="st14" d="M867.16,49.05c-8.09,0-13.74,6.42-13.74,15.62c0,8.92,5.63,14.68,14.35,14.68c4.54,0,7.62-0.96,9.4-1.76
					l0.87-0.39l-1.37-5.75l-1.26,0.53c-1.58,0.67-3.52,1.29-6.98,1.29c-2.25,0-7.31-0.71-7.98-7h17.62l1.06-0.26l0.12-1.02
					c0.06-0.53,0.14-1.25,0.14-2.15C879.4,55.98,875.62,49.05,867.16,49.05z M866.77,54.86c1.61,0,2.9,0.48,3.83,1.43
					c1.21,1.23,1.61,2.98,1.73,4.19h-11.65C861.31,57.96,863.07,54.86,866.77,54.86z"/>
				<path class="st14" d="M896.78,55.3c2.57,0,4.18,0.61,5.08,1.12l1.27,0.72l1.79-6.1l-0.86-0.43c-1.39-0.7-4.13-1.51-7.28-1.51
					c-9.17,0-15.57,6.33-15.57,15.4c0,8.88,5.83,14.85,14.52,14.85c3.7,0,6.75-0.91,8.24-1.68l0.79-0.41l-1.34-5.89l-1.28,0.56
					c-1.35,0.6-3.01,1.23-5.52,1.23c-4.88,0-8.16-3.57-8.16-8.88C888.45,60.14,890.63,55.3,896.78,55.3z"/>
				<path class="st14" d="M932.76,70.33V49.66h-7.19v17.62c0,0.72-0.13,1.48-0.36,2.06c-0.7,1.72-2.53,3.72-5.36,3.72
					c-2.25,0-4.83-0.84-4.83-7.38V49.66h-7.19v16.84c0,11.65,7.28,12.91,10.41,12.91c3.82,0,6.39-1.6,8.01-3.19l0.16,2.58h6.66
					l-0.1-1.25C932.83,75.68,932.76,73.39,932.76,70.33z"/>
				<path class="st14" d="M946.74,41.61l-7.08,1.89v6.16h-4.16v6.02h4.16v13.48c0,3.74,0.7,6.22,2.17,7.75
					c1.4,1.6,3.52,2.45,6.14,2.45c1.89,0,3.58-0.27,4.76-0.75l0.76-0.31l-0.36-5.9l-1.37,0.37c-0.49,0.13-1.33,0.29-2.52,0.29
					c-1.27,0-2.5-0.31-2.5-4.06V55.69h6.98v-6.02h-6.98V41.61z"/>
				<rect x="956.91" y="49.66" class="st14" width="7.19" height="29.14"/>
				<path class="st14" d="M960.51,39.07c-2.4,0-4.2,1.81-4.2,4.2c0,2.33,1.8,4.15,4.09,4.15c1.25,0,2.38-0.45,3.16-1.26
					c0.74-0.77,1.13-1.8,1.1-2.91C964.65,40.83,962.9,39.07,960.51,39.07z"/>
				<path class="st14" d="M987.18,49.66l-5.47,15.84c-0.45,1.25-0.86,2.39-1.23,3.49c-0.34-1.08-0.74-2.23-1.19-3.48l-5.54-15.85
					h-7.7l11.08,29.14h6.24l11.44-29.14H987.18z"/>
				<path class="st14" d="M1017.93,77.44c-0.29-1.57-0.43-3.6-0.43-6.22V61.18c0-7.82-4.03-12.13-11.35-12.13
					c-3.49,0-6.93,0.94-9.44,2.57l-0.76,0.49l1.89,5.46l1.24-0.8c1.75-1.13,4.13-1.81,6.36-1.81c3.17,0,4.75,1.42,4.93,4.46
					c-6.17,0.13-10.66,1.55-13.36,4.24c-1.82,1.81-2.75,4.13-2.75,6.88c0,4.4,3.21,8.86,9.36,8.86c2.84,0,5.5-0.97,7.49-2.67
					l0.23,2.06h6.85L1017.93,77.44z M1010.48,65.1v3.51c0,0.34-0.08,0.76-0.22,1.18c-0.58,1.71-2.35,3.71-5.39,3.71
					c-1.04,0-3.45-0.34-3.45-3.5c0-1.16,0.36-2.07,1.09-2.79C1003.88,65.87,1006.62,65.15,1010.48,65.1z"/>
			</g>
			<g>
				<path class="st15" d="M573.67,132.26c1.58,0.97,3.89,1.78,6.32,1.78c3.61,0,5.71-1.9,5.71-4.66c0-2.55-1.46-4.01-5.15-5.43
					c-4.46-1.58-7.21-3.89-7.21-7.74c0-4.25,3.53-7.41,8.84-7.41c2.8,0,4.82,0.65,6.04,1.34l-0.97,2.88
					c-0.89-0.48-2.71-1.3-5.19-1.3c-3.73,0-5.15,2.23-5.15,4.09c0,2.55,1.66,3.81,5.43,5.27c4.62,1.78,6.97,4.01,6.97,8.03
					c0,4.21-3.12,7.86-9.56,7.86c-2.63,0-5.51-0.77-6.97-1.74L573.67,132.26z"/>
				<path class="st15" d="M602.06,111.43c0.04,1.22-0.85,2.19-2.27,2.19c-1.26,0-2.15-0.97-2.15-2.19c0-1.26,0.93-2.23,2.23-2.23
					C601.2,109.2,602.06,110.18,602.06,111.43z M598.08,136.56v-19.61h3.57v19.61H598.08z"/>
				<path class="st15" d="M611.14,132.91c1.05,0.69,2.92,1.42,4.7,1.42c2.59,0,3.81-1.3,3.81-2.92c0-1.7-1.01-2.63-3.65-3.61
					c-3.52-1.26-5.19-3.2-5.19-5.55c0-3.16,2.55-5.75,6.77-5.75c1.99,0,3.73,0.57,4.82,1.22l-0.89,2.59
					c-0.77-0.49-2.19-1.13-4.01-1.13c-2.11,0-3.28,1.21-3.28,2.67c0,1.62,1.18,2.35,3.73,3.32c3.4,1.3,5.15,3,5.15,5.92
					c0,3.44-2.68,5.88-7.33,5.88c-2.15,0-4.14-0.53-5.51-1.34L611.14,132.91z"/>
				<path class="st15" d="M636.04,111.31v5.63h5.1v2.71h-5.1v10.58c0,2.43,0.69,3.81,2.67,3.81c0.93,0,1.62-0.12,2.07-0.24
					l0.16,2.68c-0.69,0.28-1.78,0.48-3.16,0.48c-1.66,0-3-0.53-3.85-1.5c-1.01-1.05-1.38-2.8-1.38-5.11v-10.7h-3.04v-2.71h3.04v-4.7
					L636.04,111.31z"/>
				<path class="st15" d="M650.96,127.4c0.08,4.82,3.16,6.81,6.73,6.81c2.55,0,4.09-0.45,5.43-1.01l0.61,2.55
					c-1.26,0.57-3.4,1.21-6.53,1.21c-6.04,0-9.65-3.97-9.65-9.89s3.49-10.58,9.2-10.58c6.4,0,8.11,5.63,8.11,9.24
					c0,0.73-0.08,1.3-0.12,1.66H650.96z M661.42,124.85c0.04-2.27-0.93-5.79-4.94-5.79c-3.61,0-5.19,3.32-5.47,5.79H661.42z"/>
				<path class="st15" d="M673.35,122.25c0-2.03-0.04-3.69-0.16-5.31h3.12l0.16,3.16h0.12c1.09-1.86,2.92-3.61,6.16-3.61
					c2.68,0,4.7,1.62,5.55,3.93h0.08c0.61-1.09,1.38-1.95,2.19-2.55c1.18-0.89,2.47-1.38,4.34-1.38c2.59,0,6.44,1.7,6.44,8.51v11.55
					h-3.49v-11.1c0-3.77-1.38-6.04-4.25-6.04c-2.03,0-3.61,1.5-4.22,3.24c-0.16,0.49-0.28,1.14-0.28,1.78v12.12h-3.49v-11.75
					c0-3.12-1.38-5.39-4.09-5.39c-2.23,0-3.85,1.78-4.42,3.57c-0.2,0.53-0.28,1.13-0.28,1.74v11.83h-3.49V122.25z"/>
				<path class="st15" d="M722.08,136.56l-0.28-2.47h-0.12c-1.1,1.54-3.2,2.92-6,2.92c-3.97,0-6-2.8-6-5.63
					c0-4.74,4.22-7.33,11.79-7.29v-0.41c0-1.62-0.45-4.54-4.46-4.54c-1.82,0-3.73,0.57-5.1,1.46l-0.81-2.35
					c1.62-1.05,3.97-1.74,6.45-1.74c6,0,7.46,4.09,7.46,8.03v7.33c0,1.7,0.08,3.36,0.32,4.7H722.08z M721.56,126.55
					c-3.89-0.08-8.31,0.61-8.31,4.42c0,2.31,1.54,3.4,3.36,3.4c2.55,0,4.17-1.62,4.74-3.28c0.12-0.37,0.2-0.77,0.2-1.13V126.55z"/>
				<path class="st15" d="M761.74,123.75h-10.62v9.85h11.83v2.96H747.6v-27.31h14.75v2.96h-11.23v8.63h10.62V123.75z"/>
				<path class="st15" d="M771,132.91c1.05,0.69,2.92,1.42,4.7,1.42c2.59,0,3.81-1.3,3.81-2.92c0-1.7-1.01-2.63-3.65-3.61
					c-3.52-1.26-5.19-3.2-5.19-5.55c0-3.16,2.55-5.75,6.77-5.75c1.99,0,3.73,0.57,4.82,1.22l-0.89,2.59
					c-0.77-0.49-2.19-1.13-4.01-1.13c-2.11,0-3.28,1.21-3.28,2.67c0,1.62,1.18,2.35,3.73,3.32c3.4,1.3,5.15,3,5.15,5.92
					c0,3.44-2.68,5.88-7.33,5.88c-2.15,0-4.14-0.53-5.51-1.34L771,132.91z"/>
				<path class="st15" d="M795.89,111.31v5.63h5.1v2.71h-5.1v10.58c0,2.43,0.69,3.81,2.67,3.81c0.93,0,1.62-0.12,2.07-0.24
					l0.16,2.68c-0.69,0.28-1.78,0.48-3.16,0.48c-1.66,0-3-0.53-3.85-1.5c-1.01-1.05-1.38-2.8-1.38-5.11v-10.7h-3.04v-2.71h3.04v-4.7
					L795.89,111.31z"/>
				<path class="st15" d="M819.93,136.56l-0.28-2.47h-0.12c-1.1,1.54-3.2,2.92-6,2.92c-3.97,0-6-2.8-6-5.63
					c0-4.74,4.22-7.33,11.79-7.29v-0.41c0-1.62-0.45-4.54-4.46-4.54c-1.82,0-3.73,0.57-5.1,1.46l-0.81-2.35
					c1.62-1.05,3.97-1.74,6.45-1.74c6,0,7.46,4.09,7.46,8.03v7.33c0,1.7,0.08,3.36,0.32,4.7H819.93z M819.41,126.55
					c-3.89-0.08-8.31,0.61-8.31,4.42c0,2.31,1.54,3.4,3.36,3.4c2.55,0,4.17-1.62,4.74-3.28c0.12-0.37,0.2-0.77,0.2-1.13V126.55z"/>
				<path class="st15" d="M836.81,111.31v5.63h5.1v2.71h-5.1v10.58c0,2.43,0.69,3.81,2.67,3.81c0.93,0,1.62-0.12,2.07-0.24
					l0.16,2.68c-0.69,0.28-1.78,0.48-3.16,0.48c-1.66,0-3-0.53-3.85-1.5c-1.01-1.05-1.38-2.8-1.38-5.11v-10.7h-3.04v-2.71h3.04v-4.7
					L836.81,111.31z"/>
				<path class="st15" d="M860.85,136.56l-0.28-2.47h-0.12c-1.1,1.54-3.2,2.92-6,2.92c-3.97,0-6-2.8-6-5.63
					c0-4.74,4.22-7.33,11.79-7.29v-0.41c0-1.62-0.45-4.54-4.46-4.54c-1.82,0-3.73,0.57-5.1,1.46l-0.81-2.35
					c1.62-1.05,3.97-1.74,6.45-1.74c6,0,7.46,4.09,7.46,8.03v7.33c0,1.7,0.08,3.36,0.32,4.7H860.85z M860.32,126.55
					c-3.89-0.08-8.31,0.61-8.31,4.42c0,2.31,1.54,3.4,3.36,3.4c2.55,0,4.17-1.62,4.74-3.28c0.12-0.37,0.2-0.77,0.2-1.13V126.55z"/>
				<path class="st15" d="M873.59,107.79h3.57v28.77h-3.57V107.79z"/>
			</g>
			<g>
				<path class="st15" d="M578.57,184.92l-2.84,8.59h-3.65l9.28-27.31h4.25l9.32,27.31h-3.77l-2.92-8.59H578.57z M587.53,182.16
					l-2.68-7.86c-0.61-1.78-1.01-3.4-1.42-4.98h-0.08c-0.4,1.62-0.85,3.28-1.38,4.94l-2.67,7.9H587.53z"/>
				<path class="st15" d="M602.79,179.2c0-2.03-0.04-3.69-0.16-5.31h3.16l0.2,3.24h0.08c0.97-1.86,3.24-3.69,6.48-3.69
					c2.71,0,6.93,1.62,6.93,8.35v11.71h-3.57V182.2c0-3.16-1.18-5.79-4.54-5.79c-2.35,0-4.17,1.66-4.78,3.65
					c-0.16,0.45-0.24,1.05-0.24,1.66v11.79h-3.57V179.2z"/>
				<path class="st15" d="M633.48,168.26v5.63h5.1v2.71h-5.1v10.58c0,2.43,0.69,3.81,2.67,3.81c0.93,0,1.62-0.12,2.07-0.24
					l0.16,2.68c-0.69,0.28-1.78,0.48-3.16,0.48c-1.66,0-3-0.53-3.85-1.5c-1.01-1.05-1.38-2.8-1.38-5.11v-10.7h-3.04v-2.71H630v-4.7
					L633.48,168.26z"/>
				<path class="st15" d="M650.64,168.38c0.04,1.22-0.85,2.19-2.27,2.19c-1.26,0-2.15-0.97-2.15-2.19c0-1.26,0.93-2.23,2.23-2.23
					C649.79,166.15,650.64,167.13,650.64,168.38z M646.66,193.51v-19.61h3.57v19.61H646.66z"/>
				<path class="st15" d="M674.19,192.78c-0.93,0.49-3,1.13-5.63,1.13c-5.92,0-9.77-4.01-9.77-10.01c0-6.04,4.14-10.42,10.54-10.42
					c2.11,0,3.97,0.53,4.94,1.01l-0.81,2.76c-0.85-0.49-2.19-0.93-4.14-0.93c-4.5,0-6.93,3.32-6.93,7.42c0,4.54,2.92,7.33,6.81,7.33
					c2.03,0,3.36-0.53,4.38-0.97L674.19,192.78z"/>
				<path class="st15" d="M699.94,183.54c0,7.25-5.02,10.42-9.77,10.42c-5.31,0-9.4-3.89-9.4-10.09c0-6.56,4.3-10.42,9.73-10.42
					C696.13,173.45,699.94,177.54,699.94,183.54z M684.38,183.74c0,4.3,2.47,7.54,5.96,7.54c3.4,0,5.96-3.2,5.96-7.62
					c0-3.32-1.66-7.54-5.88-7.54C686.2,176.12,684.38,180.01,684.38,183.74z"/>
				<path class="st15" d="M708.5,180.01c0-2.31-0.04-4.3-0.16-6.12h3.12l0.12,3.85h0.16c0.89-2.63,3.04-4.3,5.43-4.3
					c0.4,0,0.69,0.04,1.01,0.12v3.36c-0.36-0.08-0.73-0.12-1.21-0.12c-2.51,0-4.3,1.91-4.78,4.58c-0.08,0.49-0.16,1.05-0.16,1.66
					v10.45h-3.53V180.01z"/>
				<path class="st15" d="M725.98,180.01c0-2.31-0.04-4.3-0.16-6.12h3.12l0.12,3.85h0.16c0.89-2.63,3.04-4.3,5.43-4.3
					c0.4,0,0.69,0.04,1.01,0.12v3.36c-0.36-0.08-0.73-0.12-1.21-0.12c-2.51,0-4.3,1.91-4.78,4.58c-0.08,0.49-0.16,1.05-0.16,1.66
					v10.45h-3.53V180.01z"/>
				<path class="st15" d="M759.71,188.16c0,2.03,0.04,3.81,0.16,5.35h-3.16l-0.2-3.2h-0.08c-0.93,1.58-3,3.65-6.48,3.65
					c-3.08,0-6.77-1.7-6.77-8.59v-11.47h3.57v10.86c0,3.73,1.13,6.24,4.38,6.24c2.39,0,4.05-1.66,4.7-3.24
					c0.2-0.53,0.32-1.18,0.32-1.82v-12.04h3.57V188.16z"/>
				<path class="st15" d="M769.7,180.3c0-2.51-0.08-4.54-0.16-6.4h3.2l0.16,3.36h0.08c1.46-2.39,3.77-3.81,6.97-3.81
					c4.74,0,8.31,4.01,8.31,9.97c0,7.05-4.3,10.54-8.92,10.54c-2.59,0-4.86-1.13-6.04-3.08h-0.08v10.66h-3.53V180.3z M773.22,185.52
					c0,0.53,0.08,1.01,0.16,1.46c0.65,2.47,2.79,4.17,5.35,4.17c3.77,0,5.96-3.08,5.96-7.58c0-3.93-2.07-7.29-5.83-7.29
					c-2.43,0-4.7,1.74-5.39,4.42c-0.12,0.45-0.24,0.97-0.24,1.46V185.52z"/>
				<path class="st15" d="M810.81,192.78c-0.93,0.49-3,1.13-5.63,1.13c-5.92,0-9.77-4.01-9.77-10.01c0-6.04,4.14-10.42,10.54-10.42
					c2.11,0,3.97,0.53,4.94,1.01l-0.81,2.76c-0.85-0.49-2.19-0.93-4.14-0.93c-4.5,0-6.93,3.32-6.93,7.42c0,4.54,2.92,7.33,6.81,7.33
					c2.03,0,3.36-0.53,4.38-0.97L810.81,192.78z"/>
				<path class="st15" d="M823.02,168.38c0.04,1.22-0.85,2.19-2.27,2.19c-1.26,0-2.15-0.97-2.15-2.19c0-1.26,0.93-2.23,2.23-2.23
					C822.17,166.15,823.02,167.13,823.02,168.38z M819.05,193.51v-19.61h3.57v19.61H819.05z"/>
				<path class="st15" d="M850.35,183.54c0,7.25-5.02,10.42-9.77,10.42c-5.31,0-9.4-3.89-9.4-10.09c0-6.56,4.3-10.42,9.73-10.42
					C846.54,173.45,850.35,177.54,850.35,183.54z M834.78,183.74c0,4.3,2.47,7.54,5.96,7.54c3.4,0,5.96-3.2,5.96-7.62
					c0-3.32-1.66-7.54-5.88-7.54C836.61,176.12,834.78,180.01,834.78,183.74z M846.09,165.42l-4.94,5.8h-2.55l3.57-5.8H846.09z"/>
				<path class="st15" d="M858.91,179.2c0-2.03-0.04-3.69-0.16-5.31h3.16l0.2,3.24h0.08c0.97-1.86,3.24-3.69,6.48-3.69
					c2.71,0,6.93,1.62,6.93,8.35v11.71h-3.57V182.2c0-3.16-1.17-5.79-4.54-5.79c-2.35,0-4.17,1.66-4.78,3.65
					c-0.16,0.45-0.24,1.05-0.24,1.66v11.79h-3.57V179.2z"/>
				<path class="st15" d="M915.07,164.74v23.71c0,1.74,0.04,3.73,0.16,5.07h-3.2l-0.16-3.4h-0.08c-1.1,2.19-3.49,3.85-6.69,3.85
					c-4.74,0-8.39-4.01-8.39-9.97c-0.04-6.53,4.01-10.54,8.79-10.54c3,0,5.02,1.42,5.92,3h0.08v-11.71H915.07z M911.5,181.88
					c0-0.45-0.04-1.05-0.16-1.5c-0.53-2.27-2.47-4.13-5.15-4.13c-3.69,0-5.88,3.24-5.88,7.58c0,3.97,1.95,7.25,5.8,7.25
					c2.39,0,4.58-1.58,5.23-4.26c0.12-0.48,0.16-0.97,0.16-1.54V181.88z"/>
				<path class="st15" d="M927.04,184.35c0.08,4.82,3.16,6.81,6.73,6.81c2.55,0,4.09-0.45,5.43-1.01l0.61,2.55
					c-1.26,0.57-3.4,1.21-6.53,1.21c-6.04,0-9.65-3.97-9.65-9.89s3.49-10.58,9.2-10.58c6.4,0,8.11,5.63,8.11,9.24
					c0,0.73-0.08,1.3-0.12,1.66H927.04z M937.49,181.8c0.04-2.27-0.93-5.8-4.94-5.8c-3.61,0-5.19,3.32-5.47,5.8H937.49z"/>
			</g>
			<g>
				<path class="st15" d="M573.67,245.56c1.58,0.97,3.89,1.78,6.32,1.78c3.61,0,5.71-1.9,5.71-4.66c0-2.55-1.46-4.01-5.15-5.43
					c-4.46-1.58-7.21-3.89-7.21-7.74c0-4.25,3.53-7.41,8.84-7.41c2.8,0,4.82,0.65,6.04,1.34l-0.97,2.88
					c-0.89-0.48-2.71-1.3-5.19-1.3c-3.73,0-5.15,2.23-5.15,4.09c0,2.55,1.66,3.81,5.43,5.27c4.62,1.78,6.97,4.01,6.97,8.03
					c0,4.21-3.12,7.86-9.56,7.86c-2.63,0-5.51-0.77-6.97-1.74L573.67,245.56z"/>
				<path class="st15" d="M609.07,249.86l-0.28-2.47h-0.12c-1.09,1.54-3.2,2.92-6,2.92c-3.97,0-6-2.8-6-5.63
					c0-4.74,4.22-7.33,11.79-7.29v-0.41c0-1.62-0.45-4.54-4.46-4.54c-1.82,0-3.73,0.57-5.1,1.46l-0.81-2.35
					c1.62-1.05,3.97-1.74,6.45-1.74c6,0,7.46,4.09,7.46,8.03v7.33c0,1.7,0.08,3.36,0.32,4.7H609.07z M608.54,239.85
					c-3.89-0.08-8.31,0.61-8.31,4.42c0,2.31,1.54,3.4,3.36,3.4c2.55,0,4.17-1.62,4.74-3.28c0.12-0.37,0.2-0.77,0.2-1.13V239.85z"/>
				<path class="st15" d="M621.8,235.55c0-2.03-0.04-3.69-0.16-5.31h3.16l0.2,3.24h0.08c0.97-1.86,3.24-3.69,6.48-3.69
					c2.71,0,6.93,1.62,6.93,8.35v11.71h-3.57v-11.31c0-3.16-1.17-5.79-4.54-5.79c-2.35,0-4.17,1.66-4.78,3.65
					c-0.16,0.45-0.24,1.05-0.24,1.66v11.79h-3.57V235.55z"/>
				<path class="st15" d="M661.14,222.54h3.52v24.36h11.67v2.96h-15.2V222.54z"/>
				<path class="st15" d="M700.02,244.51c0,2.03,0.04,3.81,0.16,5.35h-3.16l-0.2-3.2h-0.08c-0.93,1.58-3,3.65-6.48,3.65
					c-3.08,0-6.77-1.7-6.77-8.59v-11.47h3.57v10.86c0,3.73,1.13,6.24,4.38,6.24c2.39,0,4.05-1.66,4.7-3.24
					c0.2-0.53,0.32-1.18,0.32-1.82v-12.04h3.57V244.51z"/>
				<path class="st15" d="M713.98,224.73c0.04,1.22-0.85,2.19-2.27,2.19c-1.26,0-2.15-0.97-2.15-2.19c0-1.26,0.93-2.23,2.23-2.23
					C713.13,222.5,713.98,223.47,713.98,224.73z M710,249.86v-19.61h3.57v19.61H710z"/>
				<path class="st15" d="M723.06,246.21c1.05,0.69,2.92,1.42,4.7,1.42c2.59,0,3.81-1.3,3.81-2.92c0-1.7-1.01-2.63-3.65-3.61
					c-3.52-1.26-5.19-3.2-5.19-5.55c0-3.16,2.55-5.75,6.77-5.75c1.99,0,3.73,0.57,4.82,1.22l-0.89,2.59
					c-0.77-0.49-2.19-1.13-4.01-1.13c-2.11,0-3.28,1.21-3.28,2.67c0,1.62,1.18,2.35,3.73,3.32c3.4,1.3,5.15,3,5.15,5.92
					c0,3.44-2.68,5.88-7.33,5.88c-2.15,0-4.14-0.53-5.51-1.34L723.06,246.21z"/>
				<path class="st15" d="M756.44,222.87c1.7-0.28,3.93-0.53,6.77-0.53c3.48,0,6.04,0.81,7.66,2.27c1.5,1.3,2.39,3.28,2.39,5.72
					c0,2.47-0.73,4.42-2.11,5.83c-1.87,1.99-4.9,3-8.35,3c-1.05,0-2.02-0.04-2.84-0.24v10.94h-3.52V222.87z M759.96,236.04
					c0.77,0.2,1.74,0.28,2.92,0.28c4.25,0,6.85-2.07,6.85-5.84c0-3.61-2.55-5.35-6.44-5.35c-1.54,0-2.71,0.12-3.32,0.28V236.04z"/>
				<path class="st15" d="M798.68,239.89c0,7.25-5.02,10.42-9.77,10.42c-5.31,0-9.4-3.89-9.4-10.09c0-6.57,4.3-10.42,9.73-10.42
					C794.87,229.8,798.68,233.89,798.68,239.89z M783.12,240.09c0,4.3,2.47,7.54,5.96,7.54c3.4,0,5.96-3.2,5.96-7.62
					c0-3.32-1.66-7.54-5.88-7.54C784.94,232.47,783.12,236.36,783.12,240.09z"/>
				<path class="st15" d="M811.54,224.61v5.63h5.1v2.71h-5.1v10.58c0,2.43,0.69,3.81,2.67,3.81c0.93,0,1.62-0.12,2.07-0.24
					l0.16,2.68c-0.69,0.28-1.78,0.48-3.16,0.48c-1.66,0-3-0.53-3.85-1.5c-1.01-1.05-1.38-2.8-1.38-5.11v-10.7h-3.04v-2.71h3.04v-4.7
					L811.54,224.61z"/>
				<path class="st15" d="M842.23,239.89c0,7.25-5.02,10.42-9.77,10.42c-5.31,0-9.4-3.89-9.4-10.09c0-6.57,4.3-10.42,9.73-10.42
					C838.42,229.8,842.23,233.89,842.23,239.89z M826.67,240.09c0,4.3,2.47,7.54,5.96,7.54c3.4,0,5.96-3.2,5.96-7.62
					c0-3.32-1.66-7.54-5.88-7.54C828.5,232.47,826.67,236.36,826.67,240.09z"/>
				<path class="st15" d="M850.32,246.21c1.05,0.69,2.92,1.42,4.7,1.42c2.59,0,3.81-1.3,3.81-2.92c0-1.7-1.01-2.63-3.65-3.61
					c-3.52-1.26-5.19-3.2-5.19-5.55c0-3.16,2.55-5.75,6.77-5.75c1.99,0,3.73,0.57,4.82,1.22l-0.89,2.59
					c-0.77-0.49-2.19-1.13-4.01-1.13c-2.11,0-3.28,1.21-3.28,2.67c0,1.62,1.18,2.35,3.73,3.32c3.4,1.3,5.15,3,5.15,5.92
					c0,3.44-2.68,5.88-7.33,5.88c-2.15,0-4.14-0.53-5.51-1.34L850.32,246.21z"/>
				<path class="st15" d="M878.17,221.77l-4.94,5.8h-2.55l3.57-5.8H878.17z M870.92,249.86v-19.61h3.57v19.61H870.92z"/>
			</g>
		</g>
	</g>
</g>
</svg>
