<?xml version="1.0" encoding="utf-8"?>
<!-- Generator: Adobe Illustrator 24.0.0, SVG Export Plug-In . SVG Version: 6.00 Build 0)  -->
<svg version="1.1" xmlns="http://www.w3.org/2000/svg" xmlns:xlink="http://www.w3.org/1999/xlink" x="0px" y="0px"
	 viewBox="0 0 512 250" style="enable-background:new 0 0 512 250;" xml:space="preserve">
<style type="text/css">
	.st0{fill:#C09F04;}
	.st1{fill:#C09F04;stroke:#C09F04;stroke-width:0.216;stroke-miterlimit:5;}
	.st2{fill:#FFFFFF;}
	.st3{fill:url(#SVGID_1_);}
	.st4{fill:url(#SVGID_2_);}
	.st5{fill:#C1AE27;}
	.st6{fill:#C09D01;}
	.st7{fill:url(#SVGID_3_);}
	.st8{fill:url(#SVGID_4_);}
	.st9{fill:url(#SVGID_5_);}
	.st10{fill:url(#SVGID_6_);}
	.st11{fill:url(#SVGID_7_);}
	.st12{fill:url(#SVGID_8_);}
	.st13{fill:url(#SVGID_9_);}
	.st14{fill:url(#SVGID_10_);}
	.st15{fill:url(#SVGID_11_);}
	.st16{fill:url(#SVGID_12_);}
	.st17{fill:url(#SVGID_13_);}
	.st18{fill:url(#SVGID_14_);}
	.st19{fill:none;}
	.st20{fill:url(#SVGID_15_);}
	.st21{fill:url(#SVGID_16_);}
	.st22{fill:url(#SVGID_17_);}
	.st23{fill:url(#SVGID_18_);}
	.st24{fill:url(#SVGID_19_);}
	.st25{fill:url(#SVGID_20_);}
	.st26{fill:url(#SVGID_21_);}
</style>
<g id="GUIAS">
</g>
<g id="Capa_1">
	<g>
		<g>
			<g>
				<path class="st0" d="M191.88,177.4v6.41h-4.19v-18.6h6.56c4.69,0,7.03,1.98,7.03,5.93c0,1.87-0.67,3.38-2.02,4.53
					c-1.34,1.15-3.14,1.73-5.39,1.73H191.88z M191.88,168.42v5.8h1.65c2.23,0,3.35-0.98,3.35-2.93c0-1.91-1.12-2.87-3.35-2.87
					H191.88z"/>
				<path class="st0" d="M207.7,183.8h-4.1v-19.66h4.1V183.8z"/>
				<path class="st0" d="M222.2,183.8h-3.88v-1.91h-0.05c-0.89,1.49-2.21,2.23-3.96,2.23c-1.29,0-2.3-0.36-3.04-1.1
					s-1.11-1.71-1.11-2.93c0-2.58,1.53-4.06,4.58-4.46l3.61-0.48c0-1.45-0.79-2.18-2.36-2.18c-1.58,0-3.09,0.47-4.51,1.41v-3.09
					c0.57-0.29,1.35-0.55,2.34-0.78s1.89-0.34,2.7-0.34c3.79,0,5.68,1.89,5.68,5.67V183.8z M218.35,178.41v-0.89l-2.41,0.31
					c-1.33,0.17-2,0.77-2,1.8c0,0.47,0.16,0.85,0.49,1.15c0.32,0.3,0.76,0.45,1.32,0.45c0.77,0,1.4-0.27,1.88-0.8
					C218.11,179.89,218.35,179.22,218.35,178.41z"/>
				<path class="st0" d="M233.48,183.65c-0.61,0.32-1.52,0.48-2.74,0.48c-2.89,0-4.33-1.5-4.33-4.5v-6.08h-2.15v-3.02h2.15v-2.87
					l4.09-1.17v4.03h2.98v3.02h-2.98v5.37c0,1.38,0.55,2.07,1.65,2.07c0.43,0,0.88-0.12,1.34-0.38V183.65z"/>
				<path class="st0" d="M246.84,183.8h-3.88v-1.91h-0.05c-0.89,1.49-2.21,2.23-3.96,2.23c-1.29,0-2.3-0.36-3.04-1.1
					s-1.11-1.71-1.11-2.93c0-2.58,1.53-4.06,4.58-4.46l3.61-0.48c0-1.45-0.79-2.18-2.36-2.18c-1.58,0-3.09,0.47-4.51,1.41v-3.09
					c0.57-0.29,1.35-0.55,2.34-0.78c0.99-0.22,1.89-0.34,2.7-0.34c3.79,0,5.68,1.89,5.68,5.67V183.8z M242.98,178.41v-0.89
					l-2.41,0.31c-1.33,0.17-2,0.77-2,1.8c0,0.47,0.16,0.85,0.49,1.15c0.32,0.3,0.76,0.45,1.32,0.45c0.77,0,1.4-0.27,1.88-0.8
					C242.74,179.89,242.98,179.22,242.98,178.41z"/>
				<path class="st0" d="M258.74,167.28c-0.53-0.21-1.03-0.31-1.52-0.31c-1.31,0-1.97,0.71-1.97,2.14v1.41h3.04v3.02h-3.04v10.26
					h-4.09v-10.26h-2.23v-3.02h2.23v-1.65c0-1.51,0.49-2.73,1.48-3.66c0.99-0.93,2.33-1.39,4.02-1.39c0.83,0,1.52,0.09,2.08,0.26
					V167.28z"/>
				<path class="st0" d="M266.59,184.13c-2.21,0-3.95-0.62-5.22-1.86c-1.27-1.24-1.9-2.93-1.9-5.05c0-2.2,0.66-3.91,1.97-5.16
					c1.31-1.24,3.09-1.86,5.33-1.86c2.21,0,3.93,0.62,5.19,1.86c1.25,1.24,1.88,2.88,1.88,4.92c0,2.21-0.65,3.95-1.94,5.23
					C270.61,183.49,268.84,184.13,266.59,184.13z M266.69,173.34c-0.97,0-1.72,0.33-2.26,1c-0.54,0.67-0.8,1.61-0.8,2.83
					c0,2.55,1.03,3.83,3.09,3.83c1.96,0,2.94-1.31,2.94-3.93C269.66,174.58,268.67,173.34,266.69,173.34z"/>
				<path class="st0" d="M285.16,174.22c-0.49-0.27-1.07-0.4-1.73-0.4c-0.89,0-1.59,0.33-2.09,0.98c-0.5,0.65-0.75,1.54-0.75,2.67
					v6.34h-4.1v-13.28h4.1v2.46h0.05c0.65-1.8,1.82-2.7,3.5-2.7c0.43,0,0.77,0.05,1.01,0.16V174.22z"/>
				<path class="st0" d="M308.16,183.8h-4.09v-7.57c0-1.93-0.71-2.89-2.13-2.89c-0.67,0-1.22,0.29-1.65,0.87
					c-0.42,0.58-0.64,1.3-0.64,2.17v7.43h-4.1v-7.65c0-1.88-0.7-2.81-2.09-2.81c-0.7,0-1.26,0.28-1.68,0.83s-0.63,1.31-0.63,2.26
					v7.38h-4.1v-13.28h4.1v2.08h0.05c0.42-0.71,1.02-1.29,1.78-1.73c0.77-0.45,1.6-0.67,2.51-0.67c1.88,0,3.16,0.83,3.85,2.48
					c1.01-1.65,2.5-2.48,4.46-2.48c2.89,0,4.33,1.78,4.33,5.34V183.8z"/>
				<path class="st0" d="M322.46,183.8h-3.88v-1.91h-0.05c-0.89,1.49-2.21,2.23-3.96,2.23c-1.29,0-2.3-0.36-3.04-1.1
					c-0.74-0.73-1.11-1.71-1.11-2.93c0-2.58,1.53-4.06,4.58-4.46l3.61-0.48c0-1.45-0.79-2.18-2.36-2.18c-1.58,0-3.09,0.47-4.51,1.41
					v-3.09c0.57-0.29,1.35-0.55,2.34-0.78s1.89-0.34,2.7-0.34c3.79,0,5.68,1.89,5.68,5.67V183.8z M318.6,178.41v-0.89l-2.41,0.31
					c-1.33,0.17-2,0.77-2,1.8c0,0.47,0.16,0.85,0.49,1.15c0.32,0.3,0.76,0.45,1.32,0.45c0.77,0,1.4-0.27,1.88-0.8
					S318.6,179.22,318.6,178.41z"/>
				<path class="st0" d="M333.43,183.8v-18.6h6.59c6.61,0,9.91,3.02,9.91,9.07c0,2.9-0.9,5.21-2.7,6.94c-1.8,1.73-4.2,2.59-7.2,2.59
					H333.43z M337.62,168.62v11.79h2.08c1.82,0,3.24-0.55,4.27-1.63c1.03-1.09,1.55-2.57,1.55-4.45c0-1.77-0.51-3.17-1.54-4.18
					c-1.03-1.02-2.46-1.52-4.31-1.52H337.62z"/>
				<path class="st0" d="M354.69,168.42c-0.69,0-1.26-0.21-1.7-0.62c-0.44-0.41-0.66-0.91-0.66-1.51c0-0.61,0.22-1.12,0.66-1.5
					c0.44-0.39,1.01-0.58,1.7-0.58c0.7,0,1.27,0.19,1.71,0.58c0.44,0.39,0.66,0.89,0.66,1.5c0,0.62-0.22,1.13-0.66,1.53
					C355.96,168.22,355.39,168.42,354.69,168.42z M356.71,183.8h-4.1v-13.28h4.1V183.8z"/>
				<path class="st0" d="M373.18,182.29c0,2.47-0.71,4.37-2.14,5.73s-3.49,2.03-6.2,2.03c-1.79,0-3.21-0.26-4.25-0.77v-3.45
					c1.37,0.8,2.75,1.19,4.14,1.19c1.38,0,2.46-0.37,3.22-1.1c0.76-0.73,1.14-1.72,1.14-2.98v-1.05h-0.05
					c-0.93,1.49-2.31,2.23-4.14,2.23c-1.69,0-3.04-0.6-4.03-1.79c-0.99-1.19-1.49-2.79-1.49-4.8c0-2.25,0.55-4.03,1.66-5.36
					c1.11-1.32,2.56-1.98,4.37-1.98c1.62,0,2.83,0.62,3.63,1.87h0.05v-1.54h4.1V182.29z M369.14,177.42v-1.05
					c0-0.84-0.25-1.55-0.75-2.15c-0.5-0.59-1.14-0.89-1.94-0.89c-0.91,0-1.62,0.35-2.14,1.06c-0.52,0.71-0.78,1.71-0.78,3
					c0,1.11,0.25,1.98,0.74,2.63c0.49,0.64,1.17,0.97,2.02,0.97c0.85,0,1.53-0.33,2.06-0.98
					C368.88,179.36,369.14,178.5,369.14,177.42z"/>
				<path class="st0" d="M378.68,168.42c-0.69,0-1.26-0.21-1.7-0.62c-0.44-0.41-0.66-0.91-0.66-1.51c0-0.61,0.22-1.12,0.66-1.5
					c0.44-0.39,1.01-0.58,1.7-0.58c0.7,0,1.27,0.19,1.71,0.58c0.44,0.39,0.66,0.89,0.66,1.5c0,0.62-0.22,1.13-0.66,1.53
					C379.95,168.22,379.38,168.42,378.68,168.42z M380.71,183.8h-4.1v-13.28h4.1V183.8z"/>
				<path class="st0" d="M392.19,183.65c-0.61,0.32-1.52,0.48-2.74,0.48c-2.89,0-4.33-1.5-4.33-4.5v-6.08h-2.15v-3.02h2.15v-2.87
					l4.09-1.17v4.03h2.98v3.02h-2.98v5.37c0,1.38,0.55,2.07,1.65,2.07c0.43,0,0.88-0.12,1.34-0.38V183.65z"/>
				<path class="st0" d="M405.55,183.8h-3.88v-1.91h-0.05c-0.89,1.49-2.21,2.23-3.95,2.23c-1.29,0-2.3-0.36-3.04-1.1
					c-0.74-0.73-1.11-1.71-1.11-2.93c0-2.58,1.53-4.06,4.58-4.46l3.6-0.48c0-1.45-0.79-2.18-2.36-2.18c-1.58,0-3.09,0.47-4.51,1.41
					v-3.09c0.57-0.29,1.35-0.55,2.34-0.78c0.99-0.22,1.89-0.34,2.7-0.34c3.79,0,5.68,1.89,5.68,5.67V183.8z M401.69,178.41v-0.89
					l-2.41,0.31c-1.33,0.17-2,0.77-2,1.8c0,0.47,0.16,0.85,0.49,1.15s0.76,0.45,1.32,0.45c0.77,0,1.4-0.27,1.88-0.8
					S401.69,179.22,401.69,178.41z"/>
				<path class="st0" d="M412.89,183.8h-4.1v-19.66h4.1V183.8z"/>
				<path class="st0" d="M435.22,183.8h-11.16v-18.6h10.73v3.41h-6.54v4.14h6.08v3.4h-6.08v4.25h6.97V183.8z"/>
				<path class="st0" d="M436.94,183.45v-3.32c0.67,0.41,1.35,0.71,2.02,0.91c0.67,0.2,1.3,0.3,1.9,0.3c0.73,0,1.3-0.1,1.72-0.3
					c0.42-0.2,0.63-0.5,0.63-0.91c0-0.26-0.1-0.48-0.29-0.65c-0.19-0.17-0.43-0.32-0.73-0.45c-0.3-0.13-0.62-0.25-0.98-0.35
					c-0.35-0.1-0.7-0.22-1.02-0.35c-0.53-0.2-0.99-0.41-1.39-0.64c-0.4-0.23-0.74-0.5-1.01-0.8c-0.27-0.3-0.48-0.65-0.62-1.05
					c-0.14-0.4-0.21-0.87-0.21-1.41c0-0.74,0.16-1.38,0.49-1.92c0.32-0.54,0.76-0.98,1.3-1.32c0.54-0.34,1.16-0.59,1.86-0.75
					c0.7-0.16,1.42-0.24,2.17-0.24c0.59,0,1.19,0.05,1.79,0.14c0.61,0.09,1.2,0.22,1.79,0.4v3.16c-0.52-0.3-1.07-0.53-1.67-0.68
					c-0.59-0.15-1.17-0.23-1.74-0.23c-0.27,0-0.52,0.02-0.76,0.07c-0.24,0.05-0.45,0.12-0.63,0.21c-0.18,0.09-0.32,0.21-0.43,0.35
					c-0.1,0.14-0.15,0.3-0.15,0.49c0,0.24,0.08,0.45,0.23,0.62c0.16,0.17,0.36,0.32,0.61,0.45c0.25,0.13,0.53,0.24,0.84,0.34
					c0.31,0.1,0.61,0.2,0.92,0.3c0.55,0.19,1.04,0.4,1.48,0.62c0.44,0.22,0.82,0.49,1.13,0.79c0.32,0.3,0.56,0.66,0.73,1.06
					c0.17,0.41,0.25,0.89,0.25,1.45c0,0.79-0.17,1.46-0.51,2.02c-0.34,0.56-0.79,1.01-1.36,1.36c-0.57,0.35-1.22,0.61-1.96,0.77
					c-0.74,0.16-1.51,0.24-2.3,0.24C439.53,184.13,438.18,183.9,436.94,183.45z"/>
				<path class="st0" d="M457.52,183.65c-0.61,0.32-1.52,0.48-2.74,0.48c-2.89,0-4.33-1.5-4.33-4.5v-6.08h-2.15v-3.02h2.15v-2.87
					l4.09-1.17v4.03h2.98v3.02h-2.98v5.37c0,1.38,0.55,2.07,1.65,2.07c0.43,0,0.88-0.12,1.34-0.38V183.65z"/>
				<path class="st0" d="M470.88,183.8H467v-1.91h-0.05c-0.89,1.49-2.21,2.23-3.96,2.23c-1.29,0-2.3-0.36-3.04-1.1
					c-0.74-0.73-1.11-1.71-1.11-2.93c0-2.58,1.53-4.06,4.58-4.46l3.61-0.48c0-1.45-0.79-2.18-2.36-2.18c-1.58,0-3.09,0.47-4.51,1.41
					v-3.09c0.57-0.29,1.35-0.55,2.34-0.78s1.89-0.34,2.7-0.34c3.79,0,5.68,1.89,5.68,5.67V183.8z M467.03,178.41v-0.89l-2.41,0.31
					c-1.33,0.17-2,0.77-2,1.8c0,0.47,0.16,0.85,0.49,1.15c0.32,0.3,0.76,0.45,1.32,0.45c0.77,0,1.4-0.27,1.88-0.8
					C466.79,179.89,467.03,179.22,467.03,178.41z"/>
				<path class="st0" d="M482.15,183.65c-0.61,0.32-1.52,0.48-2.74,0.48c-2.89,0-4.33-1.5-4.33-4.5v-6.08h-2.15v-3.02h2.15v-2.87
					l4.09-1.17v4.03h2.98v3.02h-2.98v5.37c0,1.38,0.55,2.07,1.65,2.07c0.43,0,0.88-0.12,1.34-0.38V183.65z"/>
				<path class="st0" d="M495.51,183.8h-3.88v-1.91h-0.05c-0.89,1.49-2.21,2.23-3.96,2.23c-1.29,0-2.3-0.36-3.04-1.1
					c-0.74-0.73-1.11-1.71-1.11-2.93c0-2.58,1.53-4.06,4.58-4.46l3.61-0.48c0-1.45-0.79-2.18-2.36-2.18c-1.58,0-3.09,0.47-4.51,1.41
					v-3.09c0.57-0.29,1.35-0.55,2.34-0.78c0.99-0.22,1.89-0.34,2.7-0.34c3.79,0,5.68,1.89,5.68,5.67V183.8z M491.66,178.41v-0.89
					l-2.41,0.31c-1.33,0.17-2,0.77-2,1.8c0,0.47,0.16,0.85,0.49,1.15c0.32,0.3,0.76,0.45,1.32,0.45c0.77,0,1.4-0.27,1.88-0.8
					S491.66,179.22,491.66,178.41z"/>
				<path class="st0" d="M502.85,183.8h-4.1v-19.66h4.1V183.8z"/>
			</g>
			<g>
				<path class="st1" d="M187.9,221.59v-7c1.27,1.06,2.65,1.86,4.13,2.39c1.49,0.53,2.99,0.8,4.5,0.8c0.89,0,1.67-0.08,2.33-0.24
					c0.66-0.16,1.22-0.38,1.66-0.67c0.44-0.28,0.78-0.62,0.99-1.01c0.22-0.39,0.33-0.81,0.33-1.26c0-0.61-0.17-1.16-0.52-1.64
					c-0.35-0.48-0.83-0.93-1.43-1.33c-0.61-0.41-1.32-0.8-2.15-1.18c-0.83-0.38-1.73-0.77-2.69-1.16c-2.45-1.02-4.28-2.27-5.48-3.74
					c-1.2-1.47-1.8-3.25-1.8-5.34c0-1.63,0.33-3.04,0.98-4.21c0.66-1.17,1.55-2.14,2.68-2.9c1.13-0.76,2.44-1.32,3.93-1.67
					c1.49-0.36,3.06-0.54,4.72-0.54c1.63,0,3.08,0.1,4.34,0.3c1.26,0.2,2.42,0.5,3.49,0.91v6.54c-0.52-0.36-1.1-0.68-1.72-0.96
					c-0.62-0.28-1.26-0.51-1.91-0.69c-0.66-0.18-1.31-0.32-1.96-0.41c-0.65-0.09-1.26-0.13-1.85-0.13c-0.8,0-1.53,0.08-2.19,0.23
					c-0.66,0.15-1.21,0.37-1.66,0.64c-0.45,0.28-0.8,0.61-1.05,0.99c-0.25,0.39-0.37,0.82-0.37,1.3c0,0.52,0.14,0.99,0.42,1.41
					c0.28,0.42,0.67,0.81,1.18,1.18c0.51,0.37,1.13,0.74,1.86,1.09c0.73,0.36,1.55,0.73,2.47,1.1c1.25,0.52,2.38,1.08,3.38,1.67
					c1,0.59,1.86,1.26,2.57,2c0.71,0.74,1.26,1.59,1.64,2.55c0.38,0.95,0.57,2.07,0.57,3.33c0,1.75-0.33,3.22-0.99,4.41
					c-0.66,1.19-1.56,2.15-2.7,2.89c-1.14,0.74-2.46,1.26-3.97,1.59c-1.51,0.32-3.1,0.48-4.78,0.48c-1.72,0-3.36-0.15-4.91-0.44
					C190.38,222.61,189.04,222.17,187.9,221.59z"/>
				<path class="st1" d="M232.4,222.79h-6.54v-3.21h-0.09c-1.5,2.51-3.72,3.76-6.67,3.76c-2.17,0-3.88-0.62-5.13-1.85
					c-1.25-1.23-1.87-2.88-1.87-4.93c0-4.34,2.57-6.85,7.72-7.52l6.08-0.81c0-2.45-1.33-3.67-3.98-3.67c-2.67,0-5.2,0.79-7.61,2.38
					v-5.2c0.96-0.5,2.28-0.93,3.95-1.31c1.67-0.38,3.19-0.57,4.56-0.57c6.38,0,9.58,3.19,9.58,9.56V222.79z M225.9,213.69v-1.51
					l-4.07,0.52c-2.24,0.29-3.37,1.3-3.37,3.04c0,0.79,0.27,1.43,0.82,1.93c0.55,0.5,1.29,0.75,2.22,0.75c1.3,0,2.35-0.45,3.17-1.34
					C225.5,216.2,225.9,215.06,225.9,213.69z"/>
				<path class="st1" d="M259.49,222.79h-6.89v-12.44c0-3.47-1.24-5.2-3.72-5.2c-1.2,0-2.18,0.46-2.95,1.38
					c-0.77,0.92-1.16,2.08-1.16,3.5v12.77h-6.91V200.4h6.91v3.54h0.09c1.65-2.73,4.05-4.09,7.19-4.09c4.96,0,7.43,3.08,7.43,9.23
					V222.79z"/>
				<path class="st1" d="M296.67,222.79h-18.67v-31.36h7.06v25.63h11.61V222.79z"/>
				<path class="st1" d="M321.48,222.79h-6.89v-3.41h-0.11c-1.71,2.64-3.99,3.96-6.84,3.96c-5.19,0-7.78-3.14-7.78-9.42V200.4h6.89
					v12.9c0,3.16,1.25,4.75,3.76,4.75c1.24,0,2.23-0.43,2.97-1.3c0.74-0.87,1.12-2.05,1.12-3.53V200.4h6.89V222.79z"/>
				<path class="st1" d="M330.8,196.85c-1.17,0-2.12-0.35-2.86-1.04c-0.74-0.69-1.12-1.54-1.12-2.55c0-1.04,0.37-1.88,1.12-2.54
					c0.74-0.66,1.7-0.98,2.86-0.98c1.18,0,2.14,0.33,2.88,0.98c0.74,0.66,1.1,1.5,1.1,2.54c0,1.05-0.37,1.91-1.1,2.58
					C332.94,196.52,331.98,196.85,330.8,196.85z M334.21,222.79h-6.91V200.4h6.91V222.79z"/>
				<path class="st1" d="M338.56,222.2v-5.6c1.14,0.68,2.27,1.2,3.4,1.53c1.13,0.34,2.2,0.5,3.2,0.5c1.22,0,2.19-0.17,2.9-0.5
					c0.71-0.33,1.06-0.85,1.06-1.53c0-0.44-0.16-0.8-0.48-1.09c-0.32-0.29-0.73-0.55-1.24-0.77c-0.5-0.22-1.05-0.42-1.65-0.59
					c-0.6-0.17-1.17-0.37-1.73-0.59c-0.89-0.33-1.67-0.7-2.35-1.08c-0.68-0.39-1.25-0.83-1.71-1.34c-0.46-0.51-0.81-1.1-1.05-1.77
					c-0.24-0.67-0.36-1.46-0.36-2.38c0-1.25,0.27-2.33,0.82-3.24c0.55-0.9,1.28-1.64,2.19-2.22c0.91-0.58,1.95-1,3.13-1.27
					c1.17-0.27,2.39-0.4,3.66-0.4c0.99,0,2,0.08,3.02,0.23c1.02,0.15,2.03,0.38,3.02,0.67v5.34c-0.88-0.51-1.81-0.89-2.81-1.15
					c-1-0.25-1.98-0.38-2.94-0.38c-0.45,0-0.88,0.04-1.28,0.12c-0.4,0.08-0.75,0.2-1.06,0.35s-0.55,0.35-0.72,0.59
					c-0.17,0.24-0.26,0.51-0.26,0.82c0,0.41,0.13,0.76,0.39,1.05c0.26,0.29,0.6,0.54,1.03,0.75c0.42,0.21,0.89,0.4,1.41,0.57
					c0.52,0.17,1.03,0.34,1.54,0.51c0.92,0.32,1.75,0.67,2.49,1.05c0.74,0.38,1.38,0.82,1.91,1.33c0.53,0.51,0.94,1.11,1.22,1.79
					c0.28,0.69,0.43,1.5,0.43,2.45c0,1.33-0.29,2.46-0.86,3.4c-0.58,0.94-1.34,1.71-2.3,2.3c-0.95,0.59-2.06,1.02-3.3,1.29
					c-1.25,0.27-2.54,0.4-3.88,0.4C342.94,223.33,340.66,222.95,338.56,222.2z"/>
				<path class="st1" d="M379.83,211.99v10.8h-7.06v-31.36h11.06c7.9,0,11.85,3.33,11.85,9.99c0,3.15-1.13,5.7-3.4,7.64
					c-2.27,1.95-5.3,2.92-9.09,2.92H379.83z M379.83,196.85v9.77h2.78c3.76,0,5.64-1.65,5.64-4.94c0-3.22-1.88-4.83-5.64-4.83
					H379.83z"/>
				<path class="st1" d="M410.26,223.33c-3.73,0-6.67-1.05-8.8-3.14c-2.14-2.09-3.2-4.93-3.2-8.52c0-3.7,1.11-6.6,3.32-8.69
					c2.21-2.09,5.21-3.14,8.99-3.14c3.72,0,6.63,1.05,8.75,3.14c2.11,2.09,3.17,4.86,3.17,8.3c0,3.72-1.09,6.66-3.27,8.81
					C417.04,222.26,414.06,223.33,410.26,223.33z M410.44,205.14c-1.63,0-2.9,0.56-3.8,1.68c-0.9,1.12-1.36,2.71-1.36,4.77
					c0,4.3,1.74,6.45,5.2,6.45c3.31,0,4.96-2.21,4.96-6.63C415.45,207.23,413.78,205.14,410.44,205.14z"/>
				<path class="st1" d="M440.51,222.53c-1.02,0.54-2.56,0.81-4.61,0.81c-4.87,0-7.3-2.53-7.3-7.59v-10.26h-3.63v-5.1h3.63v-4.83
					l6.89-1.97v6.8h5.03v5.1h-5.03v9.05c0,2.33,0.93,3.5,2.78,3.5c0.73,0,1.48-0.21,2.25-0.63V222.53z"/>
				<path class="st1" d="M455.07,223.33c-3.73,0-6.67-1.05-8.8-3.14c-2.14-2.09-3.2-4.93-3.2-8.52c0-3.7,1.11-6.6,3.32-8.69
					c2.21-2.09,5.21-3.14,8.99-3.14c3.72,0,6.63,1.05,8.75,3.14c2.11,2.09,3.17,4.86,3.17,8.3c0,3.72-1.09,6.66-3.27,8.81
					C461.85,222.26,458.86,223.33,455.07,223.33z M455.25,205.14c-1.63,0-2.9,0.56-3.8,1.68c-0.9,1.12-1.36,2.71-1.36,4.77
					c0,4.3,1.74,6.45,5.2,6.45c3.31,0,4.96-2.21,4.96-6.63C460.25,207.23,458.58,205.14,455.25,205.14z"/>
				<path class="st1" d="M470.31,222.2v-5.6c1.14,0.68,2.27,1.2,3.4,1.53c1.13,0.34,2.2,0.5,3.2,0.5c1.22,0,2.19-0.17,2.9-0.5
					c0.71-0.33,1.06-0.85,1.06-1.53c0-0.44-0.16-0.8-0.48-1.09c-0.32-0.29-0.73-0.55-1.24-0.77c-0.5-0.22-1.05-0.42-1.65-0.59
					c-0.6-0.17-1.17-0.37-1.73-0.59c-0.89-0.33-1.67-0.7-2.35-1.08c-0.68-0.39-1.25-0.83-1.71-1.34c-0.46-0.51-0.81-1.1-1.05-1.77
					c-0.24-0.67-0.36-1.46-0.36-2.38c0-1.25,0.27-2.33,0.82-3.24c0.55-0.9,1.28-1.64,2.19-2.22c0.91-0.58,1.95-1,3.13-1.27
					c1.17-0.27,2.39-0.4,3.66-0.4c0.99,0,2,0.08,3.02,0.23c1.02,0.15,2.03,0.38,3.02,0.67v5.34c-0.87-0.51-1.81-0.89-2.81-1.15
					c-1-0.25-1.98-0.38-2.94-0.38c-0.45,0-0.88,0.04-1.28,0.12c-0.4,0.08-0.75,0.2-1.06,0.35s-0.55,0.35-0.72,0.59
					c-0.17,0.24-0.26,0.51-0.26,0.82c0,0.41,0.13,0.76,0.39,1.05c0.26,0.29,0.6,0.54,1.03,0.75c0.42,0.21,0.89,0.4,1.41,0.57
					c0.52,0.17,1.03,0.34,1.54,0.51c0.92,0.32,1.75,0.67,2.49,1.05c0.74,0.38,1.38,0.82,1.91,1.33c0.53,0.51,0.94,1.11,1.22,1.79
					c0.28,0.69,0.43,1.5,0.43,2.45c0,1.33-0.29,2.46-0.86,3.4c-0.58,0.94-1.34,1.71-2.3,2.3c-0.96,0.59-2.06,1.02-3.3,1.29
					c-1.25,0.27-2.54,0.4-3.88,0.4C474.69,223.33,472.41,222.95,470.31,222.2z"/>
				<path class="st1" d="M501.95,189.79l-6.84,7.06h-4.99l5.69-7.06H501.95z M498.39,222.79h-6.91V200.4h6.91V222.79z"/>
			</g>
		</g>
		<g>
			<g>
				<path class="st2" d="M74.92,147.12L66.78,145c-0.21-0.05-0.42-0.07-0.62-0.06c-0.33,0.02-0.65,0.11-0.94,0.28
					c-0.47,0.28-0.81,0.73-0.95,1.26l-7.24,27.79c-0.42,1.62-0.19,3.31,0.66,4.75c0.85,1.44,2.21,2.47,3.83,2.89
					c0.62,0.16,1.26,0.23,1.9,0.2c2.74-0.14,5.05-2.02,5.74-4.68l7.24-27.79C76.68,148.53,76.02,147.41,74.92,147.12z"/>
				<g>
					
						<linearGradient id="SVGID_1_" gradientUnits="userSpaceOnUse" x1="58.9565" y1="173.3202" x2="70.9986" y2="146.2254" gradientTransform="matrix(0.9987 -0.051 0.051 0.9987 -6.7061 6.7224)">
						<stop  offset="0" style="stop-color:#D1C52E"/>
						<stop  offset="1" style="stop-color:#C09D01"/>
					</linearGradient>
					<path class="st3" d="M59.02,174.78c-0.59,2.25,0.76,4.54,3.01,5.13c2.25,0.59,4.54-0.76,5.13-3.01l7.24-27.79L66.26,147
						L59.02,174.78z"/>
				</g>
				<circle class="st2" cx="73.51" cy="129.01" r="27.52"/>
				
					<linearGradient id="SVGID_2_" gradientUnits="userSpaceOnUse" x1="54.5374" y1="130.9667" x2="103.9071" y2="118.8409" gradientTransform="matrix(0.9987 -0.051 0.051 0.9987 -6.7061 6.7224)">
					<stop  offset="0" style="stop-color:#D1C52E"/>
					<stop  offset="0.5028" style="stop-color:#C09D01"/>
					<stop  offset="1" style="stop-color:#CFC028"/>
				</linearGradient>
				<circle class="st4" cx="73.51" cy="129.01" r="24.69"/>
				<circle class="st2" cx="73.51" cy="129.01" r="18.46"/>
				<g>
					<path class="st5" d="M87.5,132.99c-0.06,0-0.12,0-0.18,0c-0.91-0.05-1.6-0.83-1.55-1.74c0.29-5.16-2.8-9.89-6.01-11.9
						c-0.77-0.48-1.01-1.5-0.52-2.27c0.48-0.77,1.5-1,2.27-0.52c3.9,2.44,7.92,8.14,7.55,14.87
						C89.01,132.29,88.33,132.95,87.5,132.99z"/>
				</g>
				<circle class="st6" cx="75.54" cy="115.63" r="2.59"/>
			</g>
			<g>
				<path class="st2" d="M41.05,88.14l-4.47,4.14c-0.11,0.1-0.21,0.22-0.28,0.36c-0.12,0.21-0.19,0.44-0.19,0.68
					c-0.01,0.4,0.13,0.78,0.4,1.07l14.14,15.25c0.82,0.89,1.95,1.4,3.16,1.45c1.21,0.05,2.37-0.38,3.26-1.21
					c0.34-0.32,0.63-0.68,0.86-1.08c0.98-1.73,0.74-3.87-0.62-5.33L43.16,88.22C42.59,87.62,41.65,87.58,41.05,88.14z"/>
				<g>
					
						<linearGradient id="SVGID_3_" gradientUnits="userSpaceOnUse" x1="81.8412" y1="62.7161" x2="90.5616" y2="43.0952" gradientTransform="matrix(0.4948 -0.869 0.869 0.4948 -41.254 148.299)">
						<stop  offset="0" style="stop-color:#D1C52E"/>
						<stop  offset="1" style="stop-color:#C09D01"/>
					</linearGradient>
					<path class="st7" d="M51.73,108.63c1.14,1.23,3.07,1.31,4.3,0.16c1.23-1.14,1.31-3.07,0.16-4.3L42.06,89.24l-4.47,4.14
						L51.73,108.63z"/>
				</g>
				<circle class="st2" cx="29.44" cy="81.94" r="19.93"/>
				
					<linearGradient id="SVGID_4_" gradientUnits="userSpaceOnUse" x1="78.6412" y1="32.0456" x2="114.3925" y2="23.2645" gradientTransform="matrix(0.4948 -0.869 0.869 0.4948 -41.254 148.299)">
					<stop  offset="0" style="stop-color:#D1C52E"/>
					<stop  offset="0.5028" style="stop-color:#C09D01"/>
					<stop  offset="1" style="stop-color:#CFC028"/>
				</linearGradient>
				<circle class="st8" cx="29.44" cy="81.94" r="17.88"/>
				<circle class="st2" cx="29.44" cy="81.94" r="13.36"/>
				<g>
					<path class="st5" d="M37.33,74.96c-0.02,0.04-0.04,0.07-0.07,0.11c-0.39,0.53-1.13,0.66-1.67,0.27
						c-3.04-2.19-7.13-2.14-9.6-0.97c-0.6,0.28-1.31,0.03-1.59-0.57c-0.28-0.6-0.03-1.31,0.57-1.59c3.01-1.43,8.06-1.66,12.02,1.19
						C37.49,73.76,37.63,74.43,37.33,74.96z"/>
				</g>
				<circle class="st6" cx="22.07" cy="75.48" r="1.87"/>
			</g>
			<g>
				<path class="st2" d="M32.51,46.77l-3.8-0.05c-0.1,0-0.19,0.01-0.28,0.04c-0.14,0.04-0.27,0.12-0.38,0.22
					c-0.18,0.17-0.28,0.41-0.28,0.65L27.6,60.61c-0.01,0.76,0.28,1.47,0.8,2.01c0.53,0.54,1.23,0.84,1.99,0.85
					c0.29,0,0.58-0.04,0.85-0.12c1.19-0.36,2-1.43,2.01-2.67l0.16-12.97C33.44,47.2,33.03,46.77,32.51,46.77z"/>
				<g>
					
						<linearGradient id="SVGID_5_" gradientUnits="userSpaceOnUse" x1="73.0917" y1="52.554" x2="78.5307" y2="40.3163" gradientTransform="matrix(0.9574 -0.2888 0.2888 0.9574 -55.5302 32.088)">
						<stop  offset="0" style="stop-color:#D1C52E"/>
						<stop  offset="1" style="stop-color:#C09D01"/>
					</linearGradient>
					<path class="st9" d="M28.54,60.62c-0.01,1.05,0.83,1.91,1.88,1.92s1.91-0.83,1.92-1.88L32.5,47.7l-3.8-0.05L28.54,60.62z"/>
				</g>
				<circle class="st2" cx="29.93" cy="38.98" r="12.43"/>
				
					<linearGradient id="SVGID_6_" gradientUnits="userSpaceOnUse" x1="71.0958" y1="33.4245" x2="93.3942" y2="27.9477" gradientTransform="matrix(0.9574 -0.2888 0.2888 0.9574 -55.5302 32.088)">
					<stop  offset="0" style="stop-color:#D1C52E"/>
					<stop  offset="0.5028" style="stop-color:#C09D01"/>
					<stop  offset="1" style="stop-color:#CFC028"/>
				</linearGradient>
				<circle class="st10" cx="29.93" cy="38.98" r="11.15"/>
				<circle class="st2" cx="29.93" cy="38.98" r="8.34"/>
				<g>
					<path class="st5" d="M36.5,39.21c-0.03,0.01-0.05,0.01-0.08,0.02c-0.4,0.08-0.79-0.19-0.87-0.59c-0.43-2.29-2.3-4.03-3.92-4.57
						c-0.39-0.13-0.6-0.55-0.47-0.94c0.13-0.39,0.55-0.6,0.94-0.47c1.97,0.65,4.36,2.71,4.92,5.7C37.09,38.74,36.86,39.1,36.5,39.21
						z"/>
				</g>
				<circle class="st6" cx="29.38" cy="32.89" r="1.17"/>
			</g>
			<g>
				<path class="st2" d="M64.03,77.71l0.05-3.8c0-0.1-0.01-0.19-0.04-0.28c-0.04-0.14-0.12-0.27-0.22-0.38
					c-0.17-0.18-0.41-0.28-0.65-0.28L50.2,72.8c-0.76-0.01-1.47,0.28-2.01,0.8c-0.54,0.53-0.84,1.23-0.85,1.99
					c0,0.29,0.04,0.58,0.12,0.85c0.36,1.19,1.43,2,2.67,2.01l12.97,0.16C63.61,78.63,64.03,78.22,64.03,77.71z"/>
				<g>
					
						<linearGradient id="SVGID_7_" gradientUnits="userSpaceOnUse" x1="138.0347" y1="163.8147" x2="143.4736" y2="151.577" gradientTransform="matrix(0.2888 0.9574 -0.9574 0.2888 166.4751 -104.6439)">
						<stop  offset="0" style="stop-color:#D1C52E"/>
						<stop  offset="1" style="stop-color:#C09D01"/>
					</linearGradient>
					<path class="st11" d="M50.18,73.73c-1.05-0.01-1.91,0.83-1.92,1.88c-0.01,1.05,0.83,1.91,1.88,1.92L63.1,77.7l0.05-3.8
						L50.18,73.73z"/>
				</g>
				<circle class="st2" cx="71.82" cy="75.13" r="12.43"/>
				
					<linearGradient id="SVGID_8_" gradientUnits="userSpaceOnUse" x1="136.0387" y1="144.6852" x2="158.3372" y2="139.2084" gradientTransform="matrix(0.2888 0.9574 -0.9574 0.2888 166.4751 -104.6439)">
					<stop  offset="0" style="stop-color:#D1C52E"/>
					<stop  offset="0.5028" style="stop-color:#C09D01"/>
					<stop  offset="1" style="stop-color:#CFC028"/>
				</linearGradient>
				<circle class="st12" cx="71.82" cy="75.13" r="11.15"/>
				<circle class="st2" cx="71.82" cy="75.13" r="8.34"/>
				<g>
					<path class="st5" d="M71.59,81.69c-0.01-0.03-0.01-0.05-0.02-0.08c-0.08-0.4,0.19-0.79,0.59-0.87c2.29-0.43,4.03-2.3,4.57-3.92
						c0.13-0.39,0.55-0.6,0.94-0.47c0.39,0.13,0.6,0.55,0.47,0.94c-0.65,1.97-2.71,4.36-5.7,4.92
						C72.06,82.28,71.7,82.05,71.59,81.69z"/>
				</g>
				<circle class="st6" cx="77.91" cy="74.57" r="1.17"/>
			</g>
			<g>
				<path class="st2" d="M110.96,166.33l4.07-4.23c0.1-0.11,0.19-0.23,0.25-0.36c0.1-0.21,0.15-0.43,0.15-0.67
					c-0.01-0.38-0.17-0.74-0.44-1.01l-14.43-13.91c-0.84-0.81-1.95-1.25-3.12-1.22c-1.17,0.02-2.26,0.5-3.07,1.34
					c-0.31,0.32-0.57,0.69-0.77,1.09c-0.85,1.72-0.5,3.77,0.88,5.1l14.43,13.91C109.5,166.92,110.41,166.9,110.96,166.33z"/>
				<g>
					
						<linearGradient id="SVGID_9_" gradientUnits="userSpaceOnUse" x1="197.3693" y1="185.5915" x2="205.775" y2="166.6786" gradientTransform="matrix(-0.445 0.8956 -0.8956 -0.445 351.682 53.5365)">
						<stop  offset="0" style="stop-color:#D1C52E"/>
						<stop  offset="1" style="stop-color:#C09D01"/>
					</linearGradient>
					<path class="st13" d="M99.57,147.2c-1.17-1.13-3.03-1.09-4.15,0.08c-1.13,1.17-1.09,3.03,0.08,4.15l14.43,13.91l4.07-4.23
						L99.57,147.2z"/>
				</g>
				<circle class="st2" cx="122.46" cy="171.67" r="19.21"/>
				
					<linearGradient id="SVGID_10_" gradientUnits="userSpaceOnUse" x1="194.2847" y1="156.0277" x2="228.746" y2="147.5635" gradientTransform="matrix(-0.445 0.8956 -0.8956 -0.445 351.682 53.5365)">
					<stop  offset="0" style="stop-color:#D1C52E"/>
					<stop  offset="0.5028" style="stop-color:#C09D01"/>
					<stop  offset="1" style="stop-color:#CFC028"/>
				</linearGradient>
				<circle class="st14" cx="122.46" cy="171.67" r="17.24"/>
				<circle class="st2" cx="122.46" cy="171.67" r="12.88"/>
				<g>
					<path class="st5" d="M115.26,178.82c0.02-0.04,0.04-0.07,0.06-0.11c0.34-0.54,1.05-0.69,1.59-0.35
						c3.04,1.94,6.98,1.68,9.29,0.41c0.56-0.3,1.26-0.1,1.56,0.46c0.3,0.56,0.1,1.26-0.46,1.56c-2.82,1.54-7.66,2.04-11.63-0.49
						C115.17,179.98,115,179.34,115.26,178.82z"/>
				</g>
				<circle class="st6" cx="129.91" cy="177.48" r="1.81"/>
			</g>
			<g>
				<path class="st2" d="M157.57,174.53l0-3.9c0-0.1-0.02-0.2-0.04-0.29c-0.05-0.15-0.13-0.28-0.24-0.39
					c-0.18-0.18-0.42-0.28-0.68-0.28l-13.32,0c-0.78,0-1.51,0.3-2.06,0.85c-0.55,0.55-0.85,1.28-0.85,2.06
					c0,0.3,0.05,0.59,0.13,0.88c0.38,1.22,1.5,2.03,2.77,2.03l13.32,0C157.14,175.49,157.57,175.06,157.57,174.53z"/>
				<g>
					
						<linearGradient id="SVGID_11_" gradientUnits="userSpaceOnUse" x1="166.8557" y1="151.3333" x2="172.4425" y2="138.7628" gradientTransform="matrix(0.3012 0.9536 -0.9536 0.3012 236.6593 -32.9277)">
						<stop  offset="0" style="stop-color:#D1C52E"/>
						<stop  offset="1" style="stop-color:#C09D01"/>
					</linearGradient>
					<path class="st15" d="M143.29,170.63c-1.08,0-1.95,0.87-1.95,1.95c0,1.08,0.87,1.95,1.95,1.95l13.32,0l0-3.9L143.29,170.63z"/>
				</g>
				<circle class="st2" cx="165.54" cy="171.78" r="12.77"/>
				
					<linearGradient id="SVGID_12_" gradientUnits="userSpaceOnUse" x1="164.8055" y1="131.6836" x2="187.7103" y2="126.0578" gradientTransform="matrix(0.3012 0.9536 -0.9536 0.3012 236.6593 -32.9277)">
					<stop  offset="0" style="stop-color:#D1C52E"/>
					<stop  offset="0.5028" style="stop-color:#C09D01"/>
					<stop  offset="1" style="stop-color:#CFC028"/>
				</linearGradient>
				<circle class="st16" cx="165.54" cy="171.78" r="11.46"/>
				<circle class="st2" cx="165.54" cy="171.78" r="8.56"/>
				<g>
					<path class="st5" d="M165.38,178.53c-0.01-0.03-0.02-0.05-0.02-0.08c-0.08-0.41,0.18-0.82,0.6-0.9
						c2.35-0.47,4.11-2.42,4.64-4.09c0.13-0.4,0.56-0.63,0.96-0.5c0.4,0.13,0.63,0.56,0.5,0.96c-0.64,2.04-2.73,4.51-5.79,5.13
						C165.88,179.12,165.5,178.89,165.38,178.53z"/>
				</g>
				<circle class="st6" cx="171.78" cy="171.13" r="1.2"/>
			</g>
			<g>
				<path class="st2" d="M105.22,202.46l3.7,1.23c0.09,0.03,0.19,0.05,0.29,0.05c0.15,0,0.3-0.03,0.44-0.1
					c0.23-0.11,0.4-0.31,0.48-0.55l4.19-12.64c0.24-0.74,0.19-1.53-0.16-2.22c-0.35-0.69-0.95-1.21-1.68-1.46
					c-0.28-0.09-0.58-0.14-0.87-0.15c-1.27-0.02-2.4,0.78-2.8,1.99l-4.19,12.64C104.45,201.76,104.72,202.3,105.22,202.46z"/>
				<g>
					
						<linearGradient id="SVGID_13_" gradientUnits="userSpaceOnUse" x1="217.5433" y1="120.4246" x2="223.1302" y2="107.8541" gradientTransform="matrix(-0.9999 -0.0144 0.0144 -0.9999 328.3453 312.6915)">
						<stop  offset="0" style="stop-color:#D1C52E"/>
						<stop  offset="1" style="stop-color:#C09D01"/>
					</linearGradient>
					<path class="st17" d="M113.42,190.14c0.34-1.02-0.22-2.13-1.24-2.47s-2.13,0.22-2.47,1.24l-4.19,12.64l3.7,1.23L113.42,190.14z
						"/>
				</g>
				<circle class="st2" cx="105.32" cy="210.89" r="12.77"/>
				
					<linearGradient id="SVGID_14_" gradientUnits="userSpaceOnUse" x1="215.4931" y1="100.7749" x2="238.3979" y2="95.1491" gradientTransform="matrix(-0.9999 -0.0144 0.0144 -0.9999 328.3453 312.6915)">
					<stop  offset="0" style="stop-color:#D1C52E"/>
					<stop  offset="0.5028" style="stop-color:#C09D01"/>
					<stop  offset="1" style="stop-color:#CFC028"/>
				</linearGradient>
				<circle class="st18" cx="105.32" cy="210.89" r="11.46"/>
				<circle class="st2" cx="105.32" cy="210.89" r="8.56"/>
				<g>
					<path class="st5" d="M98.97,208.62c0.03,0,0.05,0,0.08,0.01c0.42,0.05,0.72,0.43,0.67,0.85c-0.29,2.38,1,4.66,2.42,5.69
						c0.34,0.25,0.42,0.73,0.17,1.07c-0.25,0.34-0.73,0.42-1.07,0.17c-1.73-1.25-3.42-4.01-3.04-7.11
						C98.25,208.9,98.58,208.62,98.97,208.62z"/>
				</g>
				<circle class="st6" cx="103.98" cy="217.02" r="1.2"/>
			</g>
		</g>
		<g>
			<path class="st19" d="M216.15,88.46c6.67,0.48,13.02,0.36,17.55-0.98c13.84-4.11,16.19-13.41,16.19-18.91s-2-15.86-16.12-17.8
				c-5.98-0.82-12.24-0.39-17.63-0.2v0.45V88.46z"/>
			<g>
				<linearGradient id="SVGID_15_" gradientUnits="userSpaceOnUse" x1="422.9508" y1="79.7347" x2="492.8239" y2="79.7347">
					<stop  offset="0" style="stop-color:#008FD0"/>
					<stop  offset="0.6655" style="stop-color:#0062AA"/>
					<stop  offset="1" style="stop-color:#00509C"/>
				</linearGradient>
				<path class="st20" d="M459.5,54.1c-8.45-6.34-21.62-15.81-36.55-24.56v93.96c5.21,3.39,13.77,6.44,27.7,6.44l0.59-28.28h41.58
					l-0.06-23.96h-41.89V54.1H459.5z"/>
				<linearGradient id="SVGID_16_" gradientUnits="userSpaceOnUse" x1="422.9508" y1="139.035" x2="501.4948" y2="139.035">
					<stop  offset="0" style="stop-color:#0054A0"/>
					<stop  offset="0.6448" style="stop-color:#007DC1"/>
					<stop  offset="1" style="stop-color:#008ECF"/>
				</linearGradient>
				<path class="st21" d="M422.95,154.58h78.54v-24.65h-50.84c-13.93,0-22.49-3.06-27.7-6.44V154.58z"/>
				<linearGradient id="SVGID_17_" gradientUnits="userSpaceOnUse" x1="422.9508" y1="41.7831" x2="498.3824" y2="41.7831">
					<stop  offset="0" style="stop-color:#004C99"/>
					<stop  offset="0.392" style="stop-color:#0062AB"/>
					<stop  offset="1" style="stop-color:#008CCE"/>
				</linearGradient>
				<path class="st22" d="M498.38,54.1V29.47h-75.43v0.07c14.93,8.75,28.1,18.22,36.55,24.56H498.38z"/>
			</g>
			<g>
				
					<radialGradient id="SVGID_18_" cx="206.2927" cy="86.9897" r="47.5755" fx="204.8937" fy="87.5805" gradientTransform="matrix(0.9939 -0.1105 0.1583 1.4235 -12.5058 -14.0442)" gradientUnits="userSpaceOnUse">
					<stop  offset="0.0213" style="stop-color:#008FD0"/>
					<stop  offset="0.3193" style="stop-color:#008CCE"/>
					<stop  offset="0.5333" style="stop-color:#0083C6"/>
					<stop  offset="0.7211" style="stop-color:#0073B9"/>
					<stop  offset="0.8927" style="stop-color:#005DA7"/>
					<stop  offset="1" style="stop-color:#004B98"/>
				</radialGradient>
				<path class="st23" d="M216.15,51.02v-0.45c-7.2-0.31-19.05-4.39-28.06-11.49V58.2v25.83v23.55v47.15h28.06v-44.66V88.46V51.02z"
					/>
				<radialGradient id="SVGID_19_" cx="247.4238" cy="46.7209" r="53.9569" gradientUnits="userSpaceOnUse">
					<stop  offset="0.0213" style="stop-color:#007DC1"/>
					<stop  offset="0.3559" style="stop-color:#007ABF"/>
					<stop  offset="0.5963" style="stop-color:#0071B7"/>
					<stop  offset="0.8064" style="stop-color:#0061AA"/>
					<stop  offset="0.9992" style="stop-color:#004B98"/>
					<stop  offset="1" style="stop-color:#004B98"/>
				</radialGradient>
				<path class="st24" d="M243.6,29.97c-7.7-1.15-15.43-1.51-22.58-1.44c-1.65,0.02-3.29,0.05-4.87,0.11
					c-15.91,0.59-27.87,3.09-28.06,3.13v7.31c9.01,7.09,20.86,11.18,28.06,11.49c5.39-0.19,11.65-0.62,17.63,0.2
					c14.12,1.94,16.12,12.31,16.12,17.8s-2.36,14.8-16.19,18.91c-4.53,1.35-10.89,1.47-17.55,0.98v21.61
					c13.75,0.54,26.64-0.23,34.75-3.68c25.13-10.69,26.98-26.92,26.98-39.18C277.88,54.96,271.11,34.09,243.6,29.97z"/>
			</g>
			<g>
				<linearGradient id="SVGID_20_" gradientUnits="userSpaceOnUse" x1="327.1029" y1="89.9576" x2="395.9794" y2="66.4769">
					<stop  offset="0" style="stop-color:#004B98"/>
					<stop  offset="0.0871" style="stop-color:#0059A4"/>
					<stop  offset="0.2627" style="stop-color:#006FB6"/>
					<stop  offset="0.4548" style="stop-color:#007FC3"/>
					<stop  offset="0.6738" style="stop-color:#0088CB"/>
					<stop  offset="0.9787" style="stop-color:#008BCD"/>
				</linearGradient>
				<path class="st25" d="M337.27,27.7c-15.52-0.71-31.17,0.81-43.8,2.32c0,2.29,0,5,0,8.04c8.22,8.25,19.18,11.74,27.86,12.1
					c4.37-0.67,9.43-1.16,14.67-1.07c18.41,0.3,38.94,7.76,38.46,40.03c-0.69,46.41-38.74,43.99-53.13,43.16
					c1.17,8,5.43,16.31,13.67,21.78c33.02-2.05,69.39-14.52,69.39-66.8C404.38,41.36,371.12,29.24,337.27,27.7z"/>
				<linearGradient id="SVGID_21_" gradientUnits="userSpaceOnUse" x1="325.8743" y1="81.6045" x2="282.5656" y2="135.3491">
					<stop  offset="0.0213" style="stop-color:#008FD0"/>
					<stop  offset="0.2932" style="stop-color:#008CCE"/>
					<stop  offset="0.4884" style="stop-color:#0083C6"/>
					<stop  offset="0.6597" style="stop-color:#0073B9"/>
					<stop  offset="0.8162" style="stop-color:#005DA7"/>
					<stop  offset="0.9141" style="stop-color:#004B98"/>
				</linearGradient>
				<path class="st26" d="M321.33,132.26c0-2.08,0-5.69,0-10.25c0-20.75,0-61.58,0-71.86c-8.67-0.35-19.64-3.85-27.86-12.1
					c0,20.29,0,55.43,0,82.8c0,13.52,0,25.15,0,32.14c9.89,0.55,25.3,2.06,41.52,1.06C326.75,148.57,322.5,140.27,321.33,132.26z"/>
			</g>
		</g>
	</g>
</g>
</svg>
