<?xml version="1.0" encoding="utf-8"?>
<!-- Generator: Adobe Illustrator 24.0.0, SVG Export Plug-In . SVG Version: 6.00 Build 0)  -->
<svg version="1.1" xmlns="http://www.w3.org/2000/svg" xmlns:xlink="http://www.w3.org/1999/xlink" x="0px" y="0px"
	 viewBox="0 0 512 512" style="enable-background:new 0 0 512 512;" xml:space="preserve">
<style type="text/css">
	.st0{fill:#125DA9;}
	.st1{fill:#6A91BF;}
	.st2{fill:#FFFFFF;}
	.st3{fill:#969696;}
	.st4{fill:#B8B8B8;}
</style>
<g id="GUIAS">
</g>
<g id="Capa_1">
	<g>
		<path class="st0" d="M63.4,262.75v183.01c0,33.3,27,60.3,60.3,60.3h201.8c33.3,0,60.3-27,60.3-60.3v-29.7v-62.37L63.4,200.39
			V262.75z"/>
		<path class="st1" d="M385.81,206.63c-8.65,2.11-17.68,3.26-26.97,3.26c-62.66,0-113.63-50.97-113.63-113.63
			c0-9.74,1.24-19.2,3.55-28.23H123.7c-33.3,0-60.3,27-60.3,60.3v45.86v26.19l322.4,153.31v-26.18V206.63z"/>
		<path class="st2" d="M203.13,378.32h43.31v54.48h46.33c17.88,0,32.38-14.5,32.38-32.38l0-83.41l-100.39-30.66l-100.34,30.66
			l0,115.79h78.71V378.32z"/>
		<g>
			<polygon class="st2" points="350.3,312.83 224.33,272.05 99.29,312.82 92.94,293.33 224.31,250.49 356.61,293.32 			"/>
		</g>
		<g>
			<circle class="st1" cx="358.84" cy="96.26" r="90.2"/>
			<g>
				<polygon class="st2" points="340.93,144.45 304.66,104.67 319.81,90.86 341.14,114.25 403.23,48.02 418.19,62.04 				"/>
			</g>
		</g>
	</g>
</g>
</svg>
