<?xml version="1.0" encoding="utf-8"?>
<!-- Generator: Adobe Illustrator 24.0.0, SVG Export Plug-In . SVG Version: 6.00 Build 0)  -->
<svg version="1.1" id="Capa_1" xmlns="http://www.w3.org/2000/svg" xmlns:xlink="http://www.w3.org/1999/xlink" x="0px" y="0px"
	 viewBox="0 0 112 112" style="enable-background:new 0 0 112 112;" xml:space="preserve">
<style type="text/css">
	.st0{fill:#FFCA2D;}
	.st1{fill:#BB2D3B;}
	.st2{fill:#FFFFFF;}
	.st3{fill:#125DA9;}
	.st4{fill:#F7931E;}
	.st5{fill:#009245;}
	.st6{fill:#FF0000;}
	.st7{fill:#339CC1;}
</style>
<g>
	<path class="st3" d="M31.4,92.1h59.4c8.4,0,15.2-6.8,15.2-15.2V35.1c0-8.4-6.8-15.2-15.2-15.2H31.4c-5.8,0-11.1,3.3-13.6,8.5
		L7.5,49.3c-2.1,4.2-2.1,9.1,0,13.3l10.2,20.9C20.3,88.8,25.6,92.1,31.4,92.1z"/>
	<path class="st2" d="M78.8,56l6.4-6.4c2.2-2.2,2.2-5.7,0-7.8c-2.2-2.2-5.7-2.2-7.8,0L71,48.2l-6.4-6.4c-2.2-2.2-5.7-2.2-7.8,0
		c-2.2,2.2-2.2,5.7,0,7.8l6.4,6.4l-6.4,6.4c-2.2,2.2-2.2,5.7,0,7.8c1.1,1.1,2.5,1.6,3.9,1.6c1.4,0,2.8-0.5,3.9-1.6l6.4-6.4l6.4,6.4
		c1.1,1.1,2.5,1.6,3.9,1.6c1.4,0,2.8-0.5,3.9-1.6c2.2-2.2,2.2-5.7,0-7.8L78.8,56z"/>
</g>
</svg>
