<?xml version="1.0" encoding="utf-8"?>
<!-- Generator: Adobe Illustrator 24.0.0, SVG Export Plug-In . SVG Version: 6.00 Build 0)  -->
<svg version="1.1" xmlns="http://www.w3.org/2000/svg" xmlns:xlink="http://www.w3.org/1999/xlink" x="0px" y="0px"
	 viewBox="0 0 512 512" style="enable-background:new 0 0 512 512;" xml:space="preserve">
<style type="text/css">
	.st0{fill:#125DA9;}
	.st1{fill:#6A91BF;}
	.st2{fill:#FFFFFF;}
	.st3{fill:#969696;}
	.st4{fill:#B8B8B8;}
</style>
<g id="GUIAS">
</g>
<g id="Capa_1">
	<g>
		<g>
			<path class="st0" d="M71.88,127.41v309.98c0,38.01,30.82,68.83,68.83,68.83h230.35c38.01,0,68.83-30.82,68.83-68.83V302.41
				L71.88,127.41z"/>
			<path class="st1" d="M439.9,75.06c0-38.01-30.82-68.83-68.83-68.83H140.71c-38.01,0-68.83,30.82-68.83,68.83v52.35l368.02,175
				V75.06z"/>
		</g>
		<g>
			<rect x="124.04" y="98.66" class="st2" width="216.01" height="21.53"/>
			<rect x="124.04" y="158.87" class="st2" width="193.29" height="21.53"/>
			<rect x="124.04" y="219.08" class="st2" width="166.24" height="21.53"/>
			<rect x="124.04" y="279.29" class="st2" width="138.53" height="21.53"/>
		</g>
		<path class="st2" d="M421.11,176l10.69-25.18c4.21-9.92-0.42-21.37-10.34-25.58l-26-11.03c-9.98-4.24-21.5,0.42-25.73,10.4
			l-10.64,25.07L421.11,176z"/>
		
			<rect x="205.31" y="263.87" transform="matrix(0.3907 -0.9205 0.9205 0.3907 -71.0753 487.7397)" class="st2" width="255.21" height="67.38"/>
		<polygon class="st2" points="307.46,443.74 245.44,417.41 252.93,485.14 		"/>
	</g>
</g>
</svg>
